0, 0, Header, 1, 12, 256
1, 0, Start_track
1, 0, Sequencer_specific, 0A, 05, 0F, 12, 00, 00, 40, 7F, 00, 40, 01
1, 0, Sequencer_specific, 0D, 05, 0F, 1C, 32, 30, 30, 39, 2E, 30, 35, 2E, 30, 36
1, 0, Copyright_t, "Copyright \251 "
1, 0, Time_signature, 3, 2, 24, 8
1, 0, Key_signature, 2, "major"
1, 0, Tempo, 375000
1, 0, End_track
2, 0, Start_track
2, 0, Sequencer_specific, 05, 05, 0F, 09, 40, 48
2, 0, Sequencer_specific, 0F, 05, 0F, 06, 47, 65, 6E, 65, 72, 61, 6C, 20, 4D, 49, 44, 49
2, 0, Control_c, 0, 0, 0
2, 0, Control_c, 0, 32, 0
2, 0, Program_c, 0, 73
2, 0, Title_t, "G Flute"
2, 256, Note_on_c, 0, 73, 68
2, 384, Note_on_c, 0, 73, 0
2, 512, Note_on_c, 0, 73, 73
2, 640, Note_on_c, 0, 73, 0
2, 1024, Note_on_c, 0, 73, 70
2, 1152, Note_on_c, 0, 73, 0
2, 1280, Note_on_c, 0, 73, 67
2, 1408, Note_on_c, 0, 73, 0
2, 1792, Note_on_c, 0, 73, 66
2, 1920, Note_on_c, 0, 73, 0
2, 2048, Note_on_c, 0, 73, 71
2, 2176, Note_on_c, 0, 73, 0
2, 2560, Note_on_c, 0, 73, 63
2, 2688, Note_on_c, 0, 73, 0
2, 2816, Note_on_c, 0, 73, 68
2, 2944, Note_on_c, 0, 73, 0
2, 3328, Note_on_c, 0, 73, 68
2, 3456, Note_on_c, 0, 73, 0
2, 3584, Note_on_c, 0, 73, 72
2, 3712, Note_on_c, 0, 73, 0
2, 4096, Note_on_c, 0, 73, 63
2, 4224, Note_on_c, 0, 73, 0
2, 4352, Note_on_c, 0, 73, 71
2, 4480, Note_on_c, 0, 73, 0
2, 4864, Note_on_c, 0, 73, 64
2, 4992, Note_on_c, 0, 73, 0
2, 5120, Note_on_c, 0, 73, 67
2, 5248, Note_on_c, 0, 73, 0
2, 5632, Note_on_c, 0, 73, 72
2, 5760, Note_on_c, 0, 73, 0
2, 6400, Note_on_c, 0, 66, 69
2, 6528, Note_on_c, 0, 66, 0
2, 6656, Note_on_c, 0, 66, 63
2, 6784, Note_on_c, 0, 66, 0
2, 7168, Note_on_c, 0, 66, 68
2, 7296, Note_on_c, 0, 66, 0
2, 7424, Note_on_c, 0, 66, 65
2, 7552, Note_on_c, 0, 66, 0
2, 7936, Note_on_c, 0, 67, 69
2, 8064, Note_on_c, 0, 67, 0
2, 8192, Note_on_c, 0, 67, 65
2, 8320, Note_on_c, 0, 67, 0
2, 8704, Note_on_c, 0, 67, 67
2, 8832, Note_on_c, 0, 67, 0
2, 8960, Note_on_c, 0, 67, 72
2, 9088, Note_on_c, 0, 67, 0
2, 9472, Note_on_c, 0, 67, 73
2, 9600, Note_on_c, 0, 67, 0
2, 9728, Note_on_c, 0, 67, 67
2, 9856, Note_on_c, 0, 67, 0
2, 10240, Note_on_c, 0, 67, 68
2, 10368, Note_on_c, 0, 67, 0
2, 10496, Note_on_c, 0, 67, 67
2, 10624, Note_on_c, 0, 67, 0
2, 11008, Note_on_c, 0, 65, 72
2, 11136, Note_on_c, 0, 65, 0
2, 11264, Note_on_c, 0, 65, 67
2, 11392, Note_on_c, 0, 65, 0
2, 11776, Note_on_c, 0, 66, 70
2, 11904, Note_on_c, 0, 66, 0
2, 12032, Note_on_c, 0, 66, 64
2, 12160, Note_on_c, 0, 66, 0
2, 12544, Note_on_c, 0, 66, 74
2, 12672, Note_on_c, 0, 66, 0
2, 12800, Note_on_c, 0, 66, 68
2, 12928, Note_on_c, 0, 66, 0
2, 13312, Note_on_c, 0, 66, 66
2, 13440, Note_on_c, 0, 66, 0
2, 13568, Note_on_c, 0, 66, 67
2, 13696, Note_on_c, 0, 66, 0
2, 14080, Note_on_c, 0, 67, 69
2, 14208, Note_on_c, 0, 67, 0
2, 14336, Note_on_c, 0, 67, 72
2, 14464, Note_on_c, 0, 67, 0
2, 14848, Note_on_c, 0, 67, 72
2, 14976, Note_on_c, 0, 67, 0
2, 15104, Note_on_c, 0, 67, 71
2, 15232, Note_on_c, 0, 67, 0
2, 15616, Note_on_c, 0, 71, 68
2, 15744, Note_on_c, 0, 71, 0
2, 15872, Note_on_c, 0, 71, 67
2, 16000, Note_on_c, 0, 71, 0
2, 16384, Note_on_c, 0, 73, 65
2, 16512, Note_on_c, 0, 73, 0
2, 16640, Note_on_c, 0, 73, 69
2, 16768, Note_on_c, 0, 73, 0
2, 17152, Note_on_c, 0, 69, 66
2, 17280, Note_on_c, 0, 69, 0
2, 17408, Note_on_c, 0, 69, 68
2, 17536, Note_on_c, 0, 69, 0
2, 17920, Note_on_c, 0, 69, 70
2, 18048, Note_on_c, 0, 69, 0
2, 18176, Note_on_c, 0, 69, 67
2, 18304, Note_on_c, 0, 69, 0
2, 18688, Note_on_c, 0, 66, 70
2, 18816, Note_on_c, 0, 66, 0
2, 18944, Note_on_c, 0, 66, 67
2, 19072, Note_on_c, 0, 66, 0
2, 19456, Note_on_c, 0, 66, 67
2, 19584, Note_on_c, 0, 66, 0
2, 19712, Note_on_c, 0, 66, 70
2, 19840, Note_on_c, 0, 66, 0
2, 20224, Note_on_c, 0, 67, 72
2, 20352, Note_on_c, 0, 67, 0
2, 20480, Note_on_c, 0, 67, 68
2, 20608, Note_on_c, 0, 67, 0
2, 20992, Note_on_c, 0, 67, 74
2, 21120, Note_on_c, 0, 67, 0
2, 21248, Note_on_c, 0, 67, 63
2, 21376, Note_on_c, 0, 67, 0
2, 21760, Note_on_c, 0, 67, 69
2, 21888, Note_on_c, 0, 67, 0
2, 22016, Note_on_c, 0, 67, 67
2, 22144, Note_on_c, 0, 67, 0
2, 22528, Note_on_c, 0, 67, 67
2, 22656, Note_on_c, 0, 67, 0
2, 22784, Note_on_c, 0, 67, 66
2, 22912, Note_on_c, 0, 67, 0
2, 23296, Note_on_c, 0, 65, 67
2, 23424, Note_on_c, 0, 65, 0
2, 23552, Note_on_c, 0, 65, 70
2, 23680, Note_on_c, 0, 65, 0
2, 24064, Note_on_c, 0, 66, 64
2, 24192, Note_on_c, 0, 66, 0
2, 24320, Note_on_c, 0, 66, 69
2, 24448, Note_on_c, 0, 66, 0
2, 24832, Note_on_c, 0, 66, 67
2, 24960, Note_on_c, 0, 66, 0
2, 25088, Note_on_c, 0, 66, 69
2, 25216, Note_on_c, 0, 66, 0
2, 25600, Note_on_c, 0, 66, 70
2, 25728, Note_on_c, 0, 66, 0
2, 25856, Note_on_c, 0, 66, 63
2, 25984, Note_on_c, 0, 66, 0
2, 26368, Note_on_c, 0, 67, 74
2, 26496, Note_on_c, 0, 67, 0
2, 26624, Note_on_c, 0, 67, 68
2, 26752, Note_on_c, 0, 67, 0
2, 27136, Note_on_c, 0, 67, 70
2, 27264, Note_on_c, 0, 67, 0
2, 27392, Note_on_c, 0, 67, 72
2, 27520, Note_on_c, 0, 67, 0
2, 27904, Note_on_c, 0, 71, 66
2, 28032, Note_on_c, 0, 71, 0
2, 28160, Note_on_c, 0, 71, 72
2, 28288, Note_on_c, 0, 71, 0
2, 28672, Note_on_c, 0, 73, 71
2, 28800, Note_on_c, 0, 73, 0
2, 28928, Note_on_c, 0, 73, 67
2, 29056, Note_on_c, 0, 73, 0
2, 29440, Note_on_c, 0, 69, 68
2, 29568, Note_on_c, 0, 69, 0
2, 29696, Note_on_c, 0, 69, 70
2, 29824, Note_on_c, 0, 69, 0
2, 30208, Note_on_c, 0, 69, 71
2, 30336, Note_on_c, 0, 69, 0
2, 30464, Note_on_c, 0, 69, 70
2, 30592, Note_on_c, 0, 69, 0
2, 40192, Note_on_c, 0, 69, 63
2, 40320, Note_on_c, 0, 69, 0
2, 40448, Note_on_c, 0, 69, 67
2, 40576, Note_on_c, 0, 69, 0
2, 40960, Note_on_c, 0, 69, 71
2, 41088, Note_on_c, 0, 69, 0
2, 41216, Note_on_c, 0, 69, 68
2, 41344, Note_on_c, 0, 69, 0
2, 41728, Note_on_c, 0, 69, 75
2, 41856, Note_on_c, 0, 69, 0
2, 41984, Note_on_c, 0, 69, 69
2, 42112, Note_on_c, 0, 69, 0
2, 42496, Note_on_c, 0, 69, 68
2, 42624, Note_on_c, 0, 69, 0
2, 42624, End_track
3, 0, Start_track
3, 0, Sequencer_specific, 05, 05, 0F, 09, 00, 40
3, 0, Sequencer_specific, 0F, 05, 0F, 06, 47, 65, 6E, 65, 72, 61, 6C, 20, 4D, 49, 44, 49
3, 0, Control_c, 1, 0, 0
3, 0, Control_c, 1, 32, 0
3, 0, Program_c, 1, 73
3, 0, Title_t, "G Flute"
3, 256, Note_on_c, 1, 81, 69
3, 384, Note_on_c, 1, 81, 0
3, 512, Note_on_c, 1, 81, 69
3, 640, Note_on_c, 1, 81, 0
3, 1024, Note_on_c, 1, 81, 72
3, 1152, Note_on_c, 1, 81, 0
3, 1280, Note_on_c, 1, 81, 69
3, 1408, Note_on_c, 1, 81, 0
3, 1792, Note_on_c, 1, 81, 67
3, 1920, Note_on_c, 1, 81, 0
3, 2048, Note_on_c, 1, 81, 69
3, 2176, Note_on_c, 1, 81, 0
3, 2560, Note_on_c, 1, 81, 70
3, 2688, Note_on_c, 1, 81, 0
3, 2816, Note_on_c, 1, 81, 66
3, 2944, Note_on_c, 1, 81, 0
3, 3328, Note_on_c, 1, 81, 70
3, 3456, Note_on_c, 1, 81, 0
3, 3584, Note_on_c, 1, 81, 71
3, 3712, Note_on_c, 1, 81, 0
3, 4096, Note_on_c, 1, 81, 69
3, 4224, Note_on_c, 1, 81, 0
3, 4352, Note_on_c, 1, 81, 72
3, 4480, Note_on_c, 1, 81, 0
3, 4864, Note_on_c, 1, 81, 73
3, 4992, Note_on_c, 1, 81, 0
3, 5120, Note_on_c, 1, 81, 67
3, 5248, Note_on_c, 1, 81, 0
3, 5632, Note_on_c, 1, 81, 73
3, 5760, Note_on_c, 1, 81, 0
3, 6400, Note_on_c, 1, 69, 70
3, 6528, Note_on_c, 1, 69, 0
3, 6656, Note_on_c, 1, 69, 71
3, 6784, Note_on_c, 1, 69, 0
3, 7168, Note_on_c, 1, 70, 68
3, 7296, Note_on_c, 1, 70, 0
3, 7424, Note_on_c, 1, 70, 66
3, 7552, Note_on_c, 1, 70, 0
3, 7936, Note_on_c, 1, 71, 65
3, 8064, Note_on_c, 1, 71, 0
3, 8192, Note_on_c, 1, 71, 78
3, 8320, Note_on_c, 1, 71, 0
3, 8704, Note_on_c, 1, 71, 66
3, 8832, Note_on_c, 1, 71, 0
3, 8960, Note_on_c, 1, 71, 74
3, 9088, Note_on_c, 1, 71, 0
3, 9472, Note_on_c, 1, 73, 67
3, 9600, Note_on_c, 1, 73, 0
3, 9728, Note_on_c, 1, 73, 69
3, 9856, Note_on_c, 1, 73, 0
3, 10240, Note_on_c, 1, 73, 73
3, 10368, Note_on_c, 1, 73, 0
3, 10496, Note_on_c, 1, 73, 73
3, 10624, Note_on_c, 1, 73, 0
3, 11008, Note_on_c, 1, 71, 68
3, 11136, Note_on_c, 1, 71, 0
3, 11264, Note_on_c, 1, 71, 67
3, 11392, Note_on_c, 1, 71, 0
3, 11776, Note_on_c, 1, 69, 69
3, 11904, Note_on_c, 1, 69, 0
3, 12032, Note_on_c, 1, 69, 71
3, 12160, Note_on_c, 1, 69, 0
3, 12544, Note_on_c, 1, 69, 71
3, 12672, Note_on_c, 1, 69, 0
3, 12800, Note_on_c, 1, 69, 71
3, 12928, Note_on_c, 1, 69, 0
3, 13312, Note_on_c, 1, 69, 68
3, 13440, Note_on_c, 1, 69, 0
3, 13568, Note_on_c, 1, 69, 72
3, 13696, Note_on_c, 1, 69, 0
3, 14080, Note_on_c, 1, 71, 71
3, 14208, Note_on_c, 1, 71, 0
3, 14336, Note_on_c, 1, 71, 72
3, 14464, Note_on_c, 1, 71, 0
3, 14848, Note_on_c, 1, 70, 68
3, 14976, Note_on_c, 1, 70, 0
3, 15104, Note_on_c, 1, 70, 67
3, 15232, Note_on_c, 1, 70, 0
3, 15616, Note_on_c, 1, 67, 67
3, 15744, Note_on_c, 1, 67, 0
3, 15872, Note_on_c, 1, 67, 65
3, 16000, Note_on_c, 1, 67, 0
3, 16384, Note_on_c, 1, 67, 69
3, 16512, Note_on_c, 1, 67, 0
3, 16640, Note_on_c, 1, 67, 66
3, 16768, Note_on_c, 1, 67, 0
3, 17152, Note_on_c, 1, 66, 70
3, 17280, Note_on_c, 1, 66, 0
3, 17408, Note_on_c, 1, 66, 69
3, 17536, Note_on_c, 1, 66, 0
3, 17920, Note_on_c, 1, 66, 66
3, 18048, Note_on_c, 1, 66, 0
3, 18176, Note_on_c, 1, 66, 66
3, 18304, Note_on_c, 1, 66, 0
3, 18688, Note_on_c, 1, 69, 69
3, 18816, Note_on_c, 1, 69, 0
3, 18944, Note_on_c, 1, 69, 64
3, 19072, Note_on_c, 1, 69, 0
3, 19456, Note_on_c, 1, 70, 72
3, 19584, Note_on_c, 1, 70, 0
3, 19712, Note_on_c, 1, 70, 67
3, 19840, Note_on_c, 1, 70, 0
3, 20224, Note_on_c, 1, 71, 72
3, 20352, Note_on_c, 1, 71, 0
3, 20480, Note_on_c, 1, 71, 68
3, 20608, Note_on_c, 1, 71, 0
3, 20992, Note_on_c, 1, 71, 69
3, 21120, Note_on_c, 1, 71, 0
3, 21248, Note_on_c, 1, 71, 69
3, 21376, Note_on_c, 1, 71, 0
3, 21760, Note_on_c, 1, 73, 69
3, 21888, Note_on_c, 1, 73, 0
3, 22016, Note_on_c, 1, 73, 71
3, 22144, Note_on_c, 1, 73, 0
3, 22528, Note_on_c, 1, 73, 67
3, 22656, Note_on_c, 1, 73, 0
3, 22784, Note_on_c, 1, 73, 67
3, 22912, Note_on_c, 1, 73, 0
3, 23296, Note_on_c, 1, 71, 68
3, 23424, Note_on_c, 1, 71, 0
3, 23552, Note_on_c, 1, 71, 70
3, 23680, Note_on_c, 1, 71, 0
3, 24064, Note_on_c, 1, 69, 70
3, 24192, Note_on_c, 1, 69, 0
3, 24320, Note_on_c, 1, 69, 69
3, 24448, Note_on_c, 1, 69, 0
3, 24832, Note_on_c, 1, 69, 72
3, 24960, Note_on_c, 1, 69, 0
3, 25088, Note_on_c, 1, 69, 71
3, 25216, Note_on_c, 1, 69, 0
3, 25600, Note_on_c, 1, 69, 65
3, 25728, Note_on_c, 1, 69, 0
3, 25856, Note_on_c, 1, 69, 68
3, 25984, Note_on_c, 1, 69, 0
3, 26368, Note_on_c, 1, 71, 65
3, 26496, Note_on_c, 1, 71, 0
3, 26624, Note_on_c, 1, 71, 70
3, 26752, Note_on_c, 1, 71, 0
3, 27136, Note_on_c, 1, 70, 68
3, 27264, Note_on_c, 1, 70, 0
3, 27392, Note_on_c, 1, 70, 65
3, 27520, Note_on_c, 1, 70, 0
3, 27904, Note_on_c, 1, 67, 67
3, 28032, Note_on_c, 1, 67, 0
3, 28160, Note_on_c, 1, 67, 69
3, 28288, Note_on_c, 1, 67, 0
3, 28672, Note_on_c, 1, 67, 66
3, 28800, Note_on_c, 1, 67, 0
3, 28928, Note_on_c, 1, 67, 70
3, 29056, Note_on_c, 1, 67, 0
3, 29440, Note_on_c, 1, 66, 68
3, 29568, Note_on_c, 1, 66, 0
3, 29696, Note_on_c, 1, 66, 71
3, 29824, Note_on_c, 1, 66, 0
3, 30208, Note_on_c, 1, 66, 70
3, 30336, Note_on_c, 1, 66, 0
3, 30464, Note_on_c, 1, 66, 70
3, 30592, Note_on_c, 1, 66, 0
3, 32256, Note_on_c, 1, 74, 69
3, 32512, Note_on_c, 1, 74, 0
3, 32512, Note_on_c, 1, 76, 79
3, 32768, Note_on_c, 1, 76, 0
3, 32768, Note_on_c, 1, 78, 82
3, 33024, Note_on_c, 1, 78, 0
3, 33024, Note_on_c, 1, 79, 79
3, 33280, Note_on_c, 1, 79, 0
3, 33280, Note_on_c, 1, 78, 76
3, 33536, Note_on_c, 1, 78, 0
3, 33536, Note_on_c, 1, 76, 69
3, 33792, Note_on_c, 1, 76, 0
3, 33792, Note_on_c, 1, 74, 76
3, 34816, Note_on_c, 1, 74, 0
3, 34816, Note_on_c, 1, 73, 69
3, 35072, Note_on_c, 1, 73, 0
3, 35072, Note_on_c, 1, 71, 71
3, 35328, Note_on_c, 1, 71, 0
3, 35328, Note_on_c, 1, 69, 72
3, 35584, Note_on_c, 1, 69, 0
3, 35584, Note_on_c, 1, 71, 81
3, 35840, Note_on_c, 1, 71, 0
3, 35840, Note_on_c, 1, 73, 84
3, 36096, Note_on_c, 1, 73, 0
3, 36096, Note_on_c, 1, 74, 82
3, 36352, Note_on_c, 1, 74, 0
3, 36352, Note_on_c, 1, 73, 72
3, 36608, Note_on_c, 1, 73, 0
3, 36608, Note_on_c, 1, 69, 68
3, 36864, Note_on_c, 1, 69, 0
3, 36864, Note_on_c, 1, 71, 78
3, 37888, Note_on_c, 1, 71, 0
3, 37888, Note_on_c, 1, 69, 68
3, 38144, Note_on_c, 1, 69, 0
3, 38144, Note_on_c, 1, 67, 69
3, 38400, Note_on_c, 1, 67, 0
3, 38400, Note_on_c, 1, 69, 81
3, 38912, Note_on_c, 1, 69, 0
3, 38912, Note_on_c, 1, 62, 61
3, 39168, Note_on_c, 1, 62, 0
3, 39168, Note_on_c, 1, 62, 74
3, 39424, Note_on_c, 1, 62, 0
3, 39424, Note_on_c, 1, 64, 85
3, 39680, Note_on_c, 1, 64, 0
3, 39680, Note_on_c, 1, 66, 84
3, 39936, Note_on_c, 1, 66, 0
3, 39936, Note_on_c, 1, 67, 78
3, 40704, Note_on_c, 1, 67, 0
3, 40704, Note_on_c, 1, 69, 80
3, 41472, Note_on_c, 1, 69, 0
3, 41472, Note_on_c, 1, 71, 80
3, 42240, Note_on_c, 1, 71, 0
3, 42240, Note_on_c, 1, 73, 83
3, 43008, Note_on_c, 1, 73, 0
3, 43008, End_track
4, 0, Start_track
4, 0, Sequencer_specific, 05, 05, 0F, 09, 00, 40
4, 0, Sequencer_specific, 0F, 05, 0F, 06, 47, 65, 6E, 65, 72, 61, 6C, 20, 4D, 49, 44, 49
4, 0, Control_c, 2, 0, 0
4, 0, Control_c, 2, 32, 0
4, 0, Program_c, 2, 73
4, 0, Title_t, "Flute"
4, 8448, Note_on_c, 2, 85, 67
4, 8704, Note_on_c, 2, 85, 0
4, 8704, Note_on_c, 2, 83, 69
4, 8960, Note_on_c, 2, 83, 0
4, 9088, Note_on_c, 2, 86, 66
4, 9216, Note_on_c, 2, 86, 0
4, 9216, Note_on_c, 2, 76, 59
4, 9984, Note_on_c, 2, 76, 0
4, 10752, Note_on_c, 2, 80, 85
4, 11520, Note_on_c, 2, 80, 0
4, 11520, Note_on_c, 2, 81, 81
4, 12288, Note_on_c, 2, 81, 0
4, 12288, Note_on_c, 2, 78, 71
4, 12800, Note_on_c, 2, 78, 0
4, 12800, Note_on_c, 2, 81, 80
4, 13056, Note_on_c, 2, 81, 0
4, 13056, Note_on_c, 2, 88, 88
4, 13312, Note_on_c, 2, 88, 0
4, 13312, Note_on_c, 2, 86, 74
4, 13568, Note_on_c, 2, 86, 0
4, 13824, Note_on_c, 2, 83, 68
4, 14336, Note_on_c, 2, 83, 0
4, 14336, Note_on_c, 2, 86, 82
4, 14592, Note_on_c, 2, 86, 0
4, 14592, Note_on_c, 2, 93, 90
4, 14848, Note_on_c, 2, 93, 0
4, 14848, Note_on_c, 2, 91, 74
4, 15104, Note_on_c, 2, 91, 0
4, 15360, Note_on_c, 2, 91, 66
4, 15616, Note_on_c, 2, 91, 0
4, 15616, Note_on_c, 2, 90, 71
4, 15872, Note_on_c, 2, 90, 0
4, 16000, Note_on_c, 2, 81, 68
4, 16128, Note_on_c, 2, 81, 0
4, 16128, Note_on_c, 2, 83, 77
4, 16384, Note_on_c, 2, 83, 0
4, 16384, Note_on_c, 2, 85, 81
4, 16640, Note_on_c, 2, 85, 0
4, 16768, Note_on_c, 2, 88, 67
4, 16896, Note_on_c, 2, 88, 0
4, 16896, Note_on_c, 2, 86, 68
4, 18432, Note_on_c, 2, 86, 0
4, 18432, Note_on_c, 2, 78, 60
4, 18560, Note_on_c, 2, 78, 0
4, 18560, Note_on_c, 2, 81, 77
4, 18688, Note_on_c, 2, 81, 0
4, 18688, Note_on_c, 2, 90, 97
4, 19072, Note_on_c, 2, 90, 0
4, 19072, Note_on_c, 2, 85, 71
4, 19200, Note_on_c, 2, 85, 0
4, 19200, Note_on_c, 2, 88, 83
4, 19456, Note_on_c, 2, 88, 0
4, 19456, Note_on_c, 2, 86, 77
4, 19584, Note_on_c, 2, 86, 0
4, 19840, Note_on_c, 2, 82, 66
4, 19968, Note_on_c, 2, 82, 0
4, 19968, Note_on_c, 2, 85, 82
4, 20224, Note_on_c, 2, 85, 0
4, 20224, Note_on_c, 2, 83, 68
4, 20480, Note_on_c, 2, 83, 0
4, 20480, Note_on_c, 2, 86, 84
4, 20736, Note_on_c, 2, 86, 0
4, 20736, Note_on_c, 2, 76, 57
4, 21504, Note_on_c, 2, 76, 0
4, 21504, Note_on_c, 2, 86, 96
4, 21760, Note_on_c, 2, 86, 0
4, 21760, Note_on_c, 2, 85, 71
4, 22016, Note_on_c, 2, 85, 0
4, 22144, Note_on_c, 2, 79, 69
4, 22272, Note_on_c, 2, 79, 0
4, 22272, Note_on_c, 2, 86, 88
4, 22528, Note_on_c, 2, 86, 0
4, 22528, Note_on_c, 2, 85, 71
4, 22784, Note_on_c, 2, 85, 0
4, 22912, Note_on_c, 2, 80, 68
4, 23040, Note_on_c, 2, 80, 0
4, 23040, Note_on_c, 2, 83, 82
4, 23296, Note_on_c, 2, 83, 0
4, 23296, Note_on_c, 2, 77, 67
4, 23552, Note_on_c, 2, 77, 0
4, 23552, Note_on_c, 2, 83, 89
4, 23808, Note_on_c, 2, 83, 0
4, 23808, Note_on_c, 2, 81, 74
4, 24576, Note_on_c, 2, 81, 0
4, 24576, Note_on_c, 2, 78, 70
4, 24704, Note_on_c, 2, 78, 0
4, 24704, Note_on_c, 2, 81, 84
4, 24832, Note_on_c, 2, 81, 0
4, 24832, Note_on_c, 2, 90, 96
4, 25216, Note_on_c, 2, 90, 0
4, 25216, Note_on_c, 2, 85, 71
4, 25344, Note_on_c, 2, 85, 0
4, 25344, Note_on_c, 2, 88, 82
4, 25600, Note_on_c, 2, 88, 0
4, 25600, Note_on_c, 2, 86, 74
4, 25728, Note_on_c, 2, 86, 0
4, 25984, Note_on_c, 2, 81, 72
4, 26112, Note_on_c, 2, 81, 0
4, 26112, Note_on_c, 2, 83, 80
4, 26240, Note_on_c, 2, 83, 0
4, 26240, Note_on_c, 2, 86, 82
4, 26368, Note_on_c, 2, 86, 0
4, 26368, Note_on_c, 2, 93, 86
4, 26752, Note_on_c, 2, 93, 0
4, 26752, Note_on_c, 2, 86, 66
4, 26880, Note_on_c, 2, 86, 0
4, 26880, Note_on_c, 2, 93, 88
4, 27136, Note_on_c, 2, 93, 0
4, 27136, Note_on_c, 2, 91, 71
4, 27264, Note_on_c, 2, 91, 0
4, 27520, Note_on_c, 2, 81, 68
4, 27648, Note_on_c, 2, 81, 0
4, 27648, Note_on_c, 2, 91, 94
4, 27904, Note_on_c, 2, 91, 0
4, 27904, Note_on_c, 2, 90, 77
4, 28160, Note_on_c, 2, 90, 0
4, 28288, Note_on_c, 2, 81, 70
4, 28416, Note_on_c, 2, 81, 0
4, 28416, Note_on_c, 2, 90, 85
4, 28672, Note_on_c, 2, 90, 0
4, 28672, Note_on_c, 2, 88, 76
4, 28928, Note_on_c, 2, 88, 0
4, 29056, Note_on_c, 2, 85, 68
4, 29184, Note_on_c, 2, 85, 0
4, 29184, Note_on_c, 2, 86, 81
4, 30720, Note_on_c, 2, 86, 0
4, 30720, Note_on_c, 2, 81, 67
4, 30976, Note_on_c, 2, 81, 0
4, 30976, Note_on_c, 2, 74, 62
4, 31232, Note_on_c, 2, 74, 0
4, 31232, Note_on_c, 2, 76, 78
4, 31488, Note_on_c, 2, 76, 0
4, 31488, Note_on_c, 2, 81, 89
4, 31744, Note_on_c, 2, 81, 0
4, 31744, Note_on_c, 2, 74, 61
4, 32000, Note_on_c, 2, 74, 0
4, 32000, Note_on_c, 2, 85, 96
4, 32256, Note_on_c, 2, 85, 0
4, 32256, Note_on_c, 2, 81, 73
4, 33792, Note_on_c, 2, 81, 0
4, 33792, Note_on_c, 2, 81, 74
4, 34048, Note_on_c, 2, 81, 0
4, 34048, Note_on_c, 2, 74, 65
4, 34304, Note_on_c, 2, 74, 0
4, 34304, Note_on_c, 2, 76, 79
4, 34560, Note_on_c, 2, 76, 0
4, 34560, Note_on_c, 2, 81, 82
4, 34816, Note_on_c, 2, 81, 0
4, 34816, Note_on_c, 2, 74, 61
4, 35072, Note_on_c, 2, 74, 0
4, 35072, Note_on_c, 2, 85, 92
4, 35328, Note_on_c, 2, 85, 0
4, 35328, Note_on_c, 2, 81, 72
4, 35840, Note_on_c, 2, 81, 0
4, 35840, Note_on_c, 2, 88, 86
4, 36096, Note_on_c, 2, 88, 0
4, 36096, Note_on_c, 2, 85, 71
4, 36864, Note_on_c, 2, 85, 0
4, 36864, Note_on_c, 2, 81, 64
4, 37120, Note_on_c, 2, 81, 0
4, 37120, Note_on_c, 2, 74, 62
4, 37376, Note_on_c, 2, 74, 0
4, 37376, Note_on_c, 2, 76, 80
4, 37632, Note_on_c, 2, 76, 0
4, 37632, Note_on_c, 2, 81, 88
4, 37888, Note_on_c, 2, 81, 0
4, 37888, Note_on_c, 2, 74, 60
4, 38144, Note_on_c, 2, 74, 0
4, 38144, Note_on_c, 2, 85, 94
4, 38400, Note_on_c, 2, 85, 0
4, 38400, Note_on_c, 2, 81, 70
4, 39936, Note_on_c, 2, 81, 0
4, 39936, Note_on_c, 2, 71, 56
4, 40704, Note_on_c, 2, 71, 0
4, 40704, Note_on_c, 2, 73, 78
4, 41472, Note_on_c, 2, 73, 0
4, 41472, Note_on_c, 2, 74, 79
4, 42240, Note_on_c, 2, 74, 0
4, 42240, Note_on_c, 2, 76, 83
4, 43008, Note_on_c, 2, 76, 0
4, 43008, End_track
5, 0, Start_track
5, 0, Sequencer_specific, 05, 05, 0F, 09, 00, 40
5, 0, Sequencer_specific, 0F, 05, 0F, 06, 47, 65, 6E, 65, 72, 61, 6C, 20, 4D, 49, 44, 49
5, 0, Control_c, 3, 0, 0
5, 0, Control_c, 3, 32, 0
5, 0, Program_c, 3, 60
5, 0, Title_t, "Horn in Bb"
5, 0, Note_on_c, 3, 55, 69
5, 768, Note_on_c, 3, 55, 0
5, 768, Note_on_c, 3, 57, 76
5, 1536, Note_on_c, 3, 57, 0
5, 1536, Note_on_c, 3, 59, 76
5, 2304, Note_on_c, 3, 59, 0
5, 2304, Note_on_c, 3, 61, 82
5, 3072, Note_on_c, 3, 61, 0
5, 3072, Note_on_c, 3, 55, 74
5, 3840, Note_on_c, 3, 55, 0
5, 3840, Note_on_c, 3, 57, 75
5, 4608, Note_on_c, 3, 57, 0
5, 4608, Note_on_c, 3, 59, 76
5, 5376, Note_on_c, 3, 59, 0
5, 5376, Note_on_c, 3, 61, 82
5, 6144, Note_on_c, 3, 61, 0
5, 18432, Note_on_c, 3, 54, 67
5, 19456, Note_on_c, 3, 54, 0
5, 19456, Note_on_c, 3, 57, 77
5, 19712, Note_on_c, 3, 57, 0
5, 19712, Note_on_c, 3, 62, 87
5, 19968, Note_on_c, 3, 62, 0
5, 19968, Note_on_c, 3, 61, 71
5, 20736, Note_on_c, 3, 61, 0
5, 20736, Note_on_c, 3, 59, 76
5, 21504, Note_on_c, 3, 59, 0
5, 21504, Note_on_c, 3, 52, 71
5, 22528, Note_on_c, 3, 52, 0
5, 22528, Note_on_c, 3, 55, 76
5, 22784, Note_on_c, 3, 55, 0
5, 22784, Note_on_c, 3, 61, 87
5, 23040, Note_on_c, 3, 61, 0
5, 23040, Note_on_c, 3, 59, 74
5, 23808, Note_on_c, 3, 59, 0
5, 23808, Note_on_c, 3, 57, 73
5, 24576, Note_on_c, 3, 57, 0
5, 24576, Note_on_c, 3, 57, 80
5, 25600, Note_on_c, 3, 57, 0
5, 25600, Note_on_c, 3, 56, 75
5, 25856, Note_on_c, 3, 56, 0
5, 25856, Note_on_c, 3, 57, 81
5, 26112, Note_on_c, 3, 57, 0
5, 26112, Note_on_c, 3, 64, 89
5, 26880, Note_on_c, 3, 64, 0
5, 26880, Note_on_c, 3, 62, 70
5, 27392, Note_on_c, 3, 62, 0
5, 27392, Note_on_c, 3, 64, 79
5, 27648, Note_on_c, 3, 64, 0
5, 27648, Note_on_c, 3, 66, 84
5, 28416, Note_on_c, 3, 66, 0
5, 28416, Note_on_c, 3, 67, 81
5, 29184, Note_on_c, 3, 67, 0
5, 29184, Note_on_c, 3, 66, 75
5, 30720, Note_on_c, 3, 66, 0
5, 42240, Note_on_c, 3, 61, 64
5, 43008, Note_on_c, 3, 61, 0
5, 43008, End_track
6, 0, Start_track
6, 0, Sequencer_specific, 05, 05, 0F, 09, 00, 40
6, 0, Sequencer_specific, 0F, 05, 0F, 06, 47, 65, 6E, 65, 72, 61, 6C, 20, 4D, 49, 44, 49
6, 0, Control_c, 4, 10, 56
6, 0, Control_c, 4, 0, 0
6, 0, Control_c, 4, 32, 0
6, 0, Program_c, 4, 60
6, 0, Title_t, "Horn in Bb"
6, 0, Note_on_c, 4, 64, 71
6, 768, Note_on_c, 4, 64, 0
6, 768, Note_on_c, 4, 66, 80
6, 1536, Note_on_c, 4, 66, 0
6, 1536, Note_on_c, 4, 67, 76
6, 2304, Note_on_c, 4, 67, 0
6, 2304, Note_on_c, 4, 69, 82
6, 3072, Note_on_c, 4, 69, 0
6, 3072, Note_on_c, 4, 64, 63
6, 3840, Note_on_c, 4, 64, 0
6, 3840, Note_on_c, 4, 66, 81
6, 4608, Note_on_c, 4, 66, 0
6, 4608, Note_on_c, 4, 67, 79
6, 5376, Note_on_c, 4, 67, 0
6, 5376, Note_on_c, 4, 69, 80
6, 6144, Note_on_c, 4, 69, 0
6, 42240, Note_on_c, 4, 57, 69
6, 43008, Note_on_c, 4, 57, 0
6, 43008, End_track
7, 0, Start_track
7, 0, Sequencer_specific, 05, 05, 0F, 09, 00, 40
7, 0, Sequencer_specific, 0F, 05, 0F, 06, 47, 65, 6E, 65, 72, 61, 6C, 20, 4D, 49, 44, 49
7, 0, Control_c, 10, 0, 0
7, 0, Control_c, 10, 32, 0
7, 0, Program_c, 10, 60
7, 0, Title_t, "Bb Basso Horn"
7, 3840, Note_on_c, 10, 45, 71
7, 6144, Note_on_c, 10, 45, 0
7, 6144, Note_on_c, 10, 38, 71
7, 6400, Note_on_c, 10, 38, 0
7, 6912, Note_on_c, 10, 42, 67
7, 7168, Note_on_c, 10, 42, 0
7, 7680, Note_on_c, 10, 43, 72
7, 7936, Note_on_c, 10, 43, 0
7, 8448, Note_on_c, 10, 43, 70
7, 8704, Note_on_c, 10, 43, 0
7, 9216, Note_on_c, 10, 45, 66
7, 9472, Note_on_c, 10, 45, 0
7, 9984, Note_on_c, 10, 45, 69
7, 10240, Note_on_c, 10, 45, 0
7, 10752, Note_on_c, 10, 38, 69
7, 11008, Note_on_c, 10, 38, 0
7, 11520, Note_on_c, 10, 38, 63
7, 11776, Note_on_c, 10, 38, 0
7, 12288, Note_on_c, 10, 38, 67
7, 12544, Note_on_c, 10, 38, 0
7, 13056, Note_on_c, 10, 42, 71
7, 13312, Note_on_c, 10, 42, 0
7, 13824, Note_on_c, 10, 43, 72
7, 14080, Note_on_c, 10, 43, 0
7, 14592, Note_on_c, 10, 46, 70
7, 14848, Note_on_c, 10, 46, 0
7, 15360, Note_on_c, 10, 45, 65
7, 15616, Note_on_c, 10, 45, 0
7, 16128, Note_on_c, 10, 45, 73
7, 16384, Note_on_c, 10, 45, 0
7, 16896, Note_on_c, 10, 38, 70
7, 17152, Note_on_c, 10, 38, 0
7, 17664, Note_on_c, 10, 38, 68
7, 17920, Note_on_c, 10, 38, 0
7, 18432, Note_on_c, 10, 38, 66
7, 18688, Note_on_c, 10, 38, 0
7, 19200, Note_on_c, 10, 42, 68
7, 19456, Note_on_c, 10, 42, 0
7, 19968, Note_on_c, 10, 43, 65
7, 20224, Note_on_c, 10, 43, 0
7, 20736, Note_on_c, 10, 43, 66
7, 20992, Note_on_c, 10, 43, 0
7, 21504, Note_on_c, 10, 45, 71
7, 21760, Note_on_c, 10, 45, 0
7, 22272, Note_on_c, 10, 45, 68
7, 22528, Note_on_c, 10, 45, 0
7, 23040, Note_on_c, 10, 38, 69
7, 23296, Note_on_c, 10, 38, 0
7, 23808, Note_on_c, 10, 38, 66
7, 24064, Note_on_c, 10, 38, 0
7, 24576, Note_on_c, 10, 38, 68
7, 24832, Note_on_c, 10, 38, 0
7, 25344, Note_on_c, 10, 42, 72
7, 25600, Note_on_c, 10, 42, 0
7, 26112, Note_on_c, 10, 43, 68
7, 26368, Note_on_c, 10, 43, 0
7, 26880, Note_on_c, 10, 46, 70
7, 27136, Note_on_c, 10, 46, 0
7, 27648, Note_on_c, 10, 45, 72
7, 27904, Note_on_c, 10, 45, 0
7, 28416, Note_on_c, 10, 45, 72
7, 28672, Note_on_c, 10, 45, 0
7, 29184, Note_on_c, 10, 38, 72
7, 29440, Note_on_c, 10, 38, 0
7, 29952, Note_on_c, 10, 38, 71
7, 30208, Note_on_c, 10, 38, 0
7, 39936, Note_on_c, 10, 45, 70
7, 43008, Note_on_c, 10, 45, 0
7, 43008, End_track
8, 0, Start_track
8, 0, Sequencer_specific, 05, 05, 0F, 09, 00, 40
8, 0, Sequencer_specific, 0F, 05, 0F, 06, 47, 65, 6E, 65, 72, 61, 6C, 20, 4D, 49, 44, 49
8, 0, Control_c, 5, 10, 18
8, 0, Control_c, 5, 0, 0
8, 0, Control_c, 5, 32, 0
8, 0, Program_c, 5, 48
8, 0, Title_t, "Strings"
8, 3072, Note_on_c, 5, 67, 71
8, 3840, Note_on_c, 5, 67, 0
8, 3840, Note_on_c, 5, 69, 79
8, 4608, Note_on_c, 5, 69, 0
8, 4608, Note_on_c, 5, 71, 82
8, 5376, Note_on_c, 5, 71, 0
8, 5376, Note_on_c, 5, 73, 72
8, 6144, Note_on_c, 5, 73, 0
8, 6144, Note_on_c, 5, 66, 65
8, 6272, Note_on_c, 5, 66, 0
8, 6272, Note_on_c, 5, 69, 80
8, 6400, Note_on_c, 5, 69, 0
8, 6400, Note_on_c, 5, 78, 93
8, 6784, Note_on_c, 5, 78, 0
8, 6784, Note_on_c, 5, 73, 69
8, 6912, Note_on_c, 5, 73, 0
8, 6912, Note_on_c, 5, 76, 79
8, 7168, Note_on_c, 5, 76, 0
8, 7168, Note_on_c, 5, 74, 71
8, 7296, Note_on_c, 5, 74, 0
8, 7552, Note_on_c, 5, 70, 67
8, 7680, Note_on_c, 5, 70, 0
8, 7680, Note_on_c, 5, 73, 82
8, 7936, Note_on_c, 5, 73, 0
8, 7936, Note_on_c, 5, 71, 73
8, 8192, Note_on_c, 5, 71, 0
8, 8192, Note_on_c, 5, 74, 85
8, 8448, Note_on_c, 5, 74, 0
8, 8448, Note_on_c, 5, 64, 56
8, 9216, Note_on_c, 5, 64, 0
8, 9216, Note_on_c, 5, 74, 90
8, 9472, Note_on_c, 5, 74, 0
8, 9472, Note_on_c, 5, 73, 76
8, 9728, Note_on_c, 5, 73, 0
8, 9856, Note_on_c, 5, 67, 70
8, 9984, Note_on_c, 5, 67, 0
8, 9984, Note_on_c, 5, 74, 93
8, 10240, Note_on_c, 5, 74, 0
8, 10240, Note_on_c, 5, 73, 69
8, 10496, Note_on_c, 5, 73, 0
8, 10624, Note_on_c, 5, 68, 64
8, 10752, Note_on_c, 5, 68, 0
8, 10752, Note_on_c, 5, 71, 86
8, 11008, Note_on_c, 5, 71, 0
8, 11008, Note_on_c, 5, 65, 66
8, 11264, Note_on_c, 5, 65, 0
8, 11264, Note_on_c, 5, 71, 88
8, 11520, Note_on_c, 5, 71, 0
8, 11520, Note_on_c, 5, 69, 70
8, 12288, Note_on_c, 5, 69, 0
8, 12288, Note_on_c, 5, 66, 68
8, 12416, Note_on_c, 5, 66, 0
8, 12416, Note_on_c, 5, 69, 79
8, 12544, Note_on_c, 5, 69, 0
8, 12544, Note_on_c, 5, 78, 91
8, 12928, Note_on_c, 5, 78, 0
8, 12928, Note_on_c, 5, 73, 71
8, 13056, Note_on_c, 5, 73, 0
8, 13056, Note_on_c, 5, 76, 82
8, 13312, Note_on_c, 5, 76, 0
8, 13312, Note_on_c, 5, 74, 75
8, 13440, Note_on_c, 5, 74, 0
8, 13696, Note_on_c, 5, 69, 64
8, 13824, Note_on_c, 5, 69, 0
8, 13824, Note_on_c, 5, 71, 77
8, 13952, Note_on_c, 5, 71, 0
8, 13952, Note_on_c, 5, 74, 79
8, 14080, Note_on_c, 5, 74, 0
8, 14080, Note_on_c, 5, 81, 91
8, 14464, Note_on_c, 5, 81, 0
8, 14464, Note_on_c, 5, 74, 63
8, 14592, Note_on_c, 5, 74, 0
8, 14592, Note_on_c, 5, 81, 81
8, 14848, Note_on_c, 5, 81, 0
8, 14848, Note_on_c, 5, 79, 75
8, 14976, Note_on_c, 5, 79, 0
8, 15232, Note_on_c, 5, 69, 68
8, 15360, Note_on_c, 5, 69, 0
8, 15360, Note_on_c, 5, 79, 95
8, 15616, Note_on_c, 5, 79, 0
8, 15616, Note_on_c, 5, 78, 77
8, 15872, Note_on_c, 5, 78, 0
8, 16000, Note_on_c, 5, 69, 69
8, 16128, Note_on_c, 5, 69, 0
8, 16128, Note_on_c, 5, 78, 93
8, 16384, Note_on_c, 5, 78, 0
8, 16384, Note_on_c, 5, 76, 73
8, 16640, Note_on_c, 5, 76, 0
8, 16768, Note_on_c, 5, 73, 69
8, 16896, Note_on_c, 5, 73, 0
8, 16896, Note_on_c, 5, 74, 84
8, 18432, Note_on_c, 5, 74, 0
8, 18432, Note_on_c, 5, 66, 60
8, 18560, Note_on_c, 5, 66, 0
8, 18560, Note_on_c, 5, 69, 83
8, 18688, Note_on_c, 5, 69, 0
8, 18688, Note_on_c, 5, 78, 87
8, 19072, Note_on_c, 5, 78, 0
8, 19072, Note_on_c, 5, 73, 68
8, 19200, Note_on_c, 5, 73, 0
8, 19200, Note_on_c, 5, 76, 79
8, 19456, Note_on_c, 5, 76, 0
8, 19456, Note_on_c, 5, 74, 68
8, 19584, Note_on_c, 5, 74, 0
8, 19840, Note_on_c, 5, 70, 69
8, 19968, Note_on_c, 5, 70, 0
8, 19968, Note_on_c, 5, 73, 84
8, 20224, Note_on_c, 5, 73, 0
8, 20224, Note_on_c, 5, 71, 72
8, 20480, Note_on_c, 5, 71, 0
8, 20480, Note_on_c, 5, 74, 85
8, 20736, Note_on_c, 5, 74, 0
8, 20736, Note_on_c, 5, 64, 59
8, 21504, Note_on_c, 5, 64, 0
8, 21504, Note_on_c, 5, 74, 92
8, 21760, Note_on_c, 5, 74, 0
8, 21760, Note_on_c, 5, 73, 77
8, 22016, Note_on_c, 5, 73, 0
8, 22144, Note_on_c, 5, 67, 67
8, 22272, Note_on_c, 5, 67, 0
8, 22272, Note_on_c, 5, 74, 90
8, 22528, Note_on_c, 5, 74, 0
8, 22528, Note_on_c, 5, 73, 75
8, 22784, Note_on_c, 5, 73, 0
8, 22912, Note_on_c, 5, 68, 68
8, 23040, Note_on_c, 5, 68, 0
8, 23040, Note_on_c, 5, 71, 83
8, 23296, Note_on_c, 5, 71, 0
8, 23296, Note_on_c, 5, 65, 62
8, 23552, Note_on_c, 5, 65, 0
8, 23552, Note_on_c, 5, 71, 89
8, 23808, Note_on_c, 5, 71, 0
8, 23808, Note_on_c, 5, 69, 73
8, 24576, Note_on_c, 5, 69, 0
8, 24576, Note_on_c, 5, 66, 70
8, 24704, Note_on_c, 5, 66, 0
8, 24704, Note_on_c, 5, 69, 81
8, 24832, Note_on_c, 5, 69, 0
8, 24832, Note_on_c, 5, 78, 94
8, 25216, Note_on_c, 5, 78, 0
8, 25216, Note_on_c, 5, 73, 66
8, 25344, Note_on_c, 5, 73, 0
8, 25344, Note_on_c, 5, 76, 84
8, 25600, Note_on_c, 5, 76, 0
8, 25600, Note_on_c, 5, 74, 74
8, 25728, Note_on_c, 5, 74, 0
8, 25984, Note_on_c, 5, 69, 70
8, 26112, Note_on_c, 5, 69, 0
8, 26112, Note_on_c, 5, 71, 80
8, 26240, Note_on_c, 5, 71, 0
8, 26240, Note_on_c, 5, 74, 81
8, 26368, Note_on_c, 5, 74, 0
8, 26368, Note_on_c, 5, 81, 93
8, 26752, Note_on_c, 5, 81, 0
8, 26752, Note_on_c, 5, 74, 66
8, 26880, Note_on_c, 5, 74, 0
8, 26880, Note_on_c, 5, 81, 87
8, 27136, Note_on_c, 5, 81, 0
8, 27136, Note_on_c, 5, 79, 69
8, 27264, Note_on_c, 5, 79, 0
8, 27520, Note_on_c, 5, 69, 69
8, 27648, Note_on_c, 5, 69, 0
8, 27648, Note_on_c, 5, 79, 92
8, 27904, Note_on_c, 5, 79, 0
8, 27904, Note_on_c, 5, 78, 69
8, 28160, Note_on_c, 5, 78, 0
8, 28288, Note_on_c, 5, 69, 68
8, 28416, Note_on_c, 5, 69, 0
8, 28416, Note_on_c, 5, 78, 92
8, 28672, Note_on_c, 5, 78, 0
8, 28672, Note_on_c, 5, 76, 74
8, 28928, Note_on_c, 5, 76, 0
8, 29056, Note_on_c, 5, 73, 70
8, 29184, Note_on_c, 5, 73, 0
8, 29184, Note_on_c, 5, 74, 78
8, 30720, Note_on_c, 5, 74, 0
8, 30720, Note_on_c, 5, 55, 66
8, 30805, Note_on_c, 5, 55, 0
8, 30805, Note_on_c, 5, 55, 71
8, 30890, Note_on_c, 5, 55, 0
8, 30890, Note_on_c, 5, 55, 74
8, 30976, Note_on_c, 5, 55, 0
8, 30976, Note_on_c, 5, 55, 76
8, 31061, Note_on_c, 5, 55, 0
8, 31061, Note_on_c, 5, 55, 78
8, 31146, Note_on_c, 5, 55, 0
8, 31146, Note_on_c, 5, 55, 79
8, 31232, Note_on_c, 5, 55, 0
8, 31232, Note_on_c, 5, 55, 78
8, 31317, Note_on_c, 5, 55, 0
8, 31317, Note_on_c, 5, 55, 77
8, 31402, Note_on_c, 5, 55, 0
8, 31402, Note_on_c, 5, 55, 70
8, 31488, Note_on_c, 5, 55, 0
8, 31488, Note_on_c, 5, 55, 73
8, 31573, Note_on_c, 5, 55, 0
8, 31573, Note_on_c, 5, 55, 72
8, 31658, Note_on_c, 5, 55, 0
8, 31658, Note_on_c, 5, 55, 78
8, 31744, Note_on_c, 5, 55, 0
8, 31744, Note_on_c, 5, 55, 72
8, 31829, Note_on_c, 5, 55, 0
8, 31829, Note_on_c, 5, 55, 82
8, 31914, Note_on_c, 5, 55, 0
8, 31914, Note_on_c, 5, 55, 77
8, 32000, Note_on_c, 5, 55, 0
8, 32000, Note_on_c, 5, 55, 80
8, 32085, Note_on_c, 5, 55, 0
8, 32085, Note_on_c, 5, 55, 79
8, 32170, Note_on_c, 5, 55, 0
8, 32170, Note_on_c, 5, 55, 76
8, 32256, Note_on_c, 5, 55, 0
8, 32256, Note_on_c, 5, 54, 79
8, 32341, Note_on_c, 5, 54, 0
8, 32341, Note_on_c, 5, 54, 73
8, 32426, Note_on_c, 5, 54, 0
8, 32426, Note_on_c, 5, 54, 75
8, 32512, Note_on_c, 5, 54, 0
8, 32512, Note_on_c, 5, 54, 75
8, 32597, Note_on_c, 5, 54, 0
8, 32597, Note_on_c, 5, 54, 74
8, 32682, Note_on_c, 5, 54, 0
8, 32682, Note_on_c, 5, 54, 73
8, 32768, Note_on_c, 5, 54, 0
8, 32768, Note_on_c, 5, 54, 75
8, 32853, Note_on_c, 5, 54, 0
8, 32853, Note_on_c, 5, 54, 76
8, 32938, Note_on_c, 5, 54, 0
8, 32938, Note_on_c, 5, 54, 79
8, 33024, Note_on_c, 5, 54, 0
8, 33024, Note_on_c, 5, 54, 77
8, 33109, Note_on_c, 5, 54, 0
8, 33109, Note_on_c, 5, 54, 75
8, 33194, Note_on_c, 5, 54, 0
8, 33194, Note_on_c, 5, 54, 75
8, 33280, Note_on_c, 5, 54, 0
8, 33280, Note_on_c, 5, 54, 72
8, 33365, Note_on_c, 5, 54, 0
8, 33365, Note_on_c, 5, 54, 77
8, 33450, Note_on_c, 5, 54, 0
8, 33450, Note_on_c, 5, 54, 77
8, 33536, Note_on_c, 5, 54, 0
8, 33536, Note_on_c, 5, 54, 73
8, 33621, Note_on_c, 5, 54, 0
8, 33621, Note_on_c, 5, 54, 75
8, 33706, Note_on_c, 5, 54, 0
8, 33706, Note_on_c, 5, 54, 75
8, 33792, Note_on_c, 5, 54, 0
8, 33792, Note_on_c, 5, 52, 71
8, 33877, Note_on_c, 5, 52, 0
8, 33877, Note_on_c, 5, 52, 77
8, 33962, Note_on_c, 5, 52, 0
8, 33962, Note_on_c, 5, 52, 74
8, 34048, Note_on_c, 5, 52, 0
8, 34048, Note_on_c, 5, 52, 75
8, 34133, Note_on_c, 5, 52, 0
8, 34133, Note_on_c, 5, 52, 77
8, 34218, Note_on_c, 5, 52, 0
8, 34218, Note_on_c, 5, 52, 77
8, 34304, Note_on_c, 5, 52, 0
8, 34304, Note_on_c, 5, 52, 75
8, 34389, Note_on_c, 5, 52, 0
8, 34389, Note_on_c, 5, 52, 76
8, 34474, Note_on_c, 5, 52, 0
8, 34474, Note_on_c, 5, 52, 74
8, 34560, Note_on_c, 5, 52, 0
8, 34560, Note_on_c, 5, 52, 77
8, 34645, Note_on_c, 5, 52, 0
8, 34645, Note_on_c, 5, 52, 83
8, 34730, Note_on_c, 5, 52, 0
8, 34730, Note_on_c, 5, 52, 74
8, 34816, Note_on_c, 5, 52, 0
8, 34816, Note_on_c, 5, 52, 77
8, 34901, Note_on_c, 5, 52, 0
8, 34901, Note_on_c, 5, 52, 79
8, 34986, Note_on_c, 5, 52, 0
8, 34986, Note_on_c, 5, 52, 71
8, 35072, Note_on_c, 5, 52, 0
8, 35072, Note_on_c, 5, 52, 78
8, 35157, Note_on_c, 5, 52, 0
8, 35157, Note_on_c, 5, 52, 79
8, 35242, Note_on_c, 5, 52, 0
8, 35242, Note_on_c, 5, 52, 72
8, 35328, Note_on_c, 5, 52, 0
8, 35328, Note_on_c, 5, 50, 75
8, 35413, Note_on_c, 5, 50, 0
8, 35413, Note_on_c, 5, 50, 76
8, 35498, Note_on_c, 5, 50, 0
8, 35498, Note_on_c, 5, 50, 80
8, 35584, Note_on_c, 5, 50, 0
8, 35584, Note_on_c, 5, 50, 75
8, 35669, Note_on_c, 5, 50, 0
8, 35669, Note_on_c, 5, 50, 73
8, 35754, Note_on_c, 5, 50, 0
8, 35754, Note_on_c, 5, 50, 77
8, 35840, Note_on_c, 5, 50, 0
8, 35840, Note_on_c, 5, 50, 78
8, 35925, Note_on_c, 5, 50, 0
8, 35925, Note_on_c, 5, 50, 75
8, 36010, Note_on_c, 5, 50, 0
8, 36010, Note_on_c, 5, 50, 72
8, 36096, Note_on_c, 5, 50, 0
8, 36096, Note_on_c, 5, 50, 81
8, 36181, Note_on_c, 5, 50, 0
8, 36181, Note_on_c, 5, 50, 77
8, 36266, Note_on_c, 5, 50, 0
8, 36266, Note_on_c, 5, 50, 78
8, 36352, Note_on_c, 5, 50, 0
8, 36352, Note_on_c, 5, 50, 78
8, 36437, Note_on_c, 5, 50, 0
8, 36437, Note_on_c, 5, 50, 77
8, 36522, Note_on_c, 5, 50, 0
8, 36522, Note_on_c, 5, 50, 74
8, 36608, Note_on_c, 5, 50, 0
8, 36608, Note_on_c, 5, 50, 76
8, 36693, Note_on_c, 5, 50, 0
8, 36693, Note_on_c, 5, 50, 81
8, 36778, Note_on_c, 5, 50, 0
8, 36778, Note_on_c, 5, 50, 75
8, 36864, Note_on_c, 5, 50, 0
8, 36864, Note_on_c, 5, 55, 81
8, 36949, Note_on_c, 5, 55, 0
8, 36949, Note_on_c, 5, 55, 76
8, 37034, Note_on_c, 5, 55, 0
8, 37034, Note_on_c, 5, 55, 73
8, 37120, Note_on_c, 5, 55, 0
8, 37120, Note_on_c, 5, 55, 74
8, 37205, Note_on_c, 5, 55, 0
8, 37205, Note_on_c, 5, 55, 72
8, 37290, Note_on_c, 5, 55, 0
8, 37290, Note_on_c, 5, 55, 73
8, 37376, Note_on_c, 5, 55, 0
8, 37376, Note_on_c, 5, 55, 78
8, 37461, Note_on_c, 5, 55, 0
8, 37461, Note_on_c, 5, 55, 75
8, 37546, Note_on_c, 5, 55, 0
8, 37546, Note_on_c, 5, 55, 74
8, 37632, Note_on_c, 5, 55, 0
8, 37632, Note_on_c, 5, 55, 73
8, 37717, Note_on_c, 5, 55, 0
8, 37717, Note_on_c, 5, 55, 77
8, 37802, Note_on_c, 5, 55, 0
8, 37802, Note_on_c, 5, 55, 80
8, 37888, Note_on_c, 5, 55, 0
8, 37888, Note_on_c, 5, 55, 80
8, 37973, Note_on_c, 5, 55, 0
8, 37973, Note_on_c, 5, 55, 75
8, 38058, Note_on_c, 5, 55, 0
8, 38058, Note_on_c, 5, 55, 73
8, 38144, Note_on_c, 5, 55, 0
8, 38144, Note_on_c, 5, 55, 74
8, 38229, Note_on_c, 5, 55, 0
8, 38229, Note_on_c, 5, 55, 78
8, 38314, Note_on_c, 5, 55, 0
8, 38314, Note_on_c, 5, 55, 76
8, 38400, Note_on_c, 5, 55, 0
8, 38400, Note_on_c, 5, 54, 74
8, 38485, Note_on_c, 5, 54, 0
8, 38485, Note_on_c, 5, 54, 80
8, 38570, Note_on_c, 5, 54, 0
8, 38570, Note_on_c, 5, 54, 75
8, 38656, Note_on_c, 5, 54, 0
8, 38656, Note_on_c, 5, 54, 78
8, 38741, Note_on_c, 5, 54, 0
8, 38741, Note_on_c, 5, 54, 75
8, 38826, Note_on_c, 5, 54, 0
8, 38826, Note_on_c, 5, 54, 79
8, 38912, Note_on_c, 5, 54, 0
8, 38912, Note_on_c, 5, 54, 77
8, 38997, Note_on_c, 5, 54, 0
8, 38997, Note_on_c, 5, 54, 78
8, 39082, Note_on_c, 5, 54, 0
8, 39082, Note_on_c, 5, 54, 76
8, 39168, Note_on_c, 5, 54, 0
8, 39168, Note_on_c, 5, 54, 80
8, 39253, Note_on_c, 5, 54, 0
8, 39253, Note_on_c, 5, 54, 73
8, 39338, Note_on_c, 5, 54, 0
8, 39338, Note_on_c, 5, 54, 77
8, 39424, Note_on_c, 5, 54, 0
8, 39424, Note_on_c, 5, 54, 74
8, 39509, Note_on_c, 5, 54, 0
8, 39509, Note_on_c, 5, 54, 81
8, 39594, Note_on_c, 5, 54, 0
8, 39594, Note_on_c, 5, 54, 76
8, 39680, Note_on_c, 5, 54, 0
8, 39680, Note_on_c, 5, 54, 75
8, 39765, Note_on_c, 5, 54, 0
8, 39765, Note_on_c, 5, 54, 81
8, 39850, Note_on_c, 5, 54, 0
8, 39850, Note_on_c, 5, 54, 81
8, 39936, Note_on_c, 5, 54, 0
8, 39936, Note_on_c, 5, 52, 76
8, 40021, Note_on_c, 5, 52, 0
8, 40021, Note_on_c, 5, 52, 77
8, 40106, Note_on_c, 5, 52, 0
8, 40106, Note_on_c, 5, 52, 73
8, 40192, Note_on_c, 5, 52, 0
8, 40192, Note_on_c, 5, 52, 78
8, 40277, Note_on_c, 5, 52, 0
8, 40277, Note_on_c, 5, 52, 79
8, 40362, Note_on_c, 5, 52, 0
8, 40362, Note_on_c, 5, 52, 70
8, 40448, Note_on_c, 5, 52, 0
8, 40448, Note_on_c, 5, 52, 76
8, 40533, Note_on_c, 5, 52, 0
8, 40533, Note_on_c, 5, 52, 81
8, 40618, Note_on_c, 5, 52, 0
8, 40618, Note_on_c, 5, 52, 71
8, 40704, Note_on_c, 5, 52, 0
8, 40704, Note_on_c, 5, 52, 76
8, 40789, Note_on_c, 5, 52, 0
8, 40789, Note_on_c, 5, 52, 77
8, 40874, Note_on_c, 5, 52, 0
8, 40874, Note_on_c, 5, 52, 80
8, 40960, Note_on_c, 5, 52, 0
8, 40960, Note_on_c, 5, 52, 72
8, 41045, Note_on_c, 5, 52, 0
8, 41045, Note_on_c, 5, 52, 77
8, 41130, Note_on_c, 5, 52, 0
8, 41130, Note_on_c, 5, 52, 77
8, 41216, Note_on_c, 5, 52, 0
8, 41216, Note_on_c, 5, 52, 75
8, 41301, Note_on_c, 5, 52, 0
8, 41301, Note_on_c, 5, 52, 82
8, 41386, Note_on_c, 5, 52, 0
8, 41386, Note_on_c, 5, 52, 75
8, 41472, Note_on_c, 5, 52, 0
8, 41472, Note_on_c, 5, 52, 76
8, 41557, Note_on_c, 5, 52, 0
8, 41557, Note_on_c, 5, 52, 75
8, 41642, Note_on_c, 5, 52, 0
8, 41642, Note_on_c, 5, 52, 75
8, 41728, Note_on_c, 5, 52, 0
8, 41728, Note_on_c, 5, 52, 78
8, 41813, Note_on_c, 5, 52, 0
8, 41813, Note_on_c, 5, 52, 76
8, 41898, Note_on_c, 5, 52, 0
8, 41898, Note_on_c, 5, 52, 79
8, 41984, Note_on_c, 5, 52, 0
8, 41984, Note_on_c, 5, 52, 79
8, 42069, Note_on_c, 5, 52, 0
8, 42069, Note_on_c, 5, 52, 74
8, 42154, Note_on_c, 5, 52, 0
8, 42154, Note_on_c, 5, 52, 76
8, 42240, Note_on_c, 5, 52, 0
8, 42240, Note_on_c, 5, 52, 76
8, 42325, Note_on_c, 5, 52, 0
8, 42325, Note_on_c, 5, 52, 79
8, 42410, Note_on_c, 5, 52, 0
8, 42410, Note_on_c, 5, 52, 78
8, 42496, Note_on_c, 5, 52, 0
8, 42496, Note_on_c, 5, 52, 78
8, 42581, Note_on_c, 5, 52, 0
8, 42581, Note_on_c, 5, 52, 79
8, 42666, Note_on_c, 5, 52, 0
8, 42666, Note_on_c, 5, 52, 75
8, 42752, Note_on_c, 5, 52, 0
8, 42752, Note_on_c, 5, 52, 77
8, 42837, Note_on_c, 5, 52, 0
8, 42837, Note_on_c, 5, 52, 77
8, 42922, Note_on_c, 5, 52, 0
8, 42922, Note_on_c, 5, 52, 76
8, 43008, Note_on_c, 5, 52, 0
8, 43008, End_track
9, 0, Start_track
9, 0, Sequencer_specific, 05, 05, 0F, 09, 00, 40
9, 0, Sequencer_specific, 0F, 05, 0F, 06, 47, 65, 6E, 65, 72, 61, 6C, 20, 4D, 49, 44, 49
9, 0, Control_c, 6, 10, 109
9, 0, Control_c, 6, 0, 0
9, 0, Control_c, 6, 32, 0
9, 0, Program_c, 6, 48
9, 0, Title_t, "Strings"
9, 3072, Note_on_c, 6, 76, 66
9, 3840, Note_on_c, 6, 76, 0
9, 3840, Note_on_c, 6, 78, 82
9, 4608, Note_on_c, 6, 78, 0
9, 4608, Note_on_c, 6, 79, 79
9, 5376, Note_on_c, 6, 79, 0
9, 5376, Note_on_c, 6, 81, 79
9, 6144, Note_on_c, 6, 81, 0
9, 6144, Note_on_c, 6, 66, 57
9, 6272, Note_on_c, 6, 66, 0
9, 6272, Note_on_c, 6, 69, 81
9, 6400, Note_on_c, 6, 69, 0
9, 6400, Note_on_c, 6, 78, 93
9, 6784, Note_on_c, 6, 78, 0
9, 6784, Note_on_c, 6, 73, 67
9, 6912, Note_on_c, 6, 73, 0
9, 6912, Note_on_c, 6, 76, 79
9, 7168, Note_on_c, 6, 76, 0
9, 7168, Note_on_c, 6, 74, 73
9, 7296, Note_on_c, 6, 74, 0
9, 7552, Note_on_c, 6, 70, 69
9, 7680, Note_on_c, 6, 70, 0
9, 7680, Note_on_c, 6, 73, 84
9, 7936, Note_on_c, 6, 73, 0
9, 7936, Note_on_c, 6, 71, 77
9, 8192, Note_on_c, 6, 71, 0
9, 8192, Note_on_c, 6, 74, 86
9, 8448, Note_on_c, 6, 74, 0
9, 8448, Note_on_c, 6, 64, 52
9, 9216, Note_on_c, 6, 64, 0
9, 9216, Note_on_c, 6, 74, 92
9, 9472, Note_on_c, 6, 74, 0
9, 9472, Note_on_c, 6, 73, 79
9, 9728, Note_on_c, 6, 73, 0
9, 9856, Note_on_c, 6, 67, 70
9, 9984, Note_on_c, 6, 67, 0
9, 9984, Note_on_c, 6, 74, 85
9, 10240, Note_on_c, 6, 74, 0
9, 10240, Note_on_c, 6, 73, 72
9, 10496, Note_on_c, 6, 73, 0
9, 10624, Note_on_c, 6, 68, 68
9, 10752, Note_on_c, 6, 68, 0
9, 10752, Note_on_c, 6, 71, 80
9, 11008, Note_on_c, 6, 71, 0
9, 11008, Note_on_c, 6, 65, 65
9, 11264, Note_on_c, 6, 65, 0
9, 11264, Note_on_c, 6, 71, 87
9, 11520, Note_on_c, 6, 71, 0
9, 11520, Note_on_c, 6, 69, 74
9, 12288, Note_on_c, 6, 69, 0
9, 12288, Note_on_c, 6, 66, 65
9, 12416, Note_on_c, 6, 66, 0
9, 12416, Note_on_c, 6, 69, 82
9, 12544, Note_on_c, 6, 69, 0
9, 12544, Note_on_c, 6, 78, 93
9, 12928, Note_on_c, 6, 78, 0
9, 12928, Note_on_c, 6, 73, 66
9, 13056, Note_on_c, 6, 73, 0
9, 13056, Note_on_c, 6, 76, 82
9, 13312, Note_on_c, 6, 76, 0
9, 13312, Note_on_c, 6, 74, 74
9, 13440, Note_on_c, 6, 74, 0
9, 13696, Note_on_c, 6, 69, 70
9, 13824, Note_on_c, 6, 69, 0
9, 13824, Note_on_c, 6, 71, 83
9, 13952, Note_on_c, 6, 71, 0
9, 13952, Note_on_c, 6, 74, 86
9, 14080, Note_on_c, 6, 74, 0
9, 14080, Note_on_c, 6, 81, 88
9, 14464, Note_on_c, 6, 81, 0
9, 14464, Note_on_c, 6, 74, 71
9, 14592, Note_on_c, 6, 74, 0
9, 14592, Note_on_c, 6, 81, 88
9, 14848, Note_on_c, 6, 81, 0
9, 14848, Note_on_c, 6, 79, 70
9, 14976, Note_on_c, 6, 79, 0
9, 15232, Note_on_c, 6, 69, 70
9, 15360, Note_on_c, 6, 69, 0
9, 15360, Note_on_c, 6, 79, 94
9, 15616, Note_on_c, 6, 79, 0
9, 15616, Note_on_c, 6, 78, 77
9, 15872, Note_on_c, 6, 78, 0
9, 16000, Note_on_c, 6, 69, 71
9, 16128, Note_on_c, 6, 69, 0
9, 16128, Note_on_c, 6, 78, 91
9, 16384, Note_on_c, 6, 78, 0
9, 16384, Note_on_c, 6, 76, 72
9, 16640, Note_on_c, 6, 76, 0
9, 16768, Note_on_c, 6, 73, 68
9, 16896, Note_on_c, 6, 73, 0
9, 16896, Note_on_c, 6, 74, 85
9, 18432, Note_on_c, 6, 74, 0
9, 18432, Note_on_c, 6, 66, 65
9, 18560, Note_on_c, 6, 66, 0
9, 18560, Note_on_c, 6, 69, 83
9, 18688, Note_on_c, 6, 69, 0
9, 18688, Note_on_c, 6, 78, 95
9, 19072, Note_on_c, 6, 78, 0
9, 19072, Note_on_c, 6, 73, 71
9, 19200, Note_on_c, 6, 73, 0
9, 19200, Note_on_c, 6, 76, 81
9, 19456, Note_on_c, 6, 76, 0
9, 19456, Note_on_c, 6, 74, 74
9, 19584, Note_on_c, 6, 74, 0
9, 19840, Note_on_c, 6, 70, 71
9, 19968, Note_on_c, 6, 70, 0
9, 19968, Note_on_c, 6, 73, 85
9, 20224, Note_on_c, 6, 73, 0
9, 20224, Note_on_c, 6, 71, 71
9, 20480, Note_on_c, 6, 71, 0
9, 20480, Note_on_c, 6, 74, 86
9, 20736, Note_on_c, 6, 74, 0
9, 20736, Note_on_c, 6, 64, 57
9, 21504, Note_on_c, 6, 64, 0
9, 21504, Note_on_c, 6, 74, 91
9, 21760, Note_on_c, 6, 74, 0
9, 21760, Note_on_c, 6, 73, 78
9, 22016, Note_on_c, 6, 73, 0
9, 22144, Note_on_c, 6, 67, 64
9, 22272, Note_on_c, 6, 67, 0
9, 22272, Note_on_c, 6, 74, 90
9, 22528, Note_on_c, 6, 74, 0
9, 22528, Note_on_c, 6, 73, 71
9, 22784, Note_on_c, 6, 73, 0
9, 22912, Note_on_c, 6, 68, 72
9, 23040, Note_on_c, 6, 68, 0
9, 23040, Note_on_c, 6, 71, 83
9, 23296, Note_on_c, 6, 71, 0
9, 23296, Note_on_c, 6, 65, 66
9, 23552, Note_on_c, 6, 65, 0
9, 23552, Note_on_c, 6, 71, 89
9, 23808, Note_on_c, 6, 71, 0
9, 23808, Note_on_c, 6, 69, 77
9, 24576, Note_on_c, 6, 69, 0
9, 24576, Note_on_c, 6, 66, 67
9, 24704, Note_on_c, 6, 66, 0
9, 24704, Note_on_c, 6, 69, 81
9, 24832, Note_on_c, 6, 69, 0
9, 24832, Note_on_c, 6, 78, 91
9, 25216, Note_on_c, 6, 78, 0
9, 25216, Note_on_c, 6, 73, 72
9, 25344, Note_on_c, 6, 73, 0
9, 25344, Note_on_c, 6, 76, 80
9, 25600, Note_on_c, 6, 76, 0
9, 25600, Note_on_c, 6, 74, 77
9, 25728, Note_on_c, 6, 74, 0
9, 25984, Note_on_c, 6, 69, 69
9, 26112, Note_on_c, 6, 69, 0
9, 26112, Note_on_c, 6, 71, 78
9, 26240, Note_on_c, 6, 71, 0
9, 26240, Note_on_c, 6, 74, 83
9, 26368, Note_on_c, 6, 74, 0
9, 26368, Note_on_c, 6, 81, 89
9, 26752, Note_on_c, 6, 81, 0
9, 26752, Note_on_c, 6, 74, 66
9, 26880, Note_on_c, 6, 74, 0
9, 26880, Note_on_c, 6, 81, 85
9, 27136, Note_on_c, 6, 81, 0
9, 27136, Note_on_c, 6, 79, 74
9, 27264, Note_on_c, 6, 79, 0
9, 27520, Note_on_c, 6, 69, 68
9, 27648, Note_on_c, 6, 69, 0
9, 27648, Note_on_c, 6, 79, 92
9, 27904, Note_on_c, 6, 79, 0
9, 27904, Note_on_c, 6, 78, 74
9, 28160, Note_on_c, 6, 78, 0
9, 28288, Note_on_c, 6, 69, 72
9, 28416, Note_on_c, 6, 69, 0
9, 28416, Note_on_c, 6, 78, 91
9, 28672, Note_on_c, 6, 78, 0
9, 28672, Note_on_c, 6, 76, 74
9, 28928, Note_on_c, 6, 76, 0
9, 29056, Note_on_c, 6, 73, 66
9, 29184, Note_on_c, 6, 73, 0
9, 29184, Note_on_c, 6, 74, 73
9, 30720, Note_on_c, 6, 74, 0
9, 30720, Note_on_c, 6, 55, 73
9, 30805, Note_on_c, 6, 55, 0
9, 30805, Note_on_c, 6, 55, 77
9, 30890, Note_on_c, 6, 55, 0
9, 30890, Note_on_c, 6, 55, 75
9, 30976, Note_on_c, 6, 55, 0
9, 30976, Note_on_c, 6, 55, 74
9, 31061, Note_on_c, 6, 55, 0
9, 31061, Note_on_c, 6, 55, 76
9, 31146, Note_on_c, 6, 55, 0
9, 31146, Note_on_c, 6, 55, 81
9, 31232, Note_on_c, 6, 55, 0
9, 31232, Note_on_c, 6, 55, 72
9, 31317, Note_on_c, 6, 55, 0
9, 31317, Note_on_c, 6, 55, 76
9, 31402, Note_on_c, 6, 55, 0
9, 31402, Note_on_c, 6, 55, 76
9, 31488, Note_on_c, 6, 55, 0
9, 31488, Note_on_c, 6, 55, 79
9, 31573, Note_on_c, 6, 55, 0
9, 31573, Note_on_c, 6, 55, 79
9, 31658, Note_on_c, 6, 55, 0
9, 31658, Note_on_c, 6, 55, 79
9, 31744, Note_on_c, 6, 55, 0
9, 31744, Note_on_c, 6, 55, 77
9, 31829, Note_on_c, 6, 55, 0
9, 31829, Note_on_c, 6, 55, 75
9, 31914, Note_on_c, 6, 55, 0
9, 31914, Note_on_c, 6, 55, 75
9, 32000, Note_on_c, 6, 55, 0
9, 32000, Note_on_c, 6, 55, 79
9, 32085, Note_on_c, 6, 55, 0
9, 32085, Note_on_c, 6, 55, 80
9, 32170, Note_on_c, 6, 55, 0
9, 32170, Note_on_c, 6, 55, 75
9, 32256, Note_on_c, 6, 55, 0
9, 32256, Note_on_c, 6, 54, 77
9, 32341, Note_on_c, 6, 54, 0
9, 32341, Note_on_c, 6, 54, 79
9, 32426, Note_on_c, 6, 54, 0
9, 32426, Note_on_c, 6, 54, 73
9, 32512, Note_on_c, 6, 54, 0
9, 32512, Note_on_c, 6, 54, 76
9, 32597, Note_on_c, 6, 54, 0
9, 32597, Note_on_c, 6, 54, 74
9, 32682, Note_on_c, 6, 54, 0
9, 32682, Note_on_c, 6, 54, 71
9, 32768, Note_on_c, 6, 54, 0
9, 32768, Note_on_c, 6, 54, 76
9, 32853, Note_on_c, 6, 54, 0
9, 32853, Note_on_c, 6, 54, 78
9, 32938, Note_on_c, 6, 54, 0
9, 32938, Note_on_c, 6, 54, 74
9, 33024, Note_on_c, 6, 54, 0
9, 33024, Note_on_c, 6, 54, 77
9, 33109, Note_on_c, 6, 54, 0
9, 33109, Note_on_c, 6, 54, 74
9, 33194, Note_on_c, 6, 54, 0
9, 33194, Note_on_c, 6, 54, 74
9, 33280, Note_on_c, 6, 54, 0
9, 33280, Note_on_c, 6, 54, 76
9, 33365, Note_on_c, 6, 54, 0
9, 33365, Note_on_c, 6, 54, 76
9, 33450, Note_on_c, 6, 54, 0
9, 33450, Note_on_c, 6, 54, 77
9, 33536, Note_on_c, 6, 54, 0
9, 33536, Note_on_c, 6, 54, 74
9, 33621, Note_on_c, 6, 54, 0
9, 33621, Note_on_c, 6, 54, 75
9, 33706, Note_on_c, 6, 54, 0
9, 33706, Note_on_c, 6, 54, 72
9, 33792, Note_on_c, 6, 54, 0
9, 33792, Note_on_c, 6, 55, 78
9, 33877, Note_on_c, 6, 55, 0
9, 33877, Note_on_c, 6, 55, 77
9, 33962, Note_on_c, 6, 55, 0
9, 33962, Note_on_c, 6, 55, 76
9, 34048, Note_on_c, 6, 55, 0
9, 34048, Note_on_c, 6, 55, 80
9, 34133, Note_on_c, 6, 55, 0
9, 34133, Note_on_c, 6, 55, 78
9, 34218, Note_on_c, 6, 55, 0
9, 34218, Note_on_c, 6, 55, 76
9, 34304, Note_on_c, 6, 55, 0
9, 34304, Note_on_c, 6, 55, 76
9, 34389, Note_on_c, 6, 55, 0
9, 34389, Note_on_c, 6, 55, 78
9, 34474, Note_on_c, 6, 55, 0
9, 34474, Note_on_c, 6, 55, 76
9, 34560, Note_on_c, 6, 55, 0
9, 34560, Note_on_c, 6, 55, 76
9, 34645, Note_on_c, 6, 55, 0
9, 34645, Note_on_c, 6, 55, 70
9, 34730, Note_on_c, 6, 55, 0
9, 34730, Note_on_c, 6, 55, 77
9, 34816, Note_on_c, 6, 55, 0
9, 34816, Note_on_c, 6, 55, 75
9, 34901, Note_on_c, 6, 55, 0
9, 34901, Note_on_c, 6, 55, 78
9, 34986, Note_on_c, 6, 55, 0
9, 34986, Note_on_c, 6, 55, 77
9, 35072, Note_on_c, 6, 55, 0
9, 35072, Note_on_c, 6, 55, 75
9, 35157, Note_on_c, 6, 55, 0
9, 35157, Note_on_c, 6, 55, 80
9, 35242, Note_on_c, 6, 55, 0
9, 35242, Note_on_c, 6, 55, 81
9, 35328, Note_on_c, 6, 55, 0
9, 35328, Note_on_c, 6, 54, 75
9, 35413, Note_on_c, 6, 54, 0
9, 35413, Note_on_c, 6, 54, 75
9, 35498, Note_on_c, 6, 54, 0
9, 35498, Note_on_c, 6, 54, 75
9, 35584, Note_on_c, 6, 54, 0
9, 35584, Note_on_c, 6, 54, 76
9, 35669, Note_on_c, 6, 54, 0
9, 35669, Note_on_c, 6, 54, 77
9, 35754, Note_on_c, 6, 54, 0
9, 35754, Note_on_c, 6, 54, 77
9, 35840, Note_on_c, 6, 54, 0
9, 35840, Note_on_c, 6, 54, 77
9, 35925, Note_on_c, 6, 54, 0
9, 35925, Note_on_c, 6, 54, 76
9, 36010, Note_on_c, 6, 54, 0
9, 36010, Note_on_c, 6, 54, 77
9, 36096, Note_on_c, 6, 54, 0
9, 36096, Note_on_c, 6, 54, 77
9, 36181, Note_on_c, 6, 54, 0
9, 36181, Note_on_c, 6, 54, 77
9, 36266, Note_on_c, 6, 54, 0
9, 36266, Note_on_c, 6, 54, 79
9, 36352, Note_on_c, 6, 54, 0
9, 36352, Note_on_c, 6, 54, 71
9, 36437, Note_on_c, 6, 54, 0
9, 36437, Note_on_c, 6, 54, 76
9, 36522, Note_on_c, 6, 54, 0
9, 36522, Note_on_c, 6, 54, 80
9, 36608, Note_on_c, 6, 54, 0
9, 36608, Note_on_c, 6, 54, 81
9, 36693, Note_on_c, 6, 54, 0
9, 36693, Note_on_c, 6, 54, 73
9, 36778, Note_on_c, 6, 54, 0
9, 36778, Note_on_c, 6, 54, 78
9, 36864, Note_on_c, 6, 54, 0
9, 36864, Note_on_c, 6, 55, 82
9, 36949, Note_on_c, 6, 55, 0
9, 36949, Note_on_c, 6, 55, 77
9, 37034, Note_on_c, 6, 55, 0
9, 37034, Note_on_c, 6, 55, 73
9, 37120, Note_on_c, 6, 55, 0
9, 37120, Note_on_c, 6, 55, 77
9, 37205, Note_on_c, 6, 55, 0
9, 37205, Note_on_c, 6, 55, 71
9, 37290, Note_on_c, 6, 55, 0
9, 37290, Note_on_c, 6, 55, 77
9, 37376, Note_on_c, 6, 55, 0
9, 37376, Note_on_c, 6, 55, 77
9, 37461, Note_on_c, 6, 55, 0
9, 37461, Note_on_c, 6, 55, 78
9, 37546, Note_on_c, 6, 55, 0
9, 37546, Note_on_c, 6, 55, 76
9, 37632, Note_on_c, 6, 55, 0
9, 37632, Note_on_c, 6, 55, 77
9, 37717, Note_on_c, 6, 55, 0
9, 37717, Note_on_c, 6, 55, 76
9, 37802, Note_on_c, 6, 55, 0
9, 37802, Note_on_c, 6, 55, 77
9, 37888, Note_on_c, 6, 55, 0
9, 37888, Note_on_c, 6, 55, 71
9, 37973, Note_on_c, 6, 55, 0
9, 37973, Note_on_c, 6, 55, 79
9, 38058, Note_on_c, 6, 55, 0
9, 38058, Note_on_c, 6, 55, 77
9, 38144, Note_on_c, 6, 55, 0
9, 38144, Note_on_c, 6, 55, 77
9, 38229, Note_on_c, 6, 55, 0
9, 38229, Note_on_c, 6, 55, 73
9, 38314, Note_on_c, 6, 55, 0
9, 38314, Note_on_c, 6, 55, 78
9, 38400, Note_on_c, 6, 55, 0
9, 38400, Note_on_c, 6, 54, 75
9, 38485, Note_on_c, 6, 54, 0
9, 38485, Note_on_c, 6, 54, 82
9, 38570, Note_on_c, 6, 54, 0
9, 38570, Note_on_c, 6, 54, 76
9, 38656, Note_on_c, 6, 54, 0
9, 38656, Note_on_c, 6, 54, 76
9, 38741, Note_on_c, 6, 54, 0
9, 38741, Note_on_c, 6, 54, 78
9, 38826, Note_on_c, 6, 54, 0
9, 38826, Note_on_c, 6, 54, 78
9, 38912, Note_on_c, 6, 54, 0
9, 38912, Note_on_c, 6, 54, 75
9, 38997, Note_on_c, 6, 54, 0
9, 38997, Note_on_c, 6, 54, 75
9, 39082, Note_on_c, 6, 54, 0
9, 39082, Note_on_c, 6, 54, 80
9, 39168, Note_on_c, 6, 54, 0
9, 39168, Note_on_c, 6, 54, 78
9, 39253, Note_on_c, 6, 54, 0
9, 39253, Note_on_c, 6, 54, 77
9, 39338, Note_on_c, 6, 54, 0
9, 39338, Note_on_c, 6, 54, 79
9, 39424, Note_on_c, 6, 54, 0
9, 39424, Note_on_c, 6, 54, 76
9, 39509, Note_on_c, 6, 54, 0
9, 39509, Note_on_c, 6, 54, 73
9, 39594, Note_on_c, 6, 54, 0
9, 39594, Note_on_c, 6, 54, 76
9, 39680, Note_on_c, 6, 54, 0
9, 39680, Note_on_c, 6, 54, 75
9, 39765, Note_on_c, 6, 54, 0
9, 39765, Note_on_c, 6, 54, 74
9, 39850, Note_on_c, 6, 54, 0
9, 39850, Note_on_c, 6, 54, 75
9, 39936, Note_on_c, 6, 54, 0
9, 39936, Note_on_c, 6, 52, 76
9, 40021, Note_on_c, 6, 52, 0
9, 40021, Note_on_c, 6, 52, 76
9, 40106, Note_on_c, 6, 52, 0
9, 40106, Note_on_c, 6, 52, 75
9, 40192, Note_on_c, 6, 52, 0
9, 40192, Note_on_c, 6, 52, 77
9, 40277, Note_on_c, 6, 52, 0
9, 40277, Note_on_c, 6, 52, 70
9, 40362, Note_on_c, 6, 52, 0
9, 40362, Note_on_c, 6, 52, 78
9, 40448, Note_on_c, 6, 52, 0
9, 40448, Note_on_c, 6, 52, 76
9, 40533, Note_on_c, 6, 52, 0
9, 40533, Note_on_c, 6, 52, 78
9, 40618, Note_on_c, 6, 52, 0
9, 40618, Note_on_c, 6, 52, 80
9, 40704, Note_on_c, 6, 52, 0
9, 40704, Note_on_c, 6, 52, 82
9, 40789, Note_on_c, 6, 52, 0
9, 40789, Note_on_c, 6, 52, 75
9, 40874, Note_on_c, 6, 52, 0
9, 40874, Note_on_c, 6, 52, 75
9, 40960, Note_on_c, 6, 52, 0
9, 40960, Note_on_c, 6, 52, 77
9, 41045, Note_on_c, 6, 52, 0
9, 41045, Note_on_c, 6, 52, 72
9, 41130, Note_on_c, 6, 52, 0
9, 41130, Note_on_c, 6, 52, 74
9, 41216, Note_on_c, 6, 52, 0
9, 41216, Note_on_c, 6, 52, 75
9, 41301, Note_on_c, 6, 52, 0
9, 41301, Note_on_c, 6, 52, 78
9, 41386, Note_on_c, 6, 52, 0
9, 41386, Note_on_c, 6, 52, 74
9, 41472, Note_on_c, 6, 52, 0
9, 41472, Note_on_c, 6, 52, 85
9, 41557, Note_on_c, 6, 52, 0
9, 41557, Note_on_c, 6, 52, 74
9, 41642, Note_on_c, 6, 52, 0
9, 41642, Note_on_c, 6, 52, 80
9, 41728, Note_on_c, 6, 52, 0
9, 41728, Note_on_c, 6, 52, 76
9, 41813, Note_on_c, 6, 52, 0
9, 41813, Note_on_c, 6, 52, 76
9, 41898, Note_on_c, 6, 52, 0
9, 41898, Note_on_c, 6, 52, 75
9, 41984, Note_on_c, 6, 52, 0
9, 41984, Note_on_c, 6, 52, 75
9, 42069, Note_on_c, 6, 52, 0
9, 42069, Note_on_c, 6, 52, 77
9, 42154, Note_on_c, 6, 52, 0
9, 42154, Note_on_c, 6, 52, 78
9, 42240, Note_on_c, 6, 52, 0
9, 42240, Note_on_c, 6, 52, 71
9, 42325, Note_on_c, 6, 52, 0
9, 42325, Note_on_c, 6, 52, 80
9, 42410, Note_on_c, 6, 52, 0
9, 42410, Note_on_c, 6, 52, 76
9, 42496, Note_on_c, 6, 52, 0
9, 42496, Note_on_c, 6, 52, 82
9, 42581, Note_on_c, 6, 52, 0
9, 42581, Note_on_c, 6, 52, 79
9, 42666, Note_on_c, 6, 52, 0
9, 42666, Note_on_c, 6, 52, 75
9, 42752, Note_on_c, 6, 52, 0
9, 42752, Note_on_c, 6, 52, 79
9, 42837, Note_on_c, 6, 52, 0
9, 42837, Note_on_c, 6, 52, 77
9, 42922, Note_on_c, 6, 52, 0
9, 42922, Note_on_c, 6, 52, 76
9, 43008, Note_on_c, 6, 52, 0
9, 43008, End_track
10, 0, Start_track
10, 0, Sequencer_specific, 05, 05, 0F, 09, 00, 40
10, 0, Sequencer_specific, 0F, 05, 0F, 06, 47, 65, 6E, 65, 72, 61, 6C, 20, 4D, 49, 44, 49
10, 0, Control_c, 7, 0, 0
10, 0, Control_c, 7, 32, 0
10, 0, Program_c, 7, 48
10, 0, Title_t, "Violoncello"
10, 0, Note_on_c, 7, 57, 71
10, 6144, Note_on_c, 7, 57, 0
10, 12288, Note_on_c, 7, 57, 75
10, 13568, Note_on_c, 7, 57, 0
10, 13568, Note_on_c, 7, 58, 78
10, 13824, Note_on_c, 7, 58, 0
10, 13824, Note_on_c, 7, 59, 79
10, 14592, Note_on_c, 7, 59, 0
10, 14592, Note_on_c, 7, 62, 82
10, 15360, Note_on_c, 7, 62, 0
10, 15360, Note_on_c, 7, 57, 70
10, 16128, Note_on_c, 7, 57, 0
10, 16128, Note_on_c, 7, 55, 71
10, 16896, Note_on_c, 7, 55, 0
10, 16896, Note_on_c, 7, 54, 75
10, 18432, Note_on_c, 7, 54, 0
10, 18432, Note_on_c, 7, 54, 73
10, 19456, Note_on_c, 7, 54, 0
10, 19456, Note_on_c, 7, 57, 80
10, 19712, Note_on_c, 7, 57, 0
10, 19712, Note_on_c, 7, 62, 87
10, 19968, Note_on_c, 7, 62, 0
10, 19968, Note_on_c, 7, 61, 77
10, 20736, Note_on_c, 7, 61, 0
10, 20736, Note_on_c, 7, 59, 74
10, 21504, Note_on_c, 7, 59, 0
10, 21504, Note_on_c, 7, 52, 74
10, 22528, Note_on_c, 7, 52, 0
10, 22528, Note_on_c, 7, 55, 83
10, 22784, Note_on_c, 7, 55, 0
10, 22784, Note_on_c, 7, 61, 85
10, 23040, Note_on_c, 7, 61, 0
10, 23040, Note_on_c, 7, 59, 81
10, 23808, Note_on_c, 7, 59, 0
10, 23808, Note_on_c, 7, 57, 77
10, 24576, Note_on_c, 7, 57, 0
10, 24576, Note_on_c, 7, 57, 75
10, 25600, Note_on_c, 7, 57, 0
10, 25600, Note_on_c, 7, 56, 76
10, 25856, Note_on_c, 7, 56, 0
10, 25856, Note_on_c, 7, 57, 80
10, 26112, Note_on_c, 7, 57, 0
10, 26112, Note_on_c, 7, 64, 92
10, 26880, Note_on_c, 7, 64, 0
10, 26880, Note_on_c, 7, 62, 74
10, 27392, Note_on_c, 7, 62, 0
10, 27392, Note_on_c, 7, 64, 78
10, 27648, Note_on_c, 7, 64, 0
10, 27648, Note_on_c, 7, 66, 76
10, 28416, Note_on_c, 7, 66, 0
10, 28416, Note_on_c, 7, 67, 80
10, 29184, Note_on_c, 7, 67, 0
10, 29184, Note_on_c, 7, 66, 72
10, 30720, Note_on_c, 7, 66, 0
10, 30720, Note_on_c, 7, 55, 69
10, 32256, Note_on_c, 7, 55, 0
10, 32256, Note_on_c, 7, 54, 70
10, 33792, Note_on_c, 7, 54, 0
10, 33792, Note_on_c, 7, 55, 74
10, 35328, Note_on_c, 7, 55, 0
10, 35328, Note_on_c, 7, 54, 75
10, 36864, Note_on_c, 7, 54, 0
10, 36864, Note_on_c, 7, 59, 82
10, 38400, Note_on_c, 7, 59, 0
10, 38400, Note_on_c, 7, 57, 75
10, 39936, Note_on_c, 7, 57, 0
10, 39936, Note_on_c, 7, 43, 65
10, 40704, Note_on_c, 7, 43, 0
10, 40704, Note_on_c, 7, 45, 78
10, 41472, Note_on_c, 7, 45, 0
10, 41472, Note_on_c, 7, 47, 83
10, 42240, Note_on_c, 7, 47, 0
10, 42240, Note_on_c, 7, 45, 76
10, 43008, Note_on_c, 7, 45, 0
10, 43008, End_track
11, 0, Start_track
11, 0, Sequencer_specific, 05, 05, 0F, 09, 00, 40
11, 0, Sequencer_specific, 0F, 05, 0F, 06, 47, 65, 6E, 65, 72, 61, 6C, 20, 4D, 49, 44, 49
11, 0, Control_c, 8, 0, 0
11, 0, Control_c, 8, 32, 0
11, 0, Program_c, 8, 47
11, 0, Title_t, "Timpani"
11, 3072, Note_on_c, 8, 45, 71
11, 3157, Note_on_c, 8, 45, 0
11, 3157, Note_on_c, 8, 45, 73
11, 3242, Note_on_c, 8, 45, 0
11, 3242, Note_on_c, 8, 45, 77
11, 3328, Note_on_c, 8, 45, 0
11, 3328, Note_on_c, 8, 45, 78
11, 3413, Note_on_c, 8, 45, 0
11, 3413, Note_on_c, 8, 45, 75
11, 3498, Note_on_c, 8, 45, 0
11, 3498, Note_on_c, 8, 45, 75
11, 3584, Note_on_c, 8, 45, 0
11, 3584, Note_on_c, 8, 45, 79
11, 3669, Note_on_c, 8, 45, 0
11, 3669, Note_on_c, 8, 45, 76
11, 3754, Note_on_c, 8, 45, 0
11, 3754, Note_on_c, 8, 45, 78
11, 3840, Note_on_c, 8, 45, 0
11, 3840, Note_on_c, 8, 45, 75
11, 3925, Note_on_c, 8, 45, 0
11, 3925, Note_on_c, 8, 45, 74
11, 4010, Note_on_c, 8, 45, 0
11, 4010, Note_on_c, 8, 45, 81
11, 4096, Note_on_c, 8, 45, 0
11, 4096, Note_on_c, 8, 45, 72
11, 4181, Note_on_c, 8, 45, 0
11, 4181, Note_on_c, 8, 45, 78
11, 4266, Note_on_c, 8, 45, 0
11, 4266, Note_on_c, 8, 45, 83
11, 4352, Note_on_c, 8, 45, 0
11, 4352, Note_on_c, 8, 45, 78
11, 4480, Note_on_c, 8, 45, 0
11, 41472, Note_on_c, 8, 45, 72
11, 41557, Note_on_c, 8, 45, 0
11, 41557, Note_on_c, 8, 45, 73
11, 41642, Note_on_c, 8, 45, 0
11, 41642, Note_on_c, 8, 45, 75
11, 41728, Note_on_c, 8, 45, 0
11, 41728, Note_on_c, 8, 45, 77
11, 41813, Note_on_c, 8, 45, 0
11, 41813, Note_on_c, 8, 45, 77
11, 41898, Note_on_c, 8, 45, 0
11, 41898, Note_on_c, 8, 45, 77
11, 41984, Note_on_c, 8, 45, 0
11, 41984, Note_on_c, 8, 45, 80
11, 42069, Note_on_c, 8, 45, 0
11, 42069, Note_on_c, 8, 45, 76
11, 42154, Note_on_c, 8, 45, 0
11, 42154, Note_on_c, 8, 45, 74
11, 42240, Note_on_c, 8, 45, 0
11, 42240, Note_on_c, 8, 45, 82
11, 42368, Note_on_c, 8, 45, 0
11, 42368, End_track
12, 0, Start_track
12, 0, Sequencer_specific, 05, 05, 0F, 09, 00, 40
12, 0, Sequencer_specific, 0F, 05, 0F, 06, 47, 65, 6E, 65, 72, 61, 6C, 20, 4D, 49, 44, 49
12, 0, Control_c, 9, 0, 0
12, 0, Control_c, 9, 32, 0
12, 0, Program_c, 9, 0
12, 0, Title_t, "Cymbals"
12, 41984, Note_on_c, 9, 49, 67
12, 42069, Note_on_c, 9, 49, 0
12, 42069, Note_on_c, 9, 49, 75
12, 42154, Note_on_c, 9, 49, 0
12, 42154, Note_on_c, 9, 49, 75
12, 42240, Note_on_c, 9, 49, 0
12, 42240, Note_on_c, 9, 49, 75
12, 42368, Note_on_c, 9, 49, 0
12, 42368, End_track
0, 0, End_of_file