0, 0, Header, 1, 2, 1024
1, 0, Start_track
1, 0, SMPTE_offset, 0, 0, 0, 0, 0
1, 0, Time_signature, 3, 2, 24, 8
1, 0, Key_signature, 0, "minor"
1, 0, Tempo, 499999
1, 0, Tempo, 434784
1, 0, Tempo, 434820
1, 98304, Tempo, 434820
1, 136704, Tempo, 434820
1, 136886, Tempo, 436489
1, 137068, Tempo, 437982
1, 137250, Tempo, 439675
1, 137432, Tempo, 439675
1, 137614, Tempo, 441189
1, 137796, Tempo, 442907
1, 137978, Tempo, 442907
1, 138240, Tempo, 434820
1, 147456, Tempo, 434820
1, 185856, Tempo, 434820
1, 186038, Tempo, 436489
1, 186220, Tempo, 437982
1, 186402, Tempo, 439675
1, 186584, Tempo, 439675
1, 186766, Tempo, 441189
1, 186948, Tempo, 442907
1, 187130, Tempo, 442907
1, 187392, Tempo, 434820
1, 196607, Tempo, 434784
1, 196608, Tempo, 434820
1, 294912, Tempo, 434820
1, 333312, Tempo, 434820
1, 333494, Tempo, 436489
1, 333676, Tempo, 437982
1, 333858, Tempo, 439675
1, 334040, Tempo, 439675
1, 334222, Tempo, 441189
1, 334404, Tempo, 442907
1, 334586, Tempo, 442907
1, 334848, Tempo, 434820
1, 344064, Tempo, 434820
1, 382464, Tempo, 434820
1, 382646, Tempo, 436489
1, 382828, Tempo, 437982
1, 383010, Tempo, 439675
1, 383192, Tempo, 439675
1, 383374, Tempo, 441189
1, 383556, Tempo, 442907
1, 383738, Tempo, 442907
1, 384000, Tempo, 434820
1, 393216, End_track
2, 0, Start_track
2, 0, Device_name_t, "SmartMusic SoftSynth 1"
2, 0, Title_t, "SmartMusic SoftSynth"
2, 0, Control_c, 0, 0, 121
2, 0, Control_c, 0, 32, 0
2, 0, Program_c, 0, 1
2, 0, Control_c, 0, 7, 101
2, 0, Control_c, 0, 10, 65
2, 0, Control_c, 0, 7, 102
2, 0, Control_c, 0, 7, 110
2, 3, Control_c, 0, 100, 0
2, 3, Control_c, 0, 101, 0
2, 3, Control_c, 0, 100, 0
2, 3, Control_c, 0, 101, 0
2, 4, Control_c, 0, 6, 12
2, 4, Control_c, 0, 6, 12
2, 5, Control_c, 0, 38, 0
2, 5, Control_c, 0, 38, 0
2, 10, Control_c, 0, 7, 102
2, 10, Control_c, 0, 7, 110
2, 10, Note_on_c, 0, 69, 75
2, 10, Note_on_c, 0, 57, 80
2, 1049, Note_off_c, 0, 57, 0
2, 1050, Note_on_c, 0, 64, 76
2, 1809, Note_off_c, 0, 64, 0
2, 2065, Note_off_c, 0, 69, 0
2, 2066, Note_on_c, 0, 72, 75
2, 2066, Note_on_c, 0, 64, 78
2, 2567, Note_on_c, 0, 76, 75
2, 2627, Note_off_c, 0, 72, 0
2, 2815, Note_off_c, 0, 64, 0
2, 3076, Note_on_c, 0, 84, 70
2, 3076, Note_on_c, 0, 57, 80
2, 3132, Note_off_c, 0, 76, 0
2, 4121, Note_off_c, 0, 57, 0
2, 4122, Note_on_c, 0, 64, 76
2, 4881, Note_off_c, 0, 64, 0
2, 5086, Note_off_c, 0, 84, 0
2, 5138, Note_on_c, 0, 83, 78
2, 5138, Note_on_c, 0, 64, 78
2, 5887, Note_off_c, 0, 64, 0
2, 6143, Note_off_c, 0, 83, 0
2, 6148, Note_on_c, 0, 79, 75
2, 6148, Note_on_c, 0, 55, 80
2, 7193, Note_off_c, 0, 55, 0
2, 7194, Note_on_c, 0, 64, 76
2, 7953, Note_off_c, 0, 64, 0
2, 8209, Note_off_c, 0, 79, 0
2, 8210, Note_on_c, 0, 74, 78
2, 8210, Note_on_c, 0, 64, 78
2, 8959, Note_off_c, 0, 64, 0
2, 9215, Note_off_c, 0, 74, 0
2, 9220, Note_on_c, 0, 76, 75
2, 9220, Note_on_c, 0, 55, 80
2, 10265, Note_off_c, 0, 55, 0
2, 10266, Note_on_c, 0, 64, 76
2, 11025, Note_off_c, 0, 64, 0
2, 11282, Note_on_c, 0, 64, 78
2, 12031, Note_off_c, 0, 64, 0
2, 12287, Note_off_c, 0, 76, 0
2, 12292, Note_on_c, 0, 76, 75
2, 12292, Note_on_c, 0, 53, 75
2, 13338, Note_on_c, 0, 60, 70
2, 13377, Note_off_c, 0, 53, 0
2, 14097, Note_off_c, 0, 60, 0
2, 14353, Note_off_c, 0, 76, 0
2, 14354, Note_on_c, 0, 77, 75
2, 14354, Note_on_c, 0, 60, 78
2, 14855, Note_on_c, 0, 79, 75
2, 14915, Note_off_c, 0, 77, 0
2, 15103, Note_off_c, 0, 60, 0
2, 15364, Note_on_c, 0, 77, 70
2, 15364, Note_on_c, 0, 53, 75
2, 15420, Note_off_c, 0, 79, 0
2, 16410, Note_on_c, 0, 60, 70
2, 16449, Note_off_c, 0, 53, 0
2, 17169, Note_off_c, 0, 60, 0
2, 17374, Note_off_c, 0, 77, 0
2, 17426, Note_on_c, 0, 76, 78
2, 17426, Note_on_c, 0, 60, 78
2, 18175, Note_off_c, 0, 60, 0
2, 18431, Note_off_c, 0, 76, 0
2, 18436, Note_on_c, 0, 74, 75
2, 18436, Note_on_c, 0, 52, 75
2, 19482, Note_on_c, 0, 59, 70
2, 19521, Note_off_c, 0, 52, 0
2, 20241, Note_off_c, 0, 59, 0
2, 20497, Note_off_c, 0, 74, 0
2, 20498, Note_on_c, 0, 72, 78
2, 20498, Note_on_c, 0, 59, 78
2, 21247, Note_off_c, 0, 59, 0
2, 21503, Note_off_c, 0, 72, 0
2, 21508, Note_on_c, 0, 76, 75
2, 21508, Note_on_c, 0, 52, 75
2, 22554, Note_on_c, 0, 59, 70
2, 22593, Note_off_c, 0, 52, 0
2, 23313, Note_off_c, 0, 59, 0
2, 23570, Note_on_c, 0, 59, 78
2, 24319, Note_off_c, 0, 59, 0
2, 24575, Note_off_c, 0, 76, 0
2, 24580, Note_on_c, 0, 69, 75
2, 24580, Note_on_c, 0, 50, 75
2, 25626, Note_on_c, 0, 57, 70
2, 25665, Note_off_c, 0, 50, 0
2, 26385, Note_off_c, 0, 57, 0
2, 26641, Note_off_c, 0, 69, 0
2, 26642, Note_on_c, 0, 72, 75
2, 26642, Note_on_c, 0, 57, 78
2, 27143, Note_on_c, 0, 76, 75
2, 27203, Note_off_c, 0, 72, 0
2, 27391, Note_off_c, 0, 57, 0
2, 27652, Note_on_c, 0, 84, 70
2, 27652, Note_on_c, 0, 50, 75
2, 27708, Note_off_c, 0, 76, 0
2, 28698, Note_on_c, 0, 57, 70
2, 28737, Note_off_c, 0, 50, 0
2, 29457, Note_off_c, 0, 57, 0
2, 29662, Note_off_c, 0, 84, 0
2, 29714, Note_on_c, 0, 83, 78
2, 29714, Note_on_c, 0, 57, 78
2, 30463, Note_off_c, 0, 57, 0
2, 30719, Note_off_c, 0, 83, 0
2, 30724, Note_on_c, 0, 79, 75
2, 30724, Note_on_c, 0, 48, 75
2, 31770, Note_on_c, 0, 55, 70
2, 31809, Note_off_c, 0, 48, 0
2, 32529, Note_off_c, 0, 55, 0
2, 32785, Note_off_c, 0, 79, 0
2, 32786, Note_on_c, 0, 74, 78
2, 32786, Note_on_c, 0, 55, 78
2, 33535, Note_off_c, 0, 55, 0
2, 33791, Note_off_c, 0, 74, 0
2, 33796, Note_on_c, 0, 76, 75
2, 33796, Note_on_c, 0, 48, 75
2, 34842, Note_on_c, 0, 55, 70
2, 34881, Note_off_c, 0, 48, 0
2, 35601, Note_off_c, 0, 55, 0
2, 35858, Note_on_c, 0, 55, 78
2, 36607, Note_off_c, 0, 55, 0
2, 36863, Note_off_c, 0, 76, 0
2, 36868, Note_on_c, 0, 76, 75
2, 36868, Note_on_c, 0, 46, 75
2, 37914, Note_on_c, 0, 53, 70
2, 37953, Note_off_c, 0, 46, 0
2, 38673, Note_off_c, 0, 53, 0
2, 38929, Note_off_c, 0, 76, 0
2, 38930, Note_on_c, 0, 77, 75
2, 38930, Note_on_c, 0, 53, 78
2, 39431, Note_on_c, 0, 79, 75
2, 39491, Note_off_c, 0, 77, 0
2, 39679, Note_off_c, 0, 53, 0
2, 39940, Note_on_c, 0, 77, 70
2, 39940, Note_on_c, 0, 46, 75
2, 39996, Note_off_c, 0, 79, 0
2, 40986, Note_on_c, 0, 53, 70
2, 41025, Note_off_c, 0, 46, 0
2, 41745, Note_off_c, 0, 53, 0
2, 41950, Note_off_c, 0, 77, 0
2, 42002, Note_on_c, 0, 76, 78
2, 42002, Note_on_c, 0, 53, 78
2, 42751, Note_off_c, 0, 53, 0
2, 43007, Note_off_c, 0, 76, 0
2, 43012, Note_on_c, 0, 74, 75
2, 43012, Note_on_c, 0, 52, 75
2, 44058, Note_on_c, 0, 57, 70
2, 44097, Note_off_c, 0, 52, 0
2, 44817, Note_off_c, 0, 57, 0
2, 45073, Note_off_c, 0, 74, 0
2, 45074, Note_on_c, 0, 72, 78
2, 45074, Note_on_c, 0, 57, 78
2, 45823, Note_off_c, 0, 57, 0
2, 46079, Note_off_c, 0, 72, 0
2, 46084, Note_on_c, 0, 76, 75
2, 46084, Note_on_c, 0, 52, 75
2, 47130, Note_on_c, 0, 56, 70
2, 47169, Note_off_c, 0, 52, 0
2, 47889, Note_off_c, 0, 56, 0
2, 48146, Note_on_c, 0, 56, 78
2, 48895, Note_off_c, 0, 56, 0
2, 49151, Note_off_c, 0, 76, 0
2, 49156, Note_on_c, 0, 60, 67
2, 49156, Note_on_c, 0, 69, 81
2, 49156, Note_on_c, 0, 57, 80
2, 50201, Note_off_c, 0, 57, 0
2, 50202, Note_on_c, 0, 64, 76
2, 50961, Note_off_c, 0, 64, 0
2, 51217, Note_off_c, 0, 60, 0
2, 51217, Note_off_c, 0, 69, 0
2, 51218, Note_on_c, 0, 69, 67
2, 51218, Note_on_c, 0, 72, 81
2, 51218, Note_on_c, 0, 64, 78
2, 51718, Note_off_c, 0, 72, 0
2, 51719, Note_on_c, 0, 71, 67
2, 51719, Note_on_c, 0, 76, 81
2, 51779, Note_off_c, 0, 69, 0
2, 51967, Note_off_c, 0, 64, 0
2, 52223, Note_off_c, 0, 76, 0
2, 52228, Note_on_c, 0, 76, 62
2, 52228, Note_on_c, 0, 84, 76
2, 52228, Note_on_c, 0, 57, 80
2, 52284, Note_off_c, 0, 71, 0
2, 53273, Note_off_c, 0, 57, 0
2, 53274, Note_on_c, 0, 64, 76
2, 54033, Note_off_c, 0, 64, 0
2, 54289, Note_off_c, 0, 76, 0
2, 54289, Note_off_c, 0, 84, 0
2, 54290, Note_on_c, 0, 76, 70
2, 54290, Note_on_c, 0, 83, 84
2, 54290, Note_on_c, 0, 64, 78
2, 55039, Note_off_c, 0, 64, 0
2, 55295, Note_off_c, 0, 76, 0
2, 55295, Note_off_c, 0, 83, 0
2, 55300, Note_on_c, 0, 74, 67
2, 55300, Note_on_c, 0, 79, 81
2, 55300, Note_on_c, 0, 55, 80
2, 56345, Note_off_c, 0, 55, 0
2, 56346, Note_on_c, 0, 64, 76
2, 57105, Note_off_c, 0, 64, 0
2, 57361, Note_off_c, 0, 74, 0
2, 57361, Note_off_c, 0, 79, 0
2, 57362, Note_on_c, 0, 71, 70
2, 57362, Note_on_c, 0, 74, 84
2, 57362, Note_on_c, 0, 64, 78
2, 58111, Note_off_c, 0, 64, 0
2, 58367, Note_off_c, 0, 71, 0
2, 58367, Note_off_c, 0, 74, 0
2, 58368, Note_on_c, 0, 69, 75
2, 58372, Note_on_c, 0, 76, 75
2, 58372, Note_on_c, 0, 55, 80
2, 59417, Note_off_c, 0, 55, 0
2, 59418, Note_on_c, 0, 64, 76
2, 60177, Note_off_c, 0, 64, 0
2, 60416, Note_off_c, 0, 69, 0
2, 60416, Note_on_c, 0, 67, 75
2, 60434, Note_on_c, 0, 64, 78
2, 61183, Note_off_c, 0, 64, 0
2, 61439, Note_off_c, 0, 76, 0
2, 61440, Note_off_c, 0, 67, 0
2, 61444, Note_on_c, 0, 69, 67
2, 61444, Note_on_c, 0, 76, 81
2, 61444, Note_on_c, 0, 53, 75
2, 62490, Note_on_c, 0, 60, 70
2, 62529, Note_off_c, 0, 53, 0
2, 63249, Note_off_c, 0, 60, 0
2, 63505, Note_off_c, 0, 69, 0
2, 63505, Note_off_c, 0, 76, 0
2, 63506, Note_on_c, 0, 69, 67
2, 63506, Note_on_c, 0, 77, 81
2, 63506, Note_on_c, 0, 60, 78
2, 64006, Note_off_c, 0, 77, 0
2, 64007, Note_on_c, 0, 71, 67
2, 64007, Note_on_c, 0, 79, 81
2, 64067, Note_off_c, 0, 69, 0
2, 64255, Note_off_c, 0, 60, 0
2, 64511, Note_off_c, 0, 79, 0
2, 64516, Note_on_c, 0, 72, 62
2, 64516, Note_on_c, 0, 77, 76
2, 64516, Note_on_c, 0, 53, 75
2, 64572, Note_off_c, 0, 71, 0
2, 65562, Note_on_c, 0, 60, 70
2, 65601, Note_off_c, 0, 53, 0
2, 66321, Note_off_c, 0, 60, 0
2, 66526, Note_off_c, 0, 72, 0
2, 66577, Note_off_c, 0, 77, 0
2, 66578, Note_on_c, 0, 71, 70
2, 66578, Note_on_c, 0, 76, 84
2, 66578, Note_on_c, 0, 60, 78
2, 67327, Note_off_c, 0, 60, 0
2, 67583, Note_off_c, 0, 71, 0
2, 67583, Note_off_c, 0, 76, 0
2, 67588, Note_on_c, 0, 67, 67
2, 67588, Note_on_c, 0, 74, 81
2, 67588, Note_on_c, 0, 52, 75
2, 68634, Note_on_c, 0, 59, 70
2, 68673, Note_off_c, 0, 52, 0
2, 69393, Note_off_c, 0, 59, 0
2, 69649, Note_off_c, 0, 67, 0
2, 69649, Note_off_c, 0, 74, 0
2, 69650, Note_on_c, 0, 64, 70
2, 69650, Note_on_c, 0, 72, 84
2, 69650, Note_on_c, 0, 59, 78
2, 70399, Note_off_c, 0, 59, 0
2, 70655, Note_off_c, 0, 64, 0
2, 70655, Note_off_c, 0, 72, 0
2, 70660, Note_on_c, 0, 71, 67
2, 70660, Note_on_c, 0, 76, 81
2, 70660, Note_on_c, 0, 52, 75
2, 71706, Note_on_c, 0, 59, 75
2, 71745, Note_off_c, 0, 52, 0
2, 72215, Note_on_c, 0, 60, 75
2, 72275, Note_off_c, 0, 59, 0
2, 72722, Note_on_c, 0, 62, 75
2, 72782, Note_off_c, 0, 60, 0
2, 73223, Note_on_c, 0, 59, 70
2, 73283, Note_off_c, 0, 62, 0
2, 73646, Note_off_c, 0, 59, 0
2, 73727, Note_off_c, 0, 71, 0
2, 73727, Note_off_c, 0, 76, 0
2, 73732, Note_on_c, 0, 65, 67
2, 73732, Note_on_c, 0, 69, 81
2, 73732, Note_on_c, 0, 50, 75
2, 74778, Note_on_c, 0, 57, 70
2, 74817, Note_off_c, 0, 50, 0
2, 75537, Note_off_c, 0, 57, 0
2, 75793, Note_off_c, 0, 65, 0
2, 75793, Note_off_c, 0, 69, 0
2, 75794, Note_on_c, 0, 65, 67
2, 75794, Note_on_c, 0, 72, 81
2, 75794, Note_on_c, 0, 57, 78
2, 76294, Note_off_c, 0, 72, 0
2, 76295, Note_on_c, 0, 67, 67
2, 76295, Note_on_c, 0, 76, 81
2, 76355, Note_off_c, 0, 65, 0
2, 76543, Note_off_c, 0, 57, 0
2, 76799, Note_off_c, 0, 76, 0
2, 76800, Note_on_c, 0, 69, 75
2, 76804, Note_on_c, 0, 84, 70
2, 76804, Note_on_c, 0, 50, 75
2, 76860, Note_off_c, 0, 67, 0
2, 77824, Note_off_c, 0, 69, 0
2, 77824, Note_on_c, 0, 67, 75
2, 77850, Note_on_c, 0, 57, 70
2, 77889, Note_off_c, 0, 50, 0
2, 78609, Note_off_c, 0, 57, 0
2, 78814, Note_off_c, 0, 84, 0
2, 78848, Note_off_c, 0, 67, 0
2, 78848, Note_on_c, 0, 65, 75
2, 78866, Note_on_c, 0, 83, 78
2, 78866, Note_on_c, 0, 57, 78
2, 79615, Note_off_c, 0, 57, 0
2, 79871, Note_off_c, 0, 83, 0
2, 79872, Note_off_c, 0, 65, 0
2, 79872, Note_on_c, 0, 64, 75
2, 79876, Note_on_c, 0, 79, 75
2, 79876, Note_on_c, 0, 48, 75
2, 80896, Note_off_c, 0, 64, 0
2, 80896, Note_on_c, 0, 74, 75
2, 80922, Note_on_c, 0, 55, 70
2, 80961, Note_off_c, 0, 48, 0
2, 81408, Note_off_c, 0, 74, 0
2, 81408, Note_on_c, 0, 72, 75
2, 81681, Note_off_c, 0, 55, 0
2, 81920, Note_off_c, 0, 72, 0
2, 81920, Note_on_c, 0, 71, 75
2, 81937, Note_off_c, 0, 79, 0
2, 81938, Note_on_c, 0, 74, 78
2, 81938, Note_on_c, 0, 55, 78
2, 82432, Note_off_c, 0, 71, 0
2, 82432, Note_on_c, 0, 69, 75
2, 82687, Note_off_c, 0, 55, 0
2, 82943, Note_off_c, 0, 74, 0
2, 82944, Note_off_c, 0, 69, 0
2, 82948, Note_on_c, 0, 67, 78
2, 82948, Note_on_c, 0, 76, 73
2, 82948, Note_on_c, 0, 48, 75
2, 83994, Note_on_c, 0, 55, 70
2, 84033, Note_off_c, 0, 48, 0
2, 84753, Note_off_c, 0, 55, 0
2, 85010, Note_on_c, 0, 55, 78
2, 85759, Note_off_c, 0, 55, 0
2, 86015, Note_off_c, 0, 67, 0
2, 86015, Note_off_c, 0, 76, 0
2, 86020, Note_on_c, 0, 69, 67
2, 86020, Note_on_c, 0, 76, 81
2, 86020, Note_on_c, 0, 46, 75
2, 87066, Note_on_c, 0, 53, 70
2, 87105, Note_off_c, 0, 46, 0
2, 87825, Note_off_c, 0, 53, 0
2, 88081, Note_off_c, 0, 69, 0
2, 88081, Note_off_c, 0, 76, 0
2, 88082, Note_on_c, 0, 70, 67
2, 88082, Note_on_c, 0, 77, 81
2, 88082, Note_on_c, 0, 53, 78
2, 88582, Note_off_c, 0, 77, 0
2, 88583, Note_on_c, 0, 72, 67
2, 88583, Note_on_c, 0, 79, 81
2, 88643, Note_off_c, 0, 70, 0
2, 88831, Note_off_c, 0, 53, 0
2, 89087, Note_off_c, 0, 79, 0
2, 89092, Note_on_c, 0, 70, 62
2, 89092, Note_on_c, 0, 77, 76
2, 89092, Note_on_c, 0, 46, 75
2, 89148, Note_off_c, 0, 72, 0
2, 90138, Note_on_c, 0, 53, 70
2, 90177, Note_off_c, 0, 46, 0
2, 90897, Note_off_c, 0, 53, 0
2, 91102, Note_off_c, 0, 70, 0
2, 91153, Note_off_c, 0, 77, 0
2, 91154, Note_on_c, 0, 69, 70
2, 91154, Note_on_c, 0, 76, 84
2, 91154, Note_on_c, 0, 53, 78
2, 91903, Note_off_c, 0, 53, 0
2, 92159, Note_off_c, 0, 69, 0
2, 92159, Note_off_c, 0, 76, 0
2, 92160, Note_on_c, 0, 69, 75
2, 92164, Note_on_c, 0, 74, 75
2, 92164, Note_on_c, 0, 52, 75
2, 93210, Note_on_c, 0, 57, 70
2, 93249, Note_off_c, 0, 52, 0
2, 93969, Note_off_c, 0, 57, 0
2, 94208, Note_off_c, 0, 69, 0
2, 94208, Note_on_c, 0, 68, 75
2, 94225, Note_off_c, 0, 74, 0
2, 94226, Note_on_c, 0, 72, 78
2, 94226, Note_on_c, 0, 57, 78
2, 94720, Note_off_c, 0, 68, 0
2, 94720, Note_on_c, 0, 69, 75
2, 94975, Note_off_c, 0, 57, 0
2, 95231, Note_off_c, 0, 72, 0
2, 95232, Note_off_c, 0, 69, 0
2, 95236, Note_on_c, 0, 71, 67
2, 95236, Note_on_c, 0, 76, 81
2, 95236, Note_on_c, 0, 52, 75
2, 96282, Note_on_c, 0, 56, 70
2, 96321, Note_off_c, 0, 52, 0
2, 97041, Note_off_c, 0, 56, 0
2, 97298, Note_on_c, 0, 56, 78
2, 98047, Note_off_c, 0, 56, 0
2, 98303, Note_off_c, 0, 71, 0
2, 98303, Note_off_c, 0, 76, 0
2, 98308, Note_on_c, 0, 57, 75
2, 99354, Note_on_c, 0, 74, 67
2, 99354, Note_on_c, 0, 83, 81
2, 99354, Note_on_c, 0, 64, 70
2, 99393, Note_off_c, 0, 57, 0
2, 99862, Note_off_c, 0, 83, 0
2, 99863, Note_on_c, 0, 76, 67
2, 99863, Note_on_c, 0, 84, 81
2, 99923, Note_off_c, 0, 74, 0
2, 100113, Note_off_c, 0, 64, 0
2, 100369, Note_off_c, 0, 84, 0
2, 100370, Note_on_c, 0, 74, 67
2, 100370, Note_on_c, 0, 83, 81
2, 100370, Note_on_c, 0, 64, 78
2, 100430, Note_off_c, 0, 76, 0
2, 100870, Note_off_c, 0, 83, 0
2, 100871, Note_on_c, 0, 72, 67
2, 100871, Note_on_c, 0, 81, 81
2, 100931, Note_off_c, 0, 74, 0
2, 101119, Note_off_c, 0, 64, 0
2, 101375, Note_off_c, 0, 81, 0
2, 101380, Note_on_c, 0, 71, 62
2, 101380, Note_on_c, 0, 76, 76
2, 101380, Note_on_c, 0, 57, 75
2, 101436, Note_off_c, 0, 72, 0
2, 102118, Note_off_c, 0, 71, 0
2, 102169, Note_off_c, 0, 76, 0
2, 102426, Note_on_c, 0, 69, 68
2, 102426, Note_on_c, 0, 72, 82
2, 102426, Note_on_c, 0, 64, 70
2, 102465, Note_off_c, 0, 57, 0
2, 103185, Note_off_c, 0, 69, 0
2, 103185, Note_off_c, 0, 72, 0
2, 103185, Note_off_c, 0, 64, 0
2, 103442, Note_on_c, 0, 71, 70
2, 103442, Note_on_c, 0, 76, 84
2, 103442, Note_on_c, 0, 64, 78
2, 104191, Note_off_c, 0, 71, 0
2, 104191, Note_off_c, 0, 76, 0
2, 104191, Note_off_c, 0, 64, 0
2, 104452, Note_on_c, 0, 55, 75
2, 105498, Note_on_c, 0, 74, 67
2, 105498, Note_on_c, 0, 83, 81
2, 105498, Note_on_c, 0, 64, 70
2, 105537, Note_off_c, 0, 55, 0
2, 106006, Note_off_c, 0, 83, 0
2, 106007, Note_on_c, 0, 76, 67
2, 106007, Note_on_c, 0, 84, 81
2, 106067, Note_off_c, 0, 74, 0
2, 106257, Note_off_c, 0, 64, 0
2, 106513, Note_off_c, 0, 84, 0
2, 106514, Note_on_c, 0, 74, 67
2, 106514, Note_on_c, 0, 83, 81
2, 106514, Note_on_c, 0, 64, 78
2, 106574, Note_off_c, 0, 76, 0
2, 107014, Note_off_c, 0, 83, 0
2, 107015, Note_on_c, 0, 72, 67
2, 107015, Note_on_c, 0, 81, 81
2, 107075, Note_off_c, 0, 74, 0
2, 107263, Note_off_c, 0, 64, 0
2, 107519, Note_off_c, 0, 81, 0
2, 107524, Note_on_c, 0, 71, 62
2, 107524, Note_on_c, 0, 86, 76
2, 107524, Note_on_c, 0, 55, 75
2, 107580, Note_off_c, 0, 72, 0
2, 108570, Note_on_c, 0, 64, 70
2, 108609, Note_off_c, 0, 55, 0
2, 109329, Note_off_c, 0, 64, 0
2, 109586, Note_on_c, 0, 64, 78
2, 110335, Note_off_c, 0, 64, 0
2, 110540, Note_off_c, 0, 71, 0
2, 110591, Note_off_c, 0, 86, 0
2, 110596, Note_on_c, 0, 53, 75
2, 111642, Note_on_c, 0, 79, 67
2, 111642, Note_on_c, 0, 83, 81
2, 111642, Note_on_c, 0, 64, 70
2, 111681, Note_off_c, 0, 53, 0
2, 112150, Note_off_c, 0, 83, 0
2, 112151, Note_on_c, 0, 81, 67
2, 112151, Note_on_c, 0, 84, 81
2, 112211, Note_off_c, 0, 79, 0
2, 112401, Note_off_c, 0, 64, 0
2, 112657, Note_off_c, 0, 84, 0
2, 112658, Note_on_c, 0, 79, 67
2, 112658, Note_on_c, 0, 83, 81
2, 112658, Note_on_c, 0, 64, 78
2, 112718, Note_off_c, 0, 81, 0
2, 113158, Note_off_c, 0, 83, 0
2, 113159, Note_on_c, 0, 77, 67
2, 113159, Note_on_c, 0, 81, 81
2, 113219, Note_off_c, 0, 79, 0
2, 113407, Note_off_c, 0, 64, 0
2, 113663, Note_off_c, 0, 81, 0
2, 113668, Note_on_c, 0, 79, 62
2, 113668, Note_on_c, 0, 83, 76
2, 113668, Note_on_c, 0, 53, 75
2, 113724, Note_off_c, 0, 77, 0
2, 114714, Note_on_c, 0, 60, 70
2, 114753, Note_off_c, 0, 53, 0
2, 115422, Note_off_c, 0, 60, 0
2, 115678, Note_off_c, 0, 79, 0
2, 115729, Note_off_c, 0, 83, 0
2, 115730, Note_on_c, 0, 81, 70
2, 115730, Note_on_c, 0, 84, 84
2, 115730, Note_on_c, 0, 64, 78
2, 116479, Note_off_c, 0, 81, 0
2, 116479, Note_off_c, 0, 84, 0
2, 116479, Note_off_c, 0, 64, 0
2, 116740, Note_on_c, 0, 76, 72
2, 116740, Note_on_c, 0, 79, 86
2, 116740, Note_on_c, 0, 60, 80
2, 117529, Note_off_c, 0, 76, 0
2, 117529, Note_off_c, 0, 79, 0
2, 117760, Note_on_c, 0, 81, 75
2, 117768, Note_on_c, 0, 79, 81
2, 117785, Note_off_c, 0, 60, 0
2, 117786, Note_on_c, 0, 67, 76
2, 117944, Note_on_c, 0, 76, 75
2, 117944, Note_on_c, 0, 79, 76
2, 117966, Note_off_c, 0, 81, 0
2, 118272, Note_off_c, 0, 76, 0
2, 118272, Note_off_c, 0, 79, 0
2, 118294, Note_off_c, 0, 79, 0
2, 118295, Note_on_c, 0, 74, 67
2, 118295, Note_on_c, 0, 77, 81
2, 118545, Note_off_c, 0, 67, 0
2, 118801, Note_off_c, 0, 77, 0
2, 118802, Note_on_c, 0, 72, 67
2, 118802, Note_on_c, 0, 76, 81
2, 118802, Note_on_c, 0, 67, 78
2, 118862, Note_off_c, 0, 74, 0
2, 119302, Note_off_c, 0, 76, 0
2, 119303, Note_on_c, 0, 74, 67
2, 119303, Note_on_c, 0, 77, 81
2, 119363, Note_off_c, 0, 72, 0
2, 119551, Note_off_c, 0, 67, 0
2, 119807, Note_off_c, 0, 77, 0
2, 119812, Note_on_c, 0, 72, 62
2, 119812, Note_on_c, 0, 76, 76
2, 119812, Note_on_c, 0, 67, 75
2, 119868, Note_off_c, 0, 74, 0
2, 120352, Note_on_c, 0, 65, 75
2, 120412, Note_off_c, 0, 67, 0
2, 120475, Note_on_c, 0, 67, 75
2, 120489, Note_off_c, 0, 65, 0
2, 120599, Note_on_c, 0, 65, 75
2, 120613, Note_off_c, 0, 67, 0
2, 120725, Note_on_c, 0, 67, 75
2, 120739, Note_off_c, 0, 65, 0
2, 120858, Note_on_c, 0, 64, 75
2, 120872, Note_off_c, 0, 67, 0
2, 121367, Note_on_c, 0, 65, 75
2, 121427, Note_off_c, 0, 64, 0
2, 121874, Note_on_c, 0, 64, 75
2, 121934, Note_off_c, 0, 65, 0
2, 122375, Note_on_c, 0, 62, 70
2, 122435, Note_off_c, 0, 64, 0
2, 122798, Note_off_c, 0, 62, 0
2, 122828, Note_off_c, 0, 72, 0
2, 122879, Note_off_c, 0, 76, 0
2, 122884, Note_on_c, 0, 58, 80
2, 123929, Note_off_c, 0, 58, 0
2, 123930, Note_on_c, 0, 72, 68
2, 123930, Note_on_c, 0, 76, 82
2, 123930, Note_on_c, 0, 62, 76
2, 124408, Note_off_c, 0, 72, 0
2, 124438, Note_off_c, 0, 76, 0
2, 124439, Note_on_c, 0, 74, 67
2, 124439, Note_on_c, 0, 77, 81
2, 124689, Note_off_c, 0, 62, 0
2, 124915, Note_off_c, 0, 74, 0
2, 124945, Note_off_c, 0, 77, 0
2, 124946, Note_on_c, 0, 72, 70
2, 124946, Note_on_c, 0, 76, 84
2, 124946, Note_on_c, 0, 65, 78
2, 125416, Note_off_c, 0, 72, 0
2, 125446, Note_off_c, 0, 76, 0
2, 125447, Note_on_c, 0, 70, 67
2, 125447, Note_on_c, 0, 74, 81
2, 125695, Note_off_c, 0, 65, 0
2, 125951, Note_off_c, 0, 70, 0
2, 125951, Note_off_c, 0, 74, 0
2, 125956, Note_on_c, 0, 65, 72
2, 125956, Note_on_c, 0, 70, 86
2, 125956, Note_on_c, 0, 58, 80
2, 127001, Note_off_c, 0, 65, 0
2, 127001, Note_off_c, 0, 70, 0
2, 127001, Note_off_c, 0, 58, 0
2, 127002, Note_on_c, 0, 58, 68
2, 127002, Note_on_c, 0, 65, 82
2, 127002, Note_on_c, 0, 62, 76
2, 127761, Note_off_c, 0, 62, 0
2, 128017, Note_off_c, 0, 58, 0
2, 128017, Note_off_c, 0, 65, 0
2, 128018, Note_on_c, 0, 74, 70
2, 128018, Note_on_c, 0, 77, 84
2, 128018, Note_on_c, 0, 65, 78
2, 128767, Note_off_c, 0, 65, 0
2, 129023, Note_off_c, 0, 74, 0
2, 129023, Note_off_c, 0, 77, 0
2, 129028, Note_on_c, 0, 72, 72
2, 129028, Note_on_c, 0, 76, 86
2, 129028, Note_on_c, 0, 57, 80
2, 130073, Note_off_c, 0, 57, 0
2, 130074, Note_on_c, 0, 60, 76
2, 130582, Note_off_c, 0, 72, 0
2, 130582, Note_off_c, 0, 76, 0
2, 130583, Note_on_c, 0, 71, 67
2, 130583, Note_on_c, 0, 74, 81
2, 130833, Note_off_c, 0, 60, 0
2, 131059, Note_off_c, 0, 71, 0
2, 131089, Note_off_c, 0, 74, 0
2, 131090, Note_on_c, 0, 69, 70
2, 131090, Note_on_c, 0, 72, 84
2, 131090, Note_on_c, 0, 64, 78
2, 131560, Note_off_c, 0, 69, 0
2, 131590, Note_off_c, 0, 72, 0
2, 131591, Note_on_c, 0, 71, 67
2, 131591, Note_on_c, 0, 74, 81
2, 131839, Note_off_c, 0, 64, 0
2, 132065, Note_off_c, 0, 71, 0
2, 132095, Note_off_c, 0, 74, 0
2, 132100, Note_on_c, 0, 72, 67
2, 132100, Note_on_c, 0, 76, 81
2, 132100, Note_on_c, 0, 57, 80
2, 133145, Note_off_c, 0, 57, 0
2, 133146, Note_on_c, 0, 60, 76
2, 133905, Note_off_c, 0, 60, 0
2, 134161, Note_off_c, 0, 72, 0
2, 134161, Note_off_c, 0, 76, 0
2, 134162, Note_on_c, 0, 69, 70
2, 134162, Note_on_c, 0, 72, 84
2, 134162, Note_on_c, 0, 64, 78
2, 134911, Note_off_c, 0, 64, 0
2, 135167, Note_off_c, 0, 69, 0
2, 135167, Note_off_c, 0, 72, 0
2, 135172, Note_on_c, 0, 71, 72
2, 135172, Note_on_c, 0, 75, 86
2, 135172, Note_on_c, 0, 59, 80
2, 135961, Note_off_c, 0, 59, 0
2, 136217, Note_off_c, 0, 71, 0
2, 136217, Note_off_c, 0, 75, 0
2, 136218, Note_on_c, 0, 63, 68
2, 136218, Note_on_c, 0, 71, 82
2, 136218, Note_on_c, 0, 66, 76
2, 136977, Note_off_c, 0, 66, 0
2, 137233, Note_off_c, 0, 63, 0
2, 137233, Note_off_c, 0, 71, 0
2, 137234, Note_on_c, 0, 60, 70
2, 137234, Note_on_c, 0, 69, 84
2, 137234, Note_on_c, 0, 66, 78
2, 137983, Note_off_c, 0, 66, 0
2, 138239, Note_off_c, 0, 60, 0
2, 138239, Note_off_c, 0, 69, 0
2, 138244, Note_on_c, 0, 54, 67
2, 138244, Note_on_c, 0, 63, 81
2, 138244, Note_on_c, 0, 59, 80
2, 139033, Note_off_c, 0, 59, 0
2, 139290, Note_on_c, 0, 66, 76
2, 140049, Note_off_c, 0, 66, 0
2, 140305, Note_off_c, 0, 54, 0
2, 140305, Note_off_c, 0, 63, 0
2, 140306, Note_on_c, 0, 71, 70
2, 140306, Note_on_c, 0, 75, 84
2, 140306, Note_on_c, 0, 66, 78
2, 141055, Note_off_c, 0, 66, 0
2, 141311, Note_off_c, 0, 71, 0
2, 141311, Note_off_c, 0, 75, 0
2, 141312, Note_on_c, 0, 69, 75
2, 141316, Note_on_c, 0, 76, 75
2, 141316, Note_on_c, 0, 64, 80
2, 142105, Note_off_c, 0, 64, 0
2, 142362, Note_on_c, 0, 71, 76
2, 143121, Note_off_c, 0, 71, 0
2, 143360, Note_off_c, 0, 69, 0
2, 143360, Note_on_c, 0, 68, 75
2, 143378, Note_on_c, 0, 71, 78
2, 143872, Note_off_c, 0, 68, 0
2, 143872, Note_on_c, 0, 69, 75
2, 144127, Note_off_c, 0, 71, 0
2, 144384, Note_off_c, 0, 69, 0
2, 144384, Note_on_c, 0, 68, 75
2, 144384, Note_on_c, 0, 65, 75
2, 144570, Note_on_c, 0, 64, 70
2, 144592, Note_off_c, 0, 65, 0
2, 144896, Note_off_c, 0, 64, 0
2, 144928, Note_on_c, 0, 62, 75
2, 145434, Note_on_c, 0, 60, 75
2, 145494, Note_off_c, 0, 62, 0
2, 145943, Note_on_c, 0, 62, 75
2, 146003, Note_off_c, 0, 60, 0
2, 146450, Note_on_c, 0, 60, 75
2, 146510, Note_off_c, 0, 62, 0
2, 146951, Note_on_c, 0, 56, 70
2, 147011, Note_off_c, 0, 60, 0
2, 147374, Note_off_c, 0, 56, 0
2, 147455, Note_off_c, 0, 76, 0
2, 147456, Note_off_c, 0, 68, 0
2, 147460, Note_on_c, 0, 57, 75
2, 148506, Note_on_c, 0, 74, 67
2, 148506, Note_on_c, 0, 83, 81
2, 148506, Note_on_c, 0, 64, 70
2, 148545, Note_off_c, 0, 57, 0
2, 149014, Note_off_c, 0, 83, 0
2, 149015, Note_on_c, 0, 76, 67
2, 149015, Note_on_c, 0, 84, 81
2, 149075, Note_off_c, 0, 74, 0
2, 149265, Note_off_c, 0, 64, 0
2, 149521, Note_off_c, 0, 84, 0
2, 149522, Note_on_c, 0, 74, 67
2, 149522, Note_on_c, 0, 83, 81
2, 149522, Note_on_c, 0, 64, 78
2, 149582, Note_off_c, 0, 76, 0
2, 150022, Note_off_c, 0, 83, 0
2, 150023, Note_on_c, 0, 72, 67
2, 150023, Note_on_c, 0, 81, 81
2, 150083, Note_off_c, 0, 74, 0
2, 150271, Note_off_c, 0, 64, 0
2, 150527, Note_off_c, 0, 81, 0
2, 150532, Note_on_c, 0, 71, 62
2, 150532, Note_on_c, 0, 76, 76
2, 150532, Note_on_c, 0, 57, 75
2, 150588, Note_off_c, 0, 72, 0
2, 151270, Note_off_c, 0, 71, 0
2, 151321, Note_off_c, 0, 76, 0
2, 151578, Note_on_c, 0, 69, 68
2, 151578, Note_on_c, 0, 72, 82
2, 151578, Note_on_c, 0, 64, 70
2, 151617, Note_off_c, 0, 57, 0
2, 152337, Note_off_c, 0, 69, 0
2, 152337, Note_off_c, 0, 72, 0
2, 152337, Note_off_c, 0, 64, 0
2, 152594, Note_on_c, 0, 71, 70
2, 152594, Note_on_c, 0, 76, 84
2, 152594, Note_on_c, 0, 64, 78
2, 153343, Note_off_c, 0, 71, 0
2, 153343, Note_off_c, 0, 76, 0
2, 153343, Note_off_c, 0, 64, 0
2, 153604, Note_on_c, 0, 55, 75
2, 154650, Note_on_c, 0, 74, 67
2, 154650, Note_on_c, 0, 83, 81
2, 154650, Note_on_c, 0, 64, 70
2, 154689, Note_off_c, 0, 55, 0
2, 155158, Note_off_c, 0, 83, 0
2, 155159, Note_on_c, 0, 76, 67
2, 155159, Note_on_c, 0, 84, 81
2, 155219, Note_off_c, 0, 74, 0
2, 155409, Note_off_c, 0, 64, 0
2, 155665, Note_off_c, 0, 84, 0
2, 155666, Note_on_c, 0, 74, 67
2, 155666, Note_on_c, 0, 83, 81
2, 155666, Note_on_c, 0, 64, 78
2, 155726, Note_off_c, 0, 76, 0
2, 156166, Note_off_c, 0, 83, 0
2, 156167, Note_on_c, 0, 72, 67
2, 156167, Note_on_c, 0, 81, 81
2, 156227, Note_off_c, 0, 74, 0
2, 156415, Note_off_c, 0, 64, 0
2, 156671, Note_off_c, 0, 81, 0
2, 156676, Note_on_c, 0, 71, 62
2, 156676, Note_on_c, 0, 86, 76
2, 156676, Note_on_c, 0, 55, 75
2, 156732, Note_off_c, 0, 72, 0
2, 157722, Note_on_c, 0, 64, 70
2, 157761, Note_off_c, 0, 55, 0
2, 158481, Note_off_c, 0, 64, 0
2, 158738, Note_on_c, 0, 64, 78
2, 159487, Note_off_c, 0, 64, 0
2, 159692, Note_off_c, 0, 71, 0
2, 159743, Note_off_c, 0, 86, 0
2, 159748, Note_on_c, 0, 53, 75
2, 160794, Note_on_c, 0, 79, 67
2, 160794, Note_on_c, 0, 83, 81
2, 160794, Note_on_c, 0, 64, 70
2, 160833, Note_off_c, 0, 53, 0
2, 161302, Note_off_c, 0, 83, 0
2, 161303, Note_on_c, 0, 81, 67
2, 161303, Note_on_c, 0, 84, 81
2, 161363, Note_off_c, 0, 79, 0
2, 161553, Note_off_c, 0, 64, 0
2, 161809, Note_off_c, 0, 84, 0
2, 161810, Note_on_c, 0, 79, 67
2, 161810, Note_on_c, 0, 83, 81
2, 161810, Note_on_c, 0, 64, 78
2, 161870, Note_off_c, 0, 81, 0
2, 162310, Note_off_c, 0, 83, 0
2, 162311, Note_on_c, 0, 77, 67
2, 162311, Note_on_c, 0, 81, 81
2, 162371, Note_off_c, 0, 79, 0
2, 162559, Note_off_c, 0, 64, 0
2, 162815, Note_off_c, 0, 81, 0
2, 162820, Note_on_c, 0, 79, 62
2, 162820, Note_on_c, 0, 83, 76
2, 162820, Note_on_c, 0, 53, 75
2, 162876, Note_off_c, 0, 77, 0
2, 163866, Note_on_c, 0, 60, 70
2, 163905, Note_off_c, 0, 53, 0
2, 164574, Note_off_c, 0, 60, 0
2, 164830, Note_off_c, 0, 79, 0
2, 164881, Note_off_c, 0, 83, 0
2, 164882, Note_on_c, 0, 81, 70
2, 164882, Note_on_c, 0, 84, 84
2, 164882, Note_on_c, 0, 64, 78
2, 165631, Note_off_c, 0, 81, 0
2, 165631, Note_off_c, 0, 84, 0
2, 165631, Note_off_c, 0, 64, 0
2, 165892, Note_on_c, 0, 76, 72
2, 165892, Note_on_c, 0, 79, 86
2, 165892, Note_on_c, 0, 60, 80
2, 166681, Note_off_c, 0, 76, 0
2, 166681, Note_off_c, 0, 79, 0
2, 166912, Note_on_c, 0, 81, 75
2, 166920, Note_on_c, 0, 79, 81
2, 166937, Note_off_c, 0, 60, 0
2, 166938, Note_on_c, 0, 67, 76
2, 167096, Note_on_c, 0, 76, 75
2, 167096, Note_on_c, 0, 79, 76
2, 167118, Note_off_c, 0, 81, 0
2, 167424, Note_off_c, 0, 76, 0
2, 167424, Note_off_c, 0, 79, 0
2, 167446, Note_off_c, 0, 79, 0
2, 167447, Note_on_c, 0, 74, 67
2, 167447, Note_on_c, 0, 77, 81
2, 167697, Note_off_c, 0, 67, 0
2, 167953, Note_off_c, 0, 77, 0
2, 167954, Note_on_c, 0, 72, 67
2, 167954, Note_on_c, 0, 76, 81
2, 167954, Note_on_c, 0, 67, 78
2, 168014, Note_off_c, 0, 74, 0
2, 168454, Note_off_c, 0, 76, 0
2, 168455, Note_on_c, 0, 74, 67
2, 168455, Note_on_c, 0, 77, 81
2, 168515, Note_off_c, 0, 72, 0
2, 168703, Note_off_c, 0, 67, 0
2, 168959, Note_off_c, 0, 77, 0
2, 168964, Note_on_c, 0, 72, 62
2, 168964, Note_on_c, 0, 76, 76
2, 168964, Note_on_c, 0, 67, 75
2, 169020, Note_off_c, 0, 74, 0
2, 169504, Note_on_c, 0, 65, 75
2, 169564, Note_off_c, 0, 67, 0
2, 169627, Note_on_c, 0, 67, 75
2, 169641, Note_off_c, 0, 65, 0
2, 169751, Note_on_c, 0, 65, 75
2, 169765, Note_off_c, 0, 67, 0
2, 169877, Note_on_c, 0, 67, 75
2, 169891, Note_off_c, 0, 65, 0
2, 170010, Note_on_c, 0, 64, 75
2, 170024, Note_off_c, 0, 67, 0
2, 170519, Note_on_c, 0, 65, 75
2, 170579, Note_off_c, 0, 64, 0
2, 171026, Note_on_c, 0, 64, 75
2, 171086, Note_off_c, 0, 65, 0
2, 171527, Note_on_c, 0, 62, 70
2, 171587, Note_off_c, 0, 64, 0
2, 171950, Note_off_c, 0, 62, 0
2, 171980, Note_off_c, 0, 72, 0
2, 172031, Note_off_c, 0, 76, 0
2, 172036, Note_on_c, 0, 58, 80
2, 173081, Note_off_c, 0, 58, 0
2, 173082, Note_on_c, 0, 72, 68
2, 173082, Note_on_c, 0, 76, 82
2, 173082, Note_on_c, 0, 62, 76
2, 173560, Note_off_c, 0, 72, 0
2, 173590, Note_off_c, 0, 76, 0
2, 173591, Note_on_c, 0, 74, 67
2, 173591, Note_on_c, 0, 77, 81
2, 173841, Note_off_c, 0, 62, 0
2, 174067, Note_off_c, 0, 74, 0
2, 174097, Note_off_c, 0, 77, 0
2, 174098, Note_on_c, 0, 72, 70
2, 174098, Note_on_c, 0, 76, 84
2, 174098, Note_on_c, 0, 65, 78
2, 174568, Note_off_c, 0, 72, 0
2, 174598, Note_off_c, 0, 76, 0
2, 174599, Note_on_c, 0, 70, 67
2, 174599, Note_on_c, 0, 74, 81
2, 174847, Note_off_c, 0, 65, 0
2, 175103, Note_off_c, 0, 70, 0
2, 175103, Note_off_c, 0, 74, 0
2, 175108, Note_on_c, 0, 65, 72
2, 175108, Note_on_c, 0, 70, 86
2, 175108, Note_on_c, 0, 58, 80
2, 176153, Note_off_c, 0, 65, 0
2, 176153, Note_off_c, 0, 70, 0
2, 176153, Note_off_c, 0, 58, 0
2, 176154, Note_on_c, 0, 58, 68
2, 176154, Note_on_c, 0, 65, 82
2, 176154, Note_on_c, 0, 62, 76
2, 176913, Note_off_c, 0, 62, 0
2, 177169, Note_off_c, 0, 58, 0
2, 177169, Note_off_c, 0, 65, 0
2, 177170, Note_on_c, 0, 74, 70
2, 177170, Note_on_c, 0, 77, 84
2, 177170, Note_on_c, 0, 65, 78
2, 177919, Note_off_c, 0, 65, 0
2, 178175, Note_off_c, 0, 74, 0
2, 178175, Note_off_c, 0, 77, 0
2, 178180, Note_on_c, 0, 72, 72
2, 178180, Note_on_c, 0, 76, 86
2, 178180, Note_on_c, 0, 57, 80
2, 179225, Note_off_c, 0, 57, 0
2, 179226, Note_on_c, 0, 60, 76
2, 179734, Note_off_c, 0, 72, 0
2, 179734, Note_off_c, 0, 76, 0
2, 179735, Note_on_c, 0, 71, 67
2, 179735, Note_on_c, 0, 74, 81
2, 179985, Note_off_c, 0, 60, 0
2, 180211, Note_off_c, 0, 71, 0
2, 180241, Note_off_c, 0, 74, 0
2, 180242, Note_on_c, 0, 69, 70
2, 180242, Note_on_c, 0, 72, 84
2, 180242, Note_on_c, 0, 64, 78
2, 180712, Note_off_c, 0, 69, 0
2, 180742, Note_off_c, 0, 72, 0
2, 180743, Note_on_c, 0, 71, 67
2, 180743, Note_on_c, 0, 74, 81
2, 180991, Note_off_c, 0, 64, 0
2, 181217, Note_off_c, 0, 71, 0
2, 181247, Note_off_c, 0, 74, 0
2, 181252, Note_on_c, 0, 72, 67
2, 181252, Note_on_c, 0, 76, 81
2, 181252, Note_on_c, 0, 57, 80
2, 182297, Note_off_c, 0, 57, 0
2, 182298, Note_on_c, 0, 60, 76
2, 183057, Note_off_c, 0, 60, 0
2, 183313, Note_off_c, 0, 72, 0
2, 183313, Note_off_c, 0, 76, 0
2, 183314, Note_on_c, 0, 69, 70
2, 183314, Note_on_c, 0, 72, 84
2, 183314, Note_on_c, 0, 64, 78
2, 184063, Note_off_c, 0, 64, 0
2, 184319, Note_off_c, 0, 69, 0
2, 184319, Note_off_c, 0, 72, 0
2, 184324, Note_on_c, 0, 71, 72
2, 184324, Note_on_c, 0, 75, 86
2, 184324, Note_on_c, 0, 59, 80
2, 185113, Note_off_c, 0, 59, 0
2, 185369, Note_off_c, 0, 71, 0
2, 185369, Note_off_c, 0, 75, 0
2, 185370, Note_on_c, 0, 63, 68
2, 185370, Note_on_c, 0, 71, 82
2, 185370, Note_on_c, 0, 66, 76
2, 186129, Note_off_c, 0, 66, 0
2, 186385, Note_off_c, 0, 63, 0
2, 186385, Note_off_c, 0, 71, 0
2, 186386, Note_on_c, 0, 60, 70
2, 186386, Note_on_c, 0, 69, 84
2, 186386, Note_on_c, 0, 66, 78
2, 187135, Note_off_c, 0, 66, 0
2, 187391, Note_off_c, 0, 60, 0
2, 187391, Note_off_c, 0, 69, 0
2, 187396, Note_on_c, 0, 54, 67
2, 187396, Note_on_c, 0, 63, 81
2, 187396, Note_on_c, 0, 59, 80
2, 188185, Note_off_c, 0, 59, 0
2, 188442, Note_on_c, 0, 66, 76
2, 189201, Note_off_c, 0, 66, 0
2, 189457, Note_off_c, 0, 54, 0
2, 189457, Note_off_c, 0, 63, 0
2, 189458, Note_on_c, 0, 71, 70
2, 189458, Note_on_c, 0, 75, 84
2, 189458, Note_on_c, 0, 66, 78
2, 190207, Note_off_c, 0, 66, 0
2, 190463, Note_off_c, 0, 71, 0
2, 190463, Note_off_c, 0, 75, 0
2, 190464, Note_on_c, 0, 69, 75
2, 190468, Note_on_c, 0, 76, 75
2, 190468, Note_on_c, 0, 64, 80
2, 191257, Note_off_c, 0, 64, 0
2, 191514, Note_on_c, 0, 71, 76
2, 192273, Note_off_c, 0, 71, 0
2, 192512, Note_off_c, 0, 69, 0
2, 192512, Note_on_c, 0, 68, 75
2, 192530, Note_on_c, 0, 71, 78
2, 193024, Note_off_c, 0, 68, 0
2, 193024, Note_on_c, 0, 69, 75
2, 193279, Note_off_c, 0, 71, 0
2, 193536, Note_off_c, 0, 69, 0
2, 193536, Note_on_c, 0, 68, 75
2, 193536, Note_on_c, 0, 65, 75
2, 193722, Note_on_c, 0, 64, 70
2, 193744, Note_off_c, 0, 65, 0
2, 194048, Note_off_c, 0, 64, 0
2, 194080, Note_on_c, 0, 62, 75
2, 194586, Note_on_c, 0, 60, 75
2, 194646, Note_off_c, 0, 62, 0
2, 195095, Note_on_c, 0, 62, 75
2, 195155, Note_off_c, 0, 60, 0
2, 195602, Note_on_c, 0, 60, 75
2, 195662, Note_off_c, 0, 62, 0
2, 196103, Note_on_c, 0, 56, 70
2, 196163, Note_off_c, 0, 60, 0
2, 196526, Note_off_c, 0, 56, 0
2, 196607, Note_off_c, 0, 76, 0
2, 196608, Control_c, 0, 7, 102
2, 196608, Control_c, 0, 7, 110
2, 196608, Note_off_c, 0, 68, 0
2, 196611, Control_c, 0, 100, 0
2, 196611, Control_c, 0, 101, 0
2, 196611, Control_c, 0, 100, 0
2, 196611, Control_c, 0, 101, 0
2, 196612, Control_c, 0, 6, 12
2, 196612, Control_c, 0, 6, 12
2, 196613, Control_c, 0, 38, 0
2, 196613, Control_c, 0, 38, 0
2, 196618, Control_c, 0, 7, 102
2, 196618, Control_c, 0, 7, 110
2, 196618, Note_on_c, 0, 69, 75
2, 196618, Note_on_c, 0, 57, 80
2, 197657, Note_off_c, 0, 57, 0
2, 197658, Note_on_c, 0, 64, 76
2, 198417, Note_off_c, 0, 64, 0
2, 198673, Note_off_c, 0, 69, 0
2, 198674, Note_on_c, 0, 72, 75
2, 198674, Note_on_c, 0, 64, 78
2, 199175, Note_on_c, 0, 76, 75
2, 199235, Note_off_c, 0, 72, 0
2, 199423, Note_off_c, 0, 64, 0
2, 199684, Note_on_c, 0, 84, 70
2, 199684, Note_on_c, 0, 57, 80
2, 199740, Note_off_c, 0, 76, 0
2, 200729, Note_off_c, 0, 57, 0
2, 200730, Note_on_c, 0, 64, 76
2, 201489, Note_off_c, 0, 64, 0
2, 201694, Note_off_c, 0, 84, 0
2, 201746, Note_on_c, 0, 83, 78
2, 201746, Note_on_c, 0, 64, 78
2, 202495, Note_off_c, 0, 64, 0
2, 202751, Note_off_c, 0, 83, 0
2, 202756, Note_on_c, 0, 79, 75
2, 202756, Note_on_c, 0, 55, 80
2, 203801, Note_off_c, 0, 55, 0
2, 203802, Note_on_c, 0, 64, 76
2, 204561, Note_off_c, 0, 64, 0
2, 204817, Note_off_c, 0, 79, 0
2, 204818, Note_on_c, 0, 74, 78
2, 204818, Note_on_c, 0, 64, 78
2, 205567, Note_off_c, 0, 64, 0
2, 205823, Note_off_c, 0, 74, 0
2, 205828, Note_on_c, 0, 76, 75
2, 205828, Note_on_c, 0, 55, 80
2, 206873, Note_off_c, 0, 55, 0
2, 206874, Note_on_c, 0, 64, 76
2, 207633, Note_off_c, 0, 64, 0
2, 207890, Note_on_c, 0, 64, 78
2, 208639, Note_off_c, 0, 64, 0
2, 208895, Note_off_c, 0, 76, 0
2, 208900, Note_on_c, 0, 76, 75
2, 208900, Note_on_c, 0, 53, 75
2, 209946, Note_on_c, 0, 60, 70
2, 209985, Note_off_c, 0, 53, 0
2, 210705, Note_off_c, 0, 60, 0
2, 210961, Note_off_c, 0, 76, 0
2, 210962, Note_on_c, 0, 77, 75
2, 210962, Note_on_c, 0, 60, 78
2, 211463, Note_on_c, 0, 79, 75
2, 211523, Note_off_c, 0, 77, 0
2, 211711, Note_off_c, 0, 60, 0
2, 211972, Note_on_c, 0, 77, 70
2, 211972, Note_on_c, 0, 53, 75
2, 212028, Note_off_c, 0, 79, 0
2, 213018, Note_on_c, 0, 60, 70
2, 213057, Note_off_c, 0, 53, 0
2, 213777, Note_off_c, 0, 60, 0
2, 213982, Note_off_c, 0, 77, 0
2, 214034, Note_on_c, 0, 76, 78
2, 214034, Note_on_c, 0, 60, 78
2, 214783, Note_off_c, 0, 60, 0
2, 215039, Note_off_c, 0, 76, 0
2, 215044, Note_on_c, 0, 74, 75
2, 215044, Note_on_c, 0, 52, 75
2, 216090, Note_on_c, 0, 59, 70
2, 216129, Note_off_c, 0, 52, 0
2, 216849, Note_off_c, 0, 59, 0
2, 217105, Note_off_c, 0, 74, 0
2, 217106, Note_on_c, 0, 72, 78
2, 217106, Note_on_c, 0, 59, 78
2, 217855, Note_off_c, 0, 59, 0
2, 218111, Note_off_c, 0, 72, 0
2, 218116, Note_on_c, 0, 76, 75
2, 218116, Note_on_c, 0, 52, 75
2, 219162, Note_on_c, 0, 59, 70
2, 219201, Note_off_c, 0, 52, 0
2, 219921, Note_off_c, 0, 59, 0
2, 220178, Note_on_c, 0, 59, 78
2, 220927, Note_off_c, 0, 59, 0
2, 221183, Note_off_c, 0, 76, 0
2, 221188, Note_on_c, 0, 69, 75
2, 221188, Note_on_c, 0, 50, 75
2, 222234, Note_on_c, 0, 57, 70
2, 222273, Note_off_c, 0, 50, 0
2, 222993, Note_off_c, 0, 57, 0
2, 223249, Note_off_c, 0, 69, 0
2, 223250, Note_on_c, 0, 72, 75
2, 223250, Note_on_c, 0, 57, 78
2, 223751, Note_on_c, 0, 76, 75
2, 223811, Note_off_c, 0, 72, 0
2, 223999, Note_off_c, 0, 57, 0
2, 224260, Note_on_c, 0, 84, 70
2, 224260, Note_on_c, 0, 50, 75
2, 224316, Note_off_c, 0, 76, 0
2, 225306, Note_on_c, 0, 57, 70
2, 225345, Note_off_c, 0, 50, 0
2, 226065, Note_off_c, 0, 57, 0
2, 226270, Note_off_c, 0, 84, 0
2, 226322, Note_on_c, 0, 83, 78
2, 226322, Note_on_c, 0, 57, 78
2, 227071, Note_off_c, 0, 57, 0
2, 227327, Note_off_c, 0, 83, 0
2, 227332, Note_on_c, 0, 79, 75
2, 227332, Note_on_c, 0, 48, 75
2, 228378, Note_on_c, 0, 55, 70
2, 228417, Note_off_c, 0, 48, 0
2, 229137, Note_off_c, 0, 55, 0
2, 229393, Note_off_c, 0, 79, 0
2, 229394, Note_on_c, 0, 74, 78
2, 229394, Note_on_c, 0, 55, 78
2, 230143, Note_off_c, 0, 55, 0
2, 230399, Note_off_c, 0, 74, 0
2, 230404, Note_on_c, 0, 76, 75
2, 230404, Note_on_c, 0, 48, 75
2, 231450, Note_on_c, 0, 55, 70
2, 231489, Note_off_c, 0, 48, 0
2, 232209, Note_off_c, 0, 55, 0
2, 232466, Note_on_c, 0, 55, 78
2, 233215, Note_off_c, 0, 55, 0
2, 233471, Note_off_c, 0, 76, 0
2, 233476, Note_on_c, 0, 76, 75
2, 233476, Note_on_c, 0, 46, 75
2, 234522, Note_on_c, 0, 53, 70
2, 234561, Note_off_c, 0, 46, 0
2, 235281, Note_off_c, 0, 53, 0
2, 235537, Note_off_c, 0, 76, 0
2, 235538, Note_on_c, 0, 77, 75
2, 235538, Note_on_c, 0, 53, 78
2, 236039, Note_on_c, 0, 79, 75
2, 236099, Note_off_c, 0, 77, 0
2, 236287, Note_off_c, 0, 53, 0
2, 236548, Note_on_c, 0, 77, 70
2, 236548, Note_on_c, 0, 46, 75
2, 236604, Note_off_c, 0, 79, 0
2, 237594, Note_on_c, 0, 53, 70
2, 237633, Note_off_c, 0, 46, 0
2, 238353, Note_off_c, 0, 53, 0
2, 238558, Note_off_c, 0, 77, 0
2, 238610, Note_on_c, 0, 76, 78
2, 238610, Note_on_c, 0, 53, 78
2, 239359, Note_off_c, 0, 53, 0
2, 239615, Note_off_c, 0, 76, 0
2, 239620, Note_on_c, 0, 74, 75
2, 239620, Note_on_c, 0, 52, 75
2, 240666, Note_on_c, 0, 57, 70
2, 240705, Note_off_c, 0, 52, 0
2, 241425, Note_off_c, 0, 57, 0
2, 241681, Note_off_c, 0, 74, 0
2, 241682, Note_on_c, 0, 72, 78
2, 241682, Note_on_c, 0, 57, 78
2, 242431, Note_off_c, 0, 57, 0
2, 242687, Note_off_c, 0, 72, 0
2, 242692, Note_on_c, 0, 76, 75
2, 242692, Note_on_c, 0, 52, 75
2, 243738, Note_on_c, 0, 56, 70
2, 243777, Note_off_c, 0, 52, 0
2, 244497, Note_off_c, 0, 56, 0
2, 244754, Note_on_c, 0, 56, 78
2, 245503, Note_off_c, 0, 56, 0
2, 245759, Note_off_c, 0, 76, 0
2, 245764, Note_on_c, 0, 60, 67
2, 245764, Note_on_c, 0, 69, 81
2, 245764, Note_on_c, 0, 57, 80
2, 246809, Note_off_c, 0, 57, 0
2, 246810, Note_on_c, 0, 64, 76
2, 247569, Note_off_c, 0, 64, 0
2, 247825, Note_off_c, 0, 60, 0
2, 247825, Note_off_c, 0, 69, 0
2, 247826, Note_on_c, 0, 69, 67
2, 247826, Note_on_c, 0, 72, 81
2, 247826, Note_on_c, 0, 64, 78
2, 248326, Note_off_c, 0, 72, 0
2, 248327, Note_on_c, 0, 71, 67
2, 248327, Note_on_c, 0, 76, 81
2, 248387, Note_off_c, 0, 69, 0
2, 248575, Note_off_c, 0, 64, 0
2, 248831, Note_off_c, 0, 76, 0
2, 248836, Note_on_c, 0, 76, 62
2, 248836, Note_on_c, 0, 84, 76
2, 248836, Note_on_c, 0, 57, 80
2, 248892, Note_off_c, 0, 71, 0
2, 249881, Note_off_c, 0, 57, 0
2, 249882, Note_on_c, 0, 64, 76
2, 250641, Note_off_c, 0, 64, 0
2, 250897, Note_off_c, 0, 76, 0
2, 250897, Note_off_c, 0, 84, 0
2, 250898, Note_on_c, 0, 76, 70
2, 250898, Note_on_c, 0, 83, 84
2, 250898, Note_on_c, 0, 64, 78
2, 251647, Note_off_c, 0, 64, 0
2, 251903, Note_off_c, 0, 76, 0
2, 251903, Note_off_c, 0, 83, 0
2, 251908, Note_on_c, 0, 74, 67
2, 251908, Note_on_c, 0, 79, 81
2, 251908, Note_on_c, 0, 55, 80
2, 252953, Note_off_c, 0, 55, 0
2, 252954, Note_on_c, 0, 64, 76
2, 253713, Note_off_c, 0, 64, 0
2, 253969, Note_off_c, 0, 74, 0
2, 253969, Note_off_c, 0, 79, 0
2, 253970, Note_on_c, 0, 71, 70
2, 253970, Note_on_c, 0, 74, 84
2, 253970, Note_on_c, 0, 64, 78
2, 254719, Note_off_c, 0, 64, 0
2, 254975, Note_off_c, 0, 71, 0
2, 254975, Note_off_c, 0, 74, 0
2, 254976, Note_on_c, 0, 69, 75
2, 254980, Note_on_c, 0, 76, 75
2, 254980, Note_on_c, 0, 55, 80
2, 256025, Note_off_c, 0, 55, 0
2, 256026, Note_on_c, 0, 64, 76
2, 256785, Note_off_c, 0, 64, 0
2, 257024, Note_off_c, 0, 69, 0
2, 257024, Note_on_c, 0, 67, 75
2, 257042, Note_on_c, 0, 64, 78
2, 257791, Note_off_c, 0, 64, 0
2, 258047, Note_off_c, 0, 76, 0
2, 258048, Note_off_c, 0, 67, 0
2, 258052, Note_on_c, 0, 69, 67
2, 258052, Note_on_c, 0, 76, 81
2, 258052, Note_on_c, 0, 53, 75
2, 259098, Note_on_c, 0, 60, 70
2, 259137, Note_off_c, 0, 53, 0
2, 259857, Note_off_c, 0, 60, 0
2, 260113, Note_off_c, 0, 69, 0
2, 260113, Note_off_c, 0, 76, 0
2, 260114, Note_on_c, 0, 69, 67
2, 260114, Note_on_c, 0, 77, 81
2, 260114, Note_on_c, 0, 60, 78
2, 260614, Note_off_c, 0, 77, 0
2, 260615, Note_on_c, 0, 71, 67
2, 260615, Note_on_c, 0, 79, 81
2, 260675, Note_off_c, 0, 69, 0
2, 260863, Note_off_c, 0, 60, 0
2, 261119, Note_off_c, 0, 79, 0
2, 261124, Note_on_c, 0, 72, 62
2, 261124, Note_on_c, 0, 77, 76
2, 261124, Note_on_c, 0, 53, 75
2, 261180, Note_off_c, 0, 71, 0
2, 262170, Note_on_c, 0, 60, 70
2, 262209, Note_off_c, 0, 53, 0
2, 262929, Note_off_c, 0, 60, 0
2, 263134, Note_off_c, 0, 72, 0
2, 263185, Note_off_c, 0, 77, 0
2, 263186, Note_on_c, 0, 71, 70
2, 263186, Note_on_c, 0, 76, 84
2, 263186, Note_on_c, 0, 60, 78
2, 263935, Note_off_c, 0, 60, 0
2, 264191, Note_off_c, 0, 71, 0
2, 264191, Note_off_c, 0, 76, 0
2, 264196, Note_on_c, 0, 67, 67
2, 264196, Note_on_c, 0, 74, 81
2, 264196, Note_on_c, 0, 52, 75
2, 265242, Note_on_c, 0, 59, 70
2, 265281, Note_off_c, 0, 52, 0
2, 266001, Note_off_c, 0, 59, 0
2, 266257, Note_off_c, 0, 67, 0
2, 266257, Note_off_c, 0, 74, 0
2, 266258, Note_on_c, 0, 64, 70
2, 266258, Note_on_c, 0, 72, 84
2, 266258, Note_on_c, 0, 59, 78
2, 267007, Note_off_c, 0, 59, 0
2, 267263, Note_off_c, 0, 64, 0
2, 267263, Note_off_c, 0, 72, 0
2, 267268, Note_on_c, 0, 71, 67
2, 267268, Note_on_c, 0, 76, 81
2, 267268, Note_on_c, 0, 52, 75
2, 268314, Note_on_c, 0, 59, 75
2, 268353, Note_off_c, 0, 52, 0
2, 268823, Note_on_c, 0, 60, 75
2, 268883, Note_off_c, 0, 59, 0
2, 269330, Note_on_c, 0, 62, 75
2, 269390, Note_off_c, 0, 60, 0
2, 269831, Note_on_c, 0, 59, 70
2, 269891, Note_off_c, 0, 62, 0
2, 270254, Note_off_c, 0, 59, 0
2, 270335, Note_off_c, 0, 71, 0
2, 270335, Note_off_c, 0, 76, 0
2, 270340, Note_on_c, 0, 65, 67
2, 270340, Note_on_c, 0, 69, 81
2, 270340, Note_on_c, 0, 50, 75
2, 271386, Note_on_c, 0, 57, 70
2, 271425, Note_off_c, 0, 50, 0
2, 272145, Note_off_c, 0, 57, 0
2, 272401, Note_off_c, 0, 65, 0
2, 272401, Note_off_c, 0, 69, 0
2, 272402, Note_on_c, 0, 65, 67
2, 272402, Note_on_c, 0, 72, 81
2, 272402, Note_on_c, 0, 57, 78
2, 272902, Note_off_c, 0, 72, 0
2, 272903, Note_on_c, 0, 67, 67
2, 272903, Note_on_c, 0, 76, 81
2, 272963, Note_off_c, 0, 65, 0
2, 273151, Note_off_c, 0, 57, 0
2, 273407, Note_off_c, 0, 76, 0
2, 273408, Note_on_c, 0, 69, 75
2, 273412, Note_on_c, 0, 84, 70
2, 273412, Note_on_c, 0, 50, 75
2, 273468, Note_off_c, 0, 67, 0
2, 274432, Note_off_c, 0, 69, 0
2, 274432, Note_on_c, 0, 67, 75
2, 274458, Note_on_c, 0, 57, 70
2, 274497, Note_off_c, 0, 50, 0
2, 275217, Note_off_c, 0, 57, 0
2, 275422, Note_off_c, 0, 84, 0
2, 275456, Note_off_c, 0, 67, 0
2, 275456, Note_on_c, 0, 65, 75
2, 275474, Note_on_c, 0, 83, 78
2, 275474, Note_on_c, 0, 57, 78
2, 276223, Note_off_c, 0, 57, 0
2, 276479, Note_off_c, 0, 83, 0
2, 276480, Note_off_c, 0, 65, 0
2, 276480, Note_on_c, 0, 64, 75
2, 276484, Note_on_c, 0, 79, 75
2, 276484, Note_on_c, 0, 48, 75
2, 277504, Note_off_c, 0, 64, 0
2, 277504, Note_on_c, 0, 74, 75
2, 277530, Note_on_c, 0, 55, 70
2, 277569, Note_off_c, 0, 48, 0
2, 278016, Note_off_c, 0, 74, 0
2, 278016, Note_on_c, 0, 72, 75
2, 278289, Note_off_c, 0, 55, 0
2, 278528, Note_off_c, 0, 72, 0
2, 278528, Note_on_c, 0, 71, 75
2, 278545, Note_off_c, 0, 79, 0
2, 278546, Note_on_c, 0, 74, 78
2, 278546, Note_on_c, 0, 55, 78
2, 279040, Note_off_c, 0, 71, 0
2, 279040, Note_on_c, 0, 69, 75
2, 279295, Note_off_c, 0, 55, 0
2, 279551, Note_off_c, 0, 74, 0
2, 279552, Note_off_c, 0, 69, 0
2, 279556, Note_on_c, 0, 67, 78
2, 279556, Note_on_c, 0, 76, 73
2, 279556, Note_on_c, 0, 48, 75
2, 280602, Note_on_c, 0, 55, 70
2, 280641, Note_off_c, 0, 48, 0
2, 281361, Note_off_c, 0, 55, 0
2, 281618, Note_on_c, 0, 55, 78
2, 282367, Note_off_c, 0, 55, 0
2, 282623, Note_off_c, 0, 67, 0
2, 282623, Note_off_c, 0, 76, 0
2, 282628, Note_on_c, 0, 69, 67
2, 282628, Note_on_c, 0, 76, 81
2, 282628, Note_on_c, 0, 46, 75
2, 283674, Note_on_c, 0, 53, 70
2, 283713, Note_off_c, 0, 46, 0
2, 284433, Note_off_c, 0, 53, 0
2, 284689, Note_off_c, 0, 69, 0
2, 284689, Note_off_c, 0, 76, 0
2, 284690, Note_on_c, 0, 70, 67
2, 284690, Note_on_c, 0, 77, 81
2, 284690, Note_on_c, 0, 53, 78
2, 285190, Note_off_c, 0, 77, 0
2, 285191, Note_on_c, 0, 72, 67
2, 285191, Note_on_c, 0, 79, 81
2, 285251, Note_off_c, 0, 70, 0
2, 285439, Note_off_c, 0, 53, 0
2, 285695, Note_off_c, 0, 79, 0
2, 285700, Note_on_c, 0, 70, 62
2, 285700, Note_on_c, 0, 77, 76
2, 285700, Note_on_c, 0, 46, 75
2, 285756, Note_off_c, 0, 72, 0
2, 286746, Note_on_c, 0, 53, 70
2, 286785, Note_off_c, 0, 46, 0
2, 287505, Note_off_c, 0, 53, 0
2, 287710, Note_off_c, 0, 70, 0
2, 287761, Note_off_c, 0, 77, 0
2, 287762, Note_on_c, 0, 69, 70
2, 287762, Note_on_c, 0, 76, 84
2, 287762, Note_on_c, 0, 53, 78
2, 288511, Note_off_c, 0, 53, 0
2, 288767, Note_off_c, 0, 69, 0
2, 288767, Note_off_c, 0, 76, 0
2, 288768, Note_on_c, 0, 69, 75
2, 288772, Note_on_c, 0, 74, 75
2, 288772, Note_on_c, 0, 52, 75
2, 289818, Note_on_c, 0, 57, 70
2, 289857, Note_off_c, 0, 52, 0
2, 290577, Note_off_c, 0, 57, 0
2, 290816, Note_off_c, 0, 69, 0
2, 290816, Note_on_c, 0, 68, 75
2, 290833, Note_off_c, 0, 74, 0
2, 290834, Note_on_c, 0, 72, 78
2, 290834, Note_on_c, 0, 57, 78
2, 291328, Note_off_c, 0, 68, 0
2, 291328, Note_on_c, 0, 69, 75
2, 291583, Note_off_c, 0, 57, 0
2, 291839, Note_off_c, 0, 72, 0
2, 291840, Note_off_c, 0, 69, 0
2, 291844, Note_on_c, 0, 71, 67
2, 291844, Note_on_c, 0, 76, 81
2, 291844, Note_on_c, 0, 52, 75
2, 292890, Note_on_c, 0, 56, 70
2, 292929, Note_off_c, 0, 52, 0
2, 293649, Note_off_c, 0, 56, 0
2, 293906, Note_on_c, 0, 56, 78
2, 294655, Note_off_c, 0, 56, 0
2, 294911, Note_off_c, 0, 71, 0
2, 294911, Note_off_c, 0, 76, 0
2, 294916, Note_on_c, 0, 57, 75
2, 295962, Note_on_c, 0, 74, 67
2, 295962, Note_on_c, 0, 83, 81
2, 295962, Note_on_c, 0, 64, 70
2, 296001, Note_off_c, 0, 57, 0
2, 296470, Note_off_c, 0, 83, 0
2, 296471, Note_on_c, 0, 76, 67
2, 296471, Note_on_c, 0, 84, 81
2, 296531, Note_off_c, 0, 74, 0
2, 296721, Note_off_c, 0, 64, 0
2, 296977, Note_off_c, 0, 84, 0
2, 296978, Note_on_c, 0, 74, 67
2, 296978, Note_on_c, 0, 83, 81
2, 296978, Note_on_c, 0, 64, 78
2, 297038, Note_off_c, 0, 76, 0
2, 297478, Note_off_c, 0, 83, 0
2, 297479, Note_on_c, 0, 72, 67
2, 297479, Note_on_c, 0, 81, 81
2, 297539, Note_off_c, 0, 74, 0
2, 297727, Note_off_c, 0, 64, 0
2, 297983, Note_off_c, 0, 81, 0
2, 297988, Note_on_c, 0, 71, 62
2, 297988, Note_on_c, 0, 76, 76
2, 297988, Note_on_c, 0, 57, 75
2, 298044, Note_off_c, 0, 72, 0
2, 298726, Note_off_c, 0, 71, 0
2, 298777, Note_off_c, 0, 76, 0
2, 299034, Note_on_c, 0, 69, 68
2, 299034, Note_on_c, 0, 72, 82
2, 299034, Note_on_c, 0, 64, 70
2, 299073, Note_off_c, 0, 57, 0
2, 299793, Note_off_c, 0, 69, 0
2, 299793, Note_off_c, 0, 72, 0
2, 299793, Note_off_c, 0, 64, 0
2, 300050, Note_on_c, 0, 71, 70
2, 300050, Note_on_c, 0, 76, 84
2, 300050, Note_on_c, 0, 64, 78
2, 300799, Note_off_c, 0, 71, 0
2, 300799, Note_off_c, 0, 76, 0
2, 300799, Note_off_c, 0, 64, 0
2, 301060, Note_on_c, 0, 55, 75
2, 302106, Note_on_c, 0, 74, 67
2, 302106, Note_on_c, 0, 83, 81
2, 302106, Note_on_c, 0, 64, 70
2, 302145, Note_off_c, 0, 55, 0
2, 302614, Note_off_c, 0, 83, 0
2, 302615, Note_on_c, 0, 76, 67
2, 302615, Note_on_c, 0, 84, 81
2, 302675, Note_off_c, 0, 74, 0
2, 302865, Note_off_c, 0, 64, 0
2, 303121, Note_off_c, 0, 84, 0
2, 303122, Note_on_c, 0, 74, 67
2, 303122, Note_on_c, 0, 83, 81
2, 303122, Note_on_c, 0, 64, 78
2, 303182, Note_off_c, 0, 76, 0
2, 303622, Note_off_c, 0, 83, 0
2, 303623, Note_on_c, 0, 72, 67
2, 303623, Note_on_c, 0, 81, 81
2, 303683, Note_off_c, 0, 74, 0
2, 303871, Note_off_c, 0, 64, 0
2, 304127, Note_off_c, 0, 81, 0
2, 304132, Note_on_c, 0, 71, 62
2, 304132, Note_on_c, 0, 86, 76
2, 304132, Note_on_c, 0, 55, 75
2, 304188, Note_off_c, 0, 72, 0
2, 305178, Note_on_c, 0, 64, 70
2, 305217, Note_off_c, 0, 55, 0
2, 305937, Note_off_c, 0, 64, 0
2, 306194, Note_on_c, 0, 64, 78
2, 306943, Note_off_c, 0, 64, 0
2, 307148, Note_off_c, 0, 71, 0
2, 307199, Note_off_c, 0, 86, 0
2, 307204, Note_on_c, 0, 53, 75
2, 308250, Note_on_c, 0, 79, 67
2, 308250, Note_on_c, 0, 83, 81
2, 308250, Note_on_c, 0, 64, 70
2, 308289, Note_off_c, 0, 53, 0
2, 308758, Note_off_c, 0, 83, 0
2, 308759, Note_on_c, 0, 81, 67
2, 308759, Note_on_c, 0, 84, 81
2, 308819, Note_off_c, 0, 79, 0
2, 309009, Note_off_c, 0, 64, 0
2, 309265, Note_off_c, 0, 84, 0
2, 309266, Note_on_c, 0, 79, 67
2, 309266, Note_on_c, 0, 83, 81
2, 309266, Note_on_c, 0, 64, 78
2, 309326, Note_off_c, 0, 81, 0
2, 309766, Note_off_c, 0, 83, 0
2, 309767, Note_on_c, 0, 77, 67
2, 309767, Note_on_c, 0, 81, 81
2, 309827, Note_off_c, 0, 79, 0
2, 310015, Note_off_c, 0, 64, 0
2, 310271, Note_off_c, 0, 81, 0
2, 310276, Note_on_c, 0, 79, 62
2, 310276, Note_on_c, 0, 83, 76
2, 310276, Note_on_c, 0, 53, 75
2, 310332, Note_off_c, 0, 77, 0
2, 311322, Note_on_c, 0, 60, 70
2, 311361, Note_off_c, 0, 53, 0
2, 312030, Note_off_c, 0, 60, 0
2, 312286, Note_off_c, 0, 79, 0
2, 312337, Note_off_c, 0, 83, 0
2, 312338, Note_on_c, 0, 81, 70
2, 312338, Note_on_c, 0, 84, 84
2, 312338, Note_on_c, 0, 64, 78
2, 313087, Note_off_c, 0, 81, 0
2, 313087, Note_off_c, 0, 84, 0
2, 313087, Note_off_c, 0, 64, 0
2, 313348, Note_on_c, 0, 76, 72
2, 313348, Note_on_c, 0, 79, 86
2, 313348, Note_on_c, 0, 60, 80
2, 314137, Note_off_c, 0, 76, 0
2, 314137, Note_off_c, 0, 79, 0
2, 314368, Note_on_c, 0, 81, 75
2, 314376, Note_on_c, 0, 79, 81
2, 314393, Note_off_c, 0, 60, 0
2, 314394, Note_on_c, 0, 67, 76
2, 314552, Note_on_c, 0, 76, 75
2, 314552, Note_on_c, 0, 79, 76
2, 314574, Note_off_c, 0, 81, 0
2, 314880, Note_off_c, 0, 76, 0
2, 314880, Note_off_c, 0, 79, 0
2, 314902, Note_off_c, 0, 79, 0
2, 314903, Note_on_c, 0, 74, 67
2, 314903, Note_on_c, 0, 77, 81
2, 315153, Note_off_c, 0, 67, 0
2, 315409, Note_off_c, 0, 77, 0
2, 315410, Note_on_c, 0, 72, 67
2, 315410, Note_on_c, 0, 76, 81
2, 315410, Note_on_c, 0, 67, 78
2, 315470, Note_off_c, 0, 74, 0
2, 315910, Note_off_c, 0, 76, 0
2, 315911, Note_on_c, 0, 74, 67
2, 315911, Note_on_c, 0, 77, 81
2, 315971, Note_off_c, 0, 72, 0
2, 316159, Note_off_c, 0, 67, 0
2, 316415, Note_off_c, 0, 77, 0
2, 316420, Note_on_c, 0, 72, 62
2, 316420, Note_on_c, 0, 76, 76
2, 316420, Note_on_c, 0, 67, 75
2, 316476, Note_off_c, 0, 74, 0
2, 316960, Note_on_c, 0, 65, 75
2, 317020, Note_off_c, 0, 67, 0
2, 317083, Note_on_c, 0, 67, 75
2, 317097, Note_off_c, 0, 65, 0
2, 317207, Note_on_c, 0, 65, 75
2, 317221, Note_off_c, 0, 67, 0
2, 317333, Note_on_c, 0, 67, 75
2, 317347, Note_off_c, 0, 65, 0
2, 317466, Note_on_c, 0, 64, 75
2, 317480, Note_off_c, 0, 67, 0
2, 317975, Note_on_c, 0, 65, 75
2, 318035, Note_off_c, 0, 64, 0
2, 318482, Note_on_c, 0, 64, 75
2, 318542, Note_off_c, 0, 65, 0
2, 318983, Note_on_c, 0, 62, 70
2, 319043, Note_off_c, 0, 64, 0
2, 319406, Note_off_c, 0, 62, 0
2, 319436, Note_off_c, 0, 72, 0
2, 319487, Note_off_c, 0, 76, 0
2, 319492, Note_on_c, 0, 58, 80
2, 320537, Note_off_c, 0, 58, 0
2, 320538, Note_on_c, 0, 72, 68
2, 320538, Note_on_c, 0, 76, 82
2, 320538, Note_on_c, 0, 62, 76
2, 321016, Note_off_c, 0, 72, 0
2, 321046, Note_off_c, 0, 76, 0
2, 321047, Note_on_c, 0, 74, 67
2, 321047, Note_on_c, 0, 77, 81
2, 321297, Note_off_c, 0, 62, 0
2, 321523, Note_off_c, 0, 74, 0
2, 321553, Note_off_c, 0, 77, 0
2, 321554, Note_on_c, 0, 72, 70
2, 321554, Note_on_c, 0, 76, 84
2, 321554, Note_on_c, 0, 65, 78
2, 322024, Note_off_c, 0, 72, 0
2, 322054, Note_off_c, 0, 76, 0
2, 322055, Note_on_c, 0, 70, 67
2, 322055, Note_on_c, 0, 74, 81
2, 322303, Note_off_c, 0, 65, 0
2, 322559, Note_off_c, 0, 70, 0
2, 322559, Note_off_c, 0, 74, 0
2, 322564, Note_on_c, 0, 65, 72
2, 322564, Note_on_c, 0, 70, 86
2, 322564, Note_on_c, 0, 58, 80
2, 323609, Note_off_c, 0, 65, 0
2, 323609, Note_off_c, 0, 70, 0
2, 323609, Note_off_c, 0, 58, 0
2, 323610, Note_on_c, 0, 58, 68
2, 323610, Note_on_c, 0, 65, 82
2, 323610, Note_on_c, 0, 62, 76
2, 324369, Note_off_c, 0, 62, 0
2, 324625, Note_off_c, 0, 58, 0
2, 324625, Note_off_c, 0, 65, 0
2, 324626, Note_on_c, 0, 74, 70
2, 324626, Note_on_c, 0, 77, 84
2, 324626, Note_on_c, 0, 65, 78
2, 325375, Note_off_c, 0, 65, 0
2, 325631, Note_off_c, 0, 74, 0
2, 325631, Note_off_c, 0, 77, 0
2, 325636, Note_on_c, 0, 72, 72
2, 325636, Note_on_c, 0, 76, 86
2, 325636, Note_on_c, 0, 57, 80
2, 326681, Note_off_c, 0, 57, 0
2, 326682, Note_on_c, 0, 60, 76
2, 327190, Note_off_c, 0, 72, 0
2, 327190, Note_off_c, 0, 76, 0
2, 327191, Note_on_c, 0, 71, 67
2, 327191, Note_on_c, 0, 74, 81
2, 327441, Note_off_c, 0, 60, 0
2, 327667, Note_off_c, 0, 71, 0
2, 327697, Note_off_c, 0, 74, 0
2, 327698, Note_on_c, 0, 69, 70
2, 327698, Note_on_c, 0, 72, 84
2, 327698, Note_on_c, 0, 64, 78
2, 328168, Note_off_c, 0, 69, 0
2, 328198, Note_off_c, 0, 72, 0
2, 328199, Note_on_c, 0, 71, 67
2, 328199, Note_on_c, 0, 74, 81
2, 328447, Note_off_c, 0, 64, 0
2, 328673, Note_off_c, 0, 71, 0
2, 328703, Note_off_c, 0, 74, 0
2, 328708, Note_on_c, 0, 72, 67
2, 328708, Note_on_c, 0, 76, 81
2, 328708, Note_on_c, 0, 57, 80
2, 329753, Note_off_c, 0, 57, 0
2, 329754, Note_on_c, 0, 60, 76
2, 330513, Note_off_c, 0, 60, 0
2, 330769, Note_off_c, 0, 72, 0
2, 330769, Note_off_c, 0, 76, 0
2, 330770, Note_on_c, 0, 69, 70
2, 330770, Note_on_c, 0, 72, 84
2, 330770, Note_on_c, 0, 64, 78
2, 331519, Note_off_c, 0, 64, 0
2, 331775, Note_off_c, 0, 69, 0
2, 331775, Note_off_c, 0, 72, 0
2, 331780, Note_on_c, 0, 71, 72
2, 331780, Note_on_c, 0, 75, 86
2, 331780, Note_on_c, 0, 59, 80
2, 332569, Note_off_c, 0, 59, 0
2, 332825, Note_off_c, 0, 71, 0
2, 332825, Note_off_c, 0, 75, 0
2, 332826, Note_on_c, 0, 63, 68
2, 332826, Note_on_c, 0, 71, 82
2, 332826, Note_on_c, 0, 66, 76
2, 333585, Note_off_c, 0, 66, 0
2, 333841, Note_off_c, 0, 63, 0
2, 333841, Note_off_c, 0, 71, 0
2, 333842, Note_on_c, 0, 60, 70
2, 333842, Note_on_c, 0, 69, 84
2, 333842, Note_on_c, 0, 66, 78
2, 334591, Note_off_c, 0, 66, 0
2, 334847, Note_off_c, 0, 60, 0
2, 334847, Note_off_c, 0, 69, 0
2, 334852, Note_on_c, 0, 54, 67
2, 334852, Note_on_c, 0, 63, 81
2, 334852, Note_on_c, 0, 59, 80
2, 335641, Note_off_c, 0, 59, 0
2, 335898, Note_on_c, 0, 66, 76
2, 336657, Note_off_c, 0, 66, 0
2, 336913, Note_off_c, 0, 54, 0
2, 336913, Note_off_c, 0, 63, 0
2, 336914, Note_on_c, 0, 71, 70
2, 336914, Note_on_c, 0, 75, 84
2, 336914, Note_on_c, 0, 66, 78
2, 337663, Note_off_c, 0, 66, 0
2, 337919, Note_off_c, 0, 71, 0
2, 337919, Note_off_c, 0, 75, 0
2, 337920, Note_on_c, 0, 69, 75
2, 337924, Note_on_c, 0, 76, 75
2, 337924, Note_on_c, 0, 64, 80
2, 338713, Note_off_c, 0, 64, 0
2, 338970, Note_on_c, 0, 71, 76
2, 339729, Note_off_c, 0, 71, 0
2, 339968, Note_off_c, 0, 69, 0
2, 339968, Note_on_c, 0, 68, 75
2, 339986, Note_on_c, 0, 71, 78
2, 340480, Note_off_c, 0, 68, 0
2, 340480, Note_on_c, 0, 69, 75
2, 340735, Note_off_c, 0, 71, 0
2, 340992, Note_off_c, 0, 69, 0
2, 340992, Note_on_c, 0, 68, 75
2, 340992, Note_on_c, 0, 65, 75
2, 341178, Note_on_c, 0, 64, 70
2, 341200, Note_off_c, 0, 65, 0
2, 341504, Note_off_c, 0, 64, 0
2, 341536, Note_on_c, 0, 62, 75
2, 342042, Note_on_c, 0, 60, 75
2, 342102, Note_off_c, 0, 62, 0
2, 342551, Note_on_c, 0, 62, 75
2, 342611, Note_off_c, 0, 60, 0
2, 343058, Note_on_c, 0, 60, 75
2, 343118, Note_off_c, 0, 62, 0
2, 343559, Note_on_c, 0, 56, 70
2, 343619, Note_off_c, 0, 60, 0
2, 343982, Note_off_c, 0, 56, 0
2, 344063, Note_off_c, 0, 76, 0
2, 344064, Note_off_c, 0, 68, 0
2, 344068, Note_on_c, 0, 57, 75
2, 345114, Note_on_c, 0, 74, 67
2, 345114, Note_on_c, 0, 83, 81
2, 345114, Note_on_c, 0, 64, 70
2, 345153, Note_off_c, 0, 57, 0
2, 345622, Note_off_c, 0, 83, 0
2, 345623, Note_on_c, 0, 76, 67
2, 345623, Note_on_c, 0, 84, 81
2, 345683, Note_off_c, 0, 74, 0
2, 345873, Note_off_c, 0, 64, 0
2, 346129, Note_off_c, 0, 84, 0
2, 346130, Note_on_c, 0, 74, 67
2, 346130, Note_on_c, 0, 83, 81
2, 346130, Note_on_c, 0, 64, 78
2, 346190, Note_off_c, 0, 76, 0
2, 346630, Note_off_c, 0, 83, 0
2, 346631, Note_on_c, 0, 72, 67
2, 346631, Note_on_c, 0, 81, 81
2, 346691, Note_off_c, 0, 74, 0
2, 346879, Note_off_c, 0, 64, 0
2, 347135, Note_off_c, 0, 81, 0
2, 347140, Note_on_c, 0, 71, 62
2, 347140, Note_on_c, 0, 76, 76
2, 347140, Note_on_c, 0, 57, 75
2, 347196, Note_off_c, 0, 72, 0
2, 347878, Note_off_c, 0, 71, 0
2, 347929, Note_off_c, 0, 76, 0
2, 348186, Note_on_c, 0, 69, 68
2, 348186, Note_on_c, 0, 72, 82
2, 348186, Note_on_c, 0, 64, 70
2, 348225, Note_off_c, 0, 57, 0
2, 348945, Note_off_c, 0, 69, 0
2, 348945, Note_off_c, 0, 72, 0
2, 348945, Note_off_c, 0, 64, 0
2, 349202, Note_on_c, 0, 71, 70
2, 349202, Note_on_c, 0, 76, 84
2, 349202, Note_on_c, 0, 64, 78
2, 349951, Note_off_c, 0, 71, 0
2, 349951, Note_off_c, 0, 76, 0
2, 349951, Note_off_c, 0, 64, 0
2, 350212, Note_on_c, 0, 55, 75
2, 351258, Note_on_c, 0, 74, 67
2, 351258, Note_on_c, 0, 83, 81
2, 351258, Note_on_c, 0, 64, 70
2, 351297, Note_off_c, 0, 55, 0
2, 351766, Note_off_c, 0, 83, 0
2, 351767, Note_on_c, 0, 76, 67
2, 351767, Note_on_c, 0, 84, 81
2, 351827, Note_off_c, 0, 74, 0
2, 352017, Note_off_c, 0, 64, 0
2, 352273, Note_off_c, 0, 84, 0
2, 352274, Note_on_c, 0, 74, 67
2, 352274, Note_on_c, 0, 83, 81
2, 352274, Note_on_c, 0, 64, 78
2, 352334, Note_off_c, 0, 76, 0
2, 352774, Note_off_c, 0, 83, 0
2, 352775, Note_on_c, 0, 72, 67
2, 352775, Note_on_c, 0, 81, 81
2, 352835, Note_off_c, 0, 74, 0
2, 353023, Note_off_c, 0, 64, 0
2, 353279, Note_off_c, 0, 81, 0
2, 353284, Note_on_c, 0, 71, 62
2, 353284, Note_on_c, 0, 86, 76
2, 353284, Note_on_c, 0, 55, 75
2, 353340, Note_off_c, 0, 72, 0
2, 354330, Note_on_c, 0, 64, 70
2, 354369, Note_off_c, 0, 55, 0
2, 355089, Note_off_c, 0, 64, 0
2, 355346, Note_on_c, 0, 64, 78
2, 356095, Note_off_c, 0, 64, 0
2, 356300, Note_off_c, 0, 71, 0
2, 356351, Note_off_c, 0, 86, 0
2, 356356, Note_on_c, 0, 53, 75
2, 357402, Note_on_c, 0, 79, 67
2, 357402, Note_on_c, 0, 83, 81
2, 357402, Note_on_c, 0, 64, 70
2, 357441, Note_off_c, 0, 53, 0
2, 357910, Note_off_c, 0, 83, 0
2, 357911, Note_on_c, 0, 81, 67
2, 357911, Note_on_c, 0, 84, 81
2, 357971, Note_off_c, 0, 79, 0
2, 358161, Note_off_c, 0, 64, 0
2, 358417, Note_off_c, 0, 84, 0
2, 358418, Note_on_c, 0, 79, 67
2, 358418, Note_on_c, 0, 83, 81
2, 358418, Note_on_c, 0, 64, 78
2, 358478, Note_off_c, 0, 81, 0
2, 358918, Note_off_c, 0, 83, 0
2, 358919, Note_on_c, 0, 77, 67
2, 358919, Note_on_c, 0, 81, 81
2, 358979, Note_off_c, 0, 79, 0
2, 359167, Note_off_c, 0, 64, 0
2, 359423, Note_off_c, 0, 81, 0
2, 359428, Note_on_c, 0, 79, 62
2, 359428, Note_on_c, 0, 83, 76
2, 359428, Note_on_c, 0, 53, 75
2, 359484, Note_off_c, 0, 77, 0
2, 360474, Note_on_c, 0, 60, 70
2, 360513, Note_off_c, 0, 53, 0
2, 361182, Note_off_c, 0, 60, 0
2, 361438, Note_off_c, 0, 79, 0
2, 361489, Note_off_c, 0, 83, 0
2, 361490, Note_on_c, 0, 81, 70
2, 361490, Note_on_c, 0, 84, 84
2, 361490, Note_on_c, 0, 64, 78
2, 362239, Note_off_c, 0, 81, 0
2, 362239, Note_off_c, 0, 84, 0
2, 362239, Note_off_c, 0, 64, 0
2, 362500, Note_on_c, 0, 76, 72
2, 362500, Note_on_c, 0, 79, 86
2, 362500, Note_on_c, 0, 60, 80
2, 363289, Note_off_c, 0, 76, 0
2, 363289, Note_off_c, 0, 79, 0
2, 363520, Note_on_c, 0, 81, 75
2, 363528, Note_on_c, 0, 79, 81
2, 363545, Note_off_c, 0, 60, 0
2, 363546, Note_on_c, 0, 67, 76
2, 363704, Note_on_c, 0, 76, 75
2, 363704, Note_on_c, 0, 79, 76
2, 363726, Note_off_c, 0, 81, 0
2, 364032, Note_off_c, 0, 76, 0
2, 364032, Note_off_c, 0, 79, 0
2, 364054, Note_off_c, 0, 79, 0
2, 364055, Note_on_c, 0, 74, 67
2, 364055, Note_on_c, 0, 77, 81
2, 364305, Note_off_c, 0, 67, 0
2, 364561, Note_off_c, 0, 77, 0
2, 364562, Note_on_c, 0, 72, 67
2, 364562, Note_on_c, 0, 76, 81
2, 364562, Note_on_c, 0, 67, 78
2, 364622, Note_off_c, 0, 74, 0
2, 365062, Note_off_c, 0, 76, 0
2, 365063, Note_on_c, 0, 74, 67
2, 365063, Note_on_c, 0, 77, 81
2, 365123, Note_off_c, 0, 72, 0
2, 365311, Note_off_c, 0, 67, 0
2, 365567, Note_off_c, 0, 77, 0
2, 365572, Note_on_c, 0, 72, 62
2, 365572, Note_on_c, 0, 76, 76
2, 365572, Note_on_c, 0, 67, 75
2, 365628, Note_off_c, 0, 74, 0
2, 366112, Note_on_c, 0, 65, 75
2, 366172, Note_off_c, 0, 67, 0
2, 366235, Note_on_c, 0, 67, 75
2, 366249, Note_off_c, 0, 65, 0
2, 366359, Note_on_c, 0, 65, 75
2, 366373, Note_off_c, 0, 67, 0
2, 366485, Note_on_c, 0, 67, 75
2, 366499, Note_off_c, 0, 65, 0
2, 366618, Note_on_c, 0, 64, 75
2, 366632, Note_off_c, 0, 67, 0
2, 367127, Note_on_c, 0, 65, 75
2, 367187, Note_off_c, 0, 64, 0
2, 367634, Note_on_c, 0, 64, 75
2, 367694, Note_off_c, 0, 65, 0
2, 368135, Note_on_c, 0, 62, 70
2, 368195, Note_off_c, 0, 64, 0
2, 368558, Note_off_c, 0, 62, 0
2, 368588, Note_off_c, 0, 72, 0
2, 368639, Note_off_c, 0, 76, 0
2, 368644, Note_on_c, 0, 58, 80
2, 369689, Note_off_c, 0, 58, 0
2, 369690, Note_on_c, 0, 72, 68
2, 369690, Note_on_c, 0, 76, 82
2, 369690, Note_on_c, 0, 62, 76
2, 370168, Note_off_c, 0, 72, 0
2, 370198, Note_off_c, 0, 76, 0
2, 370199, Note_on_c, 0, 74, 67
2, 370199, Note_on_c, 0, 77, 81
2, 370449, Note_off_c, 0, 62, 0
2, 370675, Note_off_c, 0, 74, 0
2, 370705, Note_off_c, 0, 77, 0
2, 370706, Note_on_c, 0, 72, 70
2, 370706, Note_on_c, 0, 76, 84
2, 370706, Note_on_c, 0, 65, 78
2, 371176, Note_off_c, 0, 72, 0
2, 371206, Note_off_c, 0, 76, 0
2, 371207, Note_on_c, 0, 70, 67
2, 371207, Note_on_c, 0, 74, 81
2, 371455, Note_off_c, 0, 65, 0
2, 371711, Note_off_c, 0, 70, 0
2, 371711, Note_off_c, 0, 74, 0
2, 371716, Note_on_c, 0, 65, 72
2, 371716, Note_on_c, 0, 70, 86
2, 371716, Note_on_c, 0, 58, 80
2, 372761, Note_off_c, 0, 65, 0
2, 372761, Note_off_c, 0, 70, 0
2, 372761, Note_off_c, 0, 58, 0
2, 372762, Note_on_c, 0, 58, 68
2, 372762, Note_on_c, 0, 65, 82
2, 372762, Note_on_c, 0, 62, 76
2, 373521, Note_off_c, 0, 62, 0
2, 373777, Note_off_c, 0, 58, 0
2, 373777, Note_off_c, 0, 65, 0
2, 373778, Note_on_c, 0, 74, 70
2, 373778, Note_on_c, 0, 77, 84
2, 373778, Note_on_c, 0, 65, 78
2, 374527, Note_off_c, 0, 65, 0
2, 374783, Note_off_c, 0, 74, 0
2, 374783, Note_off_c, 0, 77, 0
2, 374788, Note_on_c, 0, 72, 72
2, 374788, Note_on_c, 0, 76, 86
2, 374788, Note_on_c, 0, 57, 80
2, 375833, Note_off_c, 0, 57, 0
2, 375834, Note_on_c, 0, 60, 76
2, 376342, Note_off_c, 0, 72, 0
2, 376342, Note_off_c, 0, 76, 0
2, 376343, Note_on_c, 0, 71, 67
2, 376343, Note_on_c, 0, 74, 81
2, 376593, Note_off_c, 0, 60, 0
2, 376819, Note_off_c, 0, 71, 0
2, 376849, Note_off_c, 0, 74, 0
2, 376850, Note_on_c, 0, 69, 70
2, 376850, Note_on_c, 0, 72, 84
2, 376850, Note_on_c, 0, 64, 78
2, 377320, Note_off_c, 0, 69, 0
2, 377350, Note_off_c, 0, 72, 0
2, 377351, Note_on_c, 0, 71, 67
2, 377351, Note_on_c, 0, 74, 81
2, 377599, Note_off_c, 0, 64, 0
2, 377825, Note_off_c, 0, 71, 0
2, 377855, Note_off_c, 0, 74, 0
2, 377860, Note_on_c, 0, 72, 67
2, 377860, Note_on_c, 0, 76, 81
2, 377860, Note_on_c, 0, 57, 80
2, 378905, Note_off_c, 0, 57, 0
2, 378906, Note_on_c, 0, 60, 76
2, 379665, Note_off_c, 0, 60, 0
2, 379921, Note_off_c, 0, 72, 0
2, 379921, Note_off_c, 0, 76, 0
2, 379922, Note_on_c, 0, 69, 70
2, 379922, Note_on_c, 0, 72, 84
2, 379922, Note_on_c, 0, 64, 78
2, 380671, Note_off_c, 0, 64, 0
2, 380927, Note_off_c, 0, 69, 0
2, 380927, Note_off_c, 0, 72, 0
2, 380932, Note_on_c, 0, 71, 72
2, 380932, Note_on_c, 0, 75, 86
2, 380932, Note_on_c, 0, 59, 80
2, 381721, Note_off_c, 0, 59, 0
2, 381977, Note_off_c, 0, 71, 0
2, 381977, Note_off_c, 0, 75, 0
2, 381978, Note_on_c, 0, 63, 68
2, 381978, Note_on_c, 0, 71, 82
2, 381978, Note_on_c, 0, 66, 76
2, 382737, Note_off_c, 0, 66, 0
2, 382993, Note_off_c, 0, 63, 0
2, 382993, Note_off_c, 0, 71, 0
2, 382994, Note_on_c, 0, 60, 70
2, 382994, Note_on_c, 0, 69, 84
2, 382994, Note_on_c, 0, 66, 78
2, 383743, Note_off_c, 0, 66, 0
2, 383999, Note_off_c, 0, 60, 0
2, 383999, Note_off_c, 0, 69, 0
2, 384004, Note_on_c, 0, 54, 67
2, 384004, Note_on_c, 0, 63, 81
2, 384004, Note_on_c, 0, 59, 80
2, 384793, Note_off_c, 0, 59, 0
2, 385050, Note_on_c, 0, 66, 76
2, 385809, Note_off_c, 0, 66, 0
2, 386065, Note_off_c, 0, 54, 0
2, 386065, Note_off_c, 0, 63, 0
2, 386066, Note_on_c, 0, 71, 70
2, 386066, Note_on_c, 0, 75, 84
2, 386066, Note_on_c, 0, 66, 78
2, 386815, Note_off_c, 0, 66, 0
2, 387071, Note_off_c, 0, 71, 0
2, 387071, Note_off_c, 0, 75, 0
2, 387072, Note_on_c, 0, 69, 75
2, 387076, Note_on_c, 0, 76, 75
2, 387076, Note_on_c, 0, 64, 80
2, 387865, Note_off_c, 0, 64, 0
2, 388122, Note_on_c, 0, 71, 76
2, 388881, Note_off_c, 0, 71, 0
2, 389120, Note_off_c, 0, 69, 0
2, 389120, Note_on_c, 0, 68, 75
2, 389138, Note_on_c, 0, 71, 78
2, 389632, Note_off_c, 0, 68, 0
2, 389632, Note_on_c, 0, 69, 75
2, 389887, Note_off_c, 0, 71, 0
2, 390144, Note_off_c, 0, 69, 0
2, 390144, Note_on_c, 0, 68, 75
2, 390144, Note_on_c, 0, 65, 75
2, 390330, Note_on_c, 0, 64, 70
2, 390352, Note_off_c, 0, 65, 0
2, 390656, Note_off_c, 0, 64, 0
2, 390688, Note_on_c, 0, 62, 75
2, 391194, Note_on_c, 0, 60, 75
2, 391254, Note_off_c, 0, 62, 0
2, 391703, Note_on_c, 0, 62, 75
2, 391763, Note_off_c, 0, 60, 0
2, 392210, Note_on_c, 0, 60, 75
2, 392270, Note_off_c, 0, 62, 0
2, 392711, Note_on_c, 0, 56, 70
2, 392771, Note_off_c, 0, 60, 0
2, 393134, Note_off_c, 0, 56, 0
2, 393215, Note_off_c, 0, 76, 0
2, 393216, Note_off_c, 0, 68, 0
2, 393216, End_track
0, 0, End_of_file